<svg xmlns="http://www.w3.org/2000/svg" viewBox="0 0 521.85 521.85"><g fill="#0068b6" stroke="#fcfcfc" stroke-width="6" transform="translate(74.72 54.44)scale(.836)"><circle cx="222.72" cy="246.99" r="309.11"/><path d="M197.36 186.13c1.35.23-64.17 146.4-120.53 199.25-28.17 28.07-52.22 48.19-74.54 78A309 309 0 0 0 67.09 514a285 285 0 0 1 49.53-56.51c105.35-96.74 69.61-137.48 80.74-271.36ZM324.44-44.9C297.5 9.05 312.9 57.14 305.05 151.37c-1.1-.18 42.2-97.26 88.77-161.8a309 309 0 0 0-69.38-34.47zM168.99-57.21a309 309 0 0 0-76.2 23.88l.2 1.33c23.76 141.04 77.4 133.26 183.6 215.51-.92 1.01-87.82-133.56-101.45-209.6-2.3-10.95-4.25-21.15-6.15-31.12zm51.41 235.23c.93-1 87.84 133.56 101.46 209.61 10.54 50 13.75 87.14 38.34 136.08a309 309 0 0 0 69.1-46.98c-11.6-24.58-20.82-51.89-25.3-83.2-23.75-141.04-77.38-133.26-183.6-215.5Zm-26.16-10.52c1.01.93-133.55 87.84-209.6 101.46-25.11 5.3-46.97 8.74-68.71 13.97a309 309 0 0 0 19.46 77.91 281 281 0 0 1 43.34-9.73C119.77 327.35 112 273.72 194.24 167.5ZM445.98 33.24C377.12 62.8 367.96 113.76 303.48 197c-.92-.86 113.67-74.95 191.12-97.05a309 309 0 0 0-48.62-66.72Z"/><path d="M-2.15 35.02a309 309 0 0 0-46.57 64.5 281 281 0 0 1 25.4 16.98c116.52 82.94 148.94 39.51 282.2 22.57.07 1.37-156.54-32.34-219.95-76.48-14.9-9.7-28.05-18.92-41.08-27.57Zm379.5 113.38c-44.06-.92-87.12 16.99-162.08 26.52-.06-1.37 156.55 32.33 219.96 76.48 32.86 21.42 57.32 40.53 90.42 56.04a309 309 0 0 0 6.18-60.45 309 309 0 0 0-1.31-28.18 280 280 0 0 1-33.03-21.32c-50.98-36.29-85.87-48.39-120.14-49.1Zm-188.01 37.58c1.36-.06-32.34 156.55-76.48 219.96-23.26 35.68-43.8 61.45-59.96 99.14a309 309 0 0 0 74.43 35.78c9.06-24.26 21.46-48.7 39.44-72.66 82.94-116.53 39.51-148.95 22.57-282.22zm17.5 20.56c.7-1.18 113.69 112.37 142.82 183.93 17.84 40.25 28.38 72.3 52.84 107.74a309 309 0 0 0 60.64-57.05 283 283 0 0 1-31.9-62c-52.56-133.02-103.4-114.25-224.4-172.62Z"/><path d="M179.07 201.69c1.18.7-112.38 113.68-183.94 142.82-20.37 9.03-38.62 16.2-56.3 24.24A309 309 0 0 0-20.5 437.6a281 281 0 0 1 26.95-11.51c133.02-52.56 114.26-103.4 172.63-224.4ZM416.33 6.05c-80.87 45.9-74.23 98.06-124.27 201.78-1.17-.69 109.65-110.94 181.32-141.68a309 309 0 0 0-57.05-60.1ZM-53.24 108.09a309 309 0 0 0-26.39 75.39 281 281 0 0 1 35.28 13.56c131.22 56.9 153.9 7.68 280.74-36.6.34 1.32-159.85.91-231.05-29.08-21.41-8.26-39.85-16.32-58.58-23.27z"/><path d="M380.29 142.31c-55.7.53-93.9 32.5-179.11 62.26-.34-1.32 159.85-.92 231.05 29.08 36.14 13.94 63.79 27.38 98.76 35.7a309 309 0 0 0 .84-22.36 309 309 0 0 0-6.51-63.1 281 281 0 0 1-43.4-15.92c-43.06-18.67-74.43-25.92-101.63-25.66zm-202.18 78.47c1.33-.34.92 159.85-29.07 231.05-12.12 31.41-23.86 56.4-32.2 85.36a309 309 0 0 0 79.4 17.66 281 281 0 0 1 18.48-53.32c56.9-131.23 7.67-153.91-36.6-280.75zm44.61-282.9a309 309 0 0 0-20.46.77c-11.62 72.42 25.72 108.13 60.1 206.58-1.17.3-1-123.32 19.41-201.63a309 309 0 0 0-59.05-5.72z"/><path d="M206.25 189.98c1.26-.55 25.92 157.74 7.43 232.75-10.17 47.44-21.65 81.6-20.6 131.76a309 309 0 0 0 29.64 1.6 309 309 0 0 0 52.98-4.76c-.92-28.22 1.6-58.06 10.63-89.8 35.66-138.5-16.5-153.2-80.08-271.55Zm-19.62-20.25c.55 1.26-157.73 25.92-232.75 7.43-10.73-2.3-20.67-4.63-30.38-6.9a309 309 0 0 0-9.88 76.73l.09 2.45 1.36.37C53.6 285.47 68.3 233.3 186.63 169.73zm283.86-20.28c-74.4-.7-103.6 42-196.06 91.67-.54-1.26 157.74-25.92 232.76-7.43 8.56 1.83 16.67 3.7 24.54 5.55a309 309 0 0 0-14.03-84.6c-17.79-3.4-33.3-5.06-47.21-5.2zM67.8-20.48A309 309 0 0 0 4.83 28.06q1.92 3.23 3.8 6.59c72.72 123.16 120 96.67 248.63 135.4-.5 1.27-129.86-93.21-169.83-159.33C80.32-.26 74-10.51 67.8-20.48Z"/><path d="M202.82 185.06c.5-1.27 129.87 93.21 169.84 159.33 26.68 41.23 42.78 73.8 79.95 109.01a309 309 0 0 0 47.08-69.4 286 286 0 0 1-48.23-63.53c-72.72-123.16-120-96.67-248.64-135.4Z"/></g><path fill="#0068b6" d="M86.77 191.56 333.11 102l89.57 179.15-291.12 89.57Z"/><g fill="#e50012" transform="translate(19.59 12.41)scale(2.2394)"><circle cx="71.57" cy="44.33" r="25.41"/><circle cx="174.51" cy="113.74" r="27.9"/><circle cx="31.38" cy="131.34" r="27.4"/><circle cx="103.95" cy="114.24" r="27.4" transform="translate(66.37 -32.46)scale(.6969)"/><circle cx="103.95" cy="114.24" r="27.4" transform="translate(28.99 -64.74)scale(.7818)"/><circle cx="103.95" cy="114.24" r="27.4" transform="translate(84.72 -23.81)scale(.7999)"/><circle cx="103.95" cy="114.24" r="27.4" transform="translate(-48.54 15.02)scale(.6969)"/><circle cx="103.95" cy="114.24" r="27.4" transform="matrix(.703 0 0 .7818 35.35 -36.18)"/><circle cx="103.95" cy="114.24" r="27.4" transform="matrix(.7999 -.2791 .2627 .7312 3.24 95.41)"/><circle cx="103.95" cy="114.24" r="27.4" transform="matrix(-.2857 -1.1848 .6163 .0053 107.4 265.35)"/><circle cx="103.95" cy="114.24" r="27.4" transform="matrix(.6536 -.3485 .3651 .3938 -64.49 60.14)"/><circle cx="103.95" cy="114.24" r="27.4" transform="matrix(-.4131 -1.0604 .92 -.3885 9.73 314.2)"/></g><g transform="rotate(138 171.38 393.57)scale(2.2394)"><circle cx="73.22" cy="171.3" r="14.39" fill="#fff"/><circle cx="73.22" cy="163.58" r="5.86" fill="#0068b6"/></g><g transform="rotate(-109 57.78 280.67)scale(2.2394)"><circle cx="19.45" cy="125.68" r="9.62" fill="#fff"/><circle cx="19.45" cy="121.55" r="4.14" fill="#0068b6"/></g><g transform="rotate(70.4 157.24 135.13)scale(2.2394)"><circle cx="69.77" cy="51.37" r="12.18" fill="#fff"/><circle cx="69.77" cy="46.1" r="5.17" fill="#0068b6"/></g><g transform="rotate(17 213.5 114)scale(2.2394)"><circle cx="109.49" cy="18.87" r="11.36" fill="#fff"/><circle cx="109.49" cy="13.26" r="5.17" fill="#0068b6"/></g><g transform="rotate(113 414.18 252.66)scale(2.2394)"><circle cx="182.41" cy="107.16" r="12.76" fill="#fff"/><circle cx="182.41" cy="101.23" r="5.52" fill="#0068b6"/></g><path fill="#fff" d="M188.89 203.2c46.13 18.82 69.76 10.53 101.87-2.68-1 26.5-12.77 77.21-36.32 78.56-43.83 2.53-65.55-75.87-65.55-75.87"/><path d="M277.49 503.52c-.46-.13-1-.5-1.22-.83-1.2-1.86-3.7-9.8-3.67-11.71 0-.73.26-2.22.56-3.31 1.06-3.77 1.85-7.2 1.85-7.98a3 3 0 0 0-.33-1.36q-.32-.58-.34-4.68c-.02-4.75-.38-6.42-3.47-16.1-3.55-11.1-4.1-13.7-4.19-20.15-.07-5.23-.05-5.15-2.36-8.96-3.32-5.46-4.53-8.47-5.84-14.59-.4-1.82-1-4.44-1.34-5.82a121 121 0 0 1-2.5-16.06 17 17 0 0 0-.5-3.18c-.23-.43-1.2-4.54-1.87-7.96-.65-3.25 0-7.1 2.24-13.41.83-2.33 1.73-5.07 2.01-6.09l.52-1.85-.69-4.37-1.06-6.74a249 249 0 0 1-2.25-18.33c-.15-1.64-.4-3.27-.57-3.63s-1.58-1.55-3.15-2.65c-4.32-3.03-6.88-5.05-7.35-5.8a49 49 0 0 0-4.29-4.05c-6.91-6.06-7.4-6.52-9.35-8.94-2.6-3.21-3.53-4.78-8.3-14.02-3.61-6.97-4.32-8.17-5.87-9.84a20 20 0 0 1-4.44-7.34c-.75-2.19-1.3-2.56-3.77-4.55-1.23-1-1.45-1.58-1.16-4.42.14-1.38.23-1.57.89-1.8q.74-.25.98-1.1.41-1.45 1.87-.68c.57.3.7.29 1.02-.16.2-.27.05-.85.05-1.1 0-.56.67-.68 1.16-.49.2.08 1.24.52 1.75 1.32.5.8.85 1.96 1.17 2.17.87.58 3.89 5.46 4.85 7.74.46 1.1 1.16 3.25 1.56 4.78.87 3.32 1.32 3.98 6.16 9.05 7.12 7.47 10.65 11.5 13.7 15.68a23 23 0 0 0 1.97 2.44c.82.65 10.69 5.39 11.1 5.34.23-.03.76.08 1.17.25s1 .31 1.32.31c1.62.01 5.77 1.13 7.8 2.1 2.4 1.16 3.09 1.25 5.43.69 1.94-.47 2.18-.68 2.56-2.23.24-1.03.22-1.6-.14-3.19-.39-1.7-.6-2.1-1.78-3.33a6 6 0 0 1-1.7-2.68q-1.9-7.02.32-9.09c.55-.52.66-.86.66-2.1 0-2.26.4-3.33 1.63-4.31a7 7 0 0 0 1.58-1.87c.63-1.22 1.64-1.87 4.04-2.6 1.5-.44 1.93-.48 2.42-.22.51.27.4.58 1.38-.23.4-.33.92-.73 1.1-.96.47-.56.72-.51.9.15.12.49.32.79.75.42.77-.65.82-.54.95-.07.1.32 1.35.83 2.47.99 2.77.38 5.94 2.63 6.53 4.64a19 19 0 0 1 .47 2.72c.26 2.59.58 3.6 1.3 4.07.85.56 1.09 1.91.73 4.2a7 7 0 0 1-.98 2.84c-.42.6-.97 2.1-1.37 3.75-.37 1.5-1.02 3.5-1.44 4.43-1 2.2-1 3 .02 3.73 1.36.96 2.3.94 5.4-.12 2.66-.9 3-.96 5.7-.9 2.8.06 2.91.04 4-.71l1.42-.97c.62-.4 8.63-4.16 11.4-5.36 3.14-1.36 4.24-2.27 5.58-4.59 1.5-2.6 3.79-5.12 11.8-12.98l4.42-4.33 1.04-3.2a41 41 0 0 1 5.57-10.76c1.72-2.44 2.15-2.71 3.2-2.06.44.27.67.16 1.8-.9 1.69-1.58 2.36-1.94 2.86-1.52.2.17.37.66.37 1.08 0 .58.17.83.67 1.02.55.2.66.42.66 1.3 0 .74.17 1.22.57 1.59.48.45.57.87.63 2.8.06 2.26-1.57 3.64-2.35 4.3-1.4 1.2-2.03.54-.86-.3 1.33-.96 3.1-2.81 2.31-2.81-.64 0-2.1 1-2.77 1.91-.5.67-.5.76-.1 1.2s.52.8-.38 1.66c-.57.54-1 2.61-1.7 4.07-1.5 3.17-2.89 4.18-4.85 5.17-1.8.9-2.1 1.24-3.27 3.47a90 90 0 0 1-6.11 9.5c-3.88 5.3-5.64 7.11-16.4 16.9a28 28 0 0 0-2.69 2.67c-.5.88-5.98 5.29-9.26 7.46-.58.39-1.57 1.16-2.2 1.72-1.08.97-1.16 1.14-1.51 3.27-.2 1.24-.56 4.63-.79 7.54-.6 7.7-1.7 15.63-2.8 20.24-.72 2.98-.69 3.54.27 5.49 4.5 9.17 5.72 17.52 3.44 23.35a14 14 0 0 0-.5 1.99 109 109 0 0 1-2.2 9.52 66 66 0 0 0-1.36 6c-.22 1.4-.76 3.66-1.2 5.03a10 10 0 0 1-2.32 4.28c-4.18 4.94-4.14 4.8-2.97 9.54 1.12 4.55 1.1 5.53-.12 8.39s-1.83 3.46-3.66 3.6c-1.36.11-1.43.08-2.9-1.24a10 10 0 0 1-2.2-2.78c-.67-1.36-.72-1.73-.93-7.2-.21-5.58-.42-7.07-1.22-8.62-.72-1.4-3.12-4.18-3.53-4.1-.6.12-.5 4.22.26 10.46l.6 5.1-.58 2.97-.72 3.68c-.16.86.41 3.82 1.64 8.55 1.8 6.9 2.1 9.5 1.52 13.18-.3 1.88-.44 4.56-.45 8.9l-.03 6.23 1 2.15c.54 1.18.99 2.55.99 3.04s.13 1.6.29 2.48.32 3.2.35 5.16c.04 1.96.29 5.4.55 7.63.45 3.87.45 4.14.01 5.56-.7 2.31-2.43 5.71-3.41 6.76-.88.93-.94.95-2.85.93a14 14 0 0 1-2.78-.27m1.67-3.58c.09-.24 0-.69-.2-1-.2-.3-.88-1.57-1.52-2.8-.64-1.24-1.3-2.25-1.47-2.25-.45 0-.22 2.1.42 3.8.82 2.2 2.32 3.41 2.77 2.25m3.47-14.83c-.04-.24-.55-.59-1.14-.78q-1.14-.35-.4-.32c1.4.03 1.63-.04 1.54-.5-.17-.88-3.8-1.22-4.59-.42-.42.42-.41.47.03.8.37.26.41.41.16.66-.79.8-.35 1 2.09 1 2.1 0 2.39-.05 2.31-.44m.51-2.94c.19-.03.33-.29.33-.57 0-.65-1.02-.87-3.54-.76-1.4.06-1.9.2-2.12.55-.21.35-.2.52.02.67.28.16 4.44.25 5.31.1m-.3-4.05c.49-.4.48-2.39-.02-4.53-1.24-5.33-1.62-13-1.1-22.04.17-2.91.13-4.07-.17-5.42a161 161 0 0 0-3.24-11.77c-.7-1.62-.57-3.62.4-6.62 1.07-3.29 1.04-4-.63-12.43-1.38-7.03-1.9-10.48-1.65-11.13.17-.43.2-.43.68 0 .72.65 1.43.42 1.64-.52.09-.43.18-1.97.2-3.42.04-3.5-.48-5.32-1.98-7-1.6-1.77-3.68-2.78-8.22-3.97a68 68 0 0 1-5.91-1.82c-1.1-.43-2.68-.94-3.52-1.13-2.22-.5-2.41-.23-2.34 3.11.22 10.54 2.16 22.63 4.33 26.94.9 1.77 2.7 4.14 4.43 5.82.9.87 1.74 1.82 1.85 2.11.14.34.03 1.01-.29 1.85-.65 1.73-.62 2.5.1 3.6q1.1 1.62 3.9 2.07c2.09.33 2.11.44.72 3.41-1.35 2.86-2.3 6.33-2.3 8.39 0 3.3 1.3 8.88 4.1 17.6 2.86 8.92 3.12 10.04 2.9 12.49-.17 1.97-.14 2.2.56 3.57l.74 1.47 2.22-.16c1.23-.09 2.4-.3 2.6-.47m-9.36-49.52c-.32-.38-1.54-4.56-1.8-6.15l-.17-1.06.86 1.32c.47.73 1.2 1.72 1.61 2.2.82.94.91 1.5.48 3.03-.28 1.04-.53 1.2-.98.66m18.65-10.02c.57-.95.29-1.55-.73-1.55-1.67 0-2.32.88-1.4 1.9.61.68 1.62.5 2.13-.35m1.59-5a11 11 0 0 0 2.47-1.75c2.56-2.4 3.46-4.74 3.39-8.83l-.05-2.51 1.47-3.32c1.67-3.75 2.05-5.4 2.05-8.83q-.01-5.24-2.48-7.9c-2.37-2.55-8.5-2.69-12.53-.28-4.46 2.67-6.85 6.8-6.64 11.49.07 1.53.21 2.2.56 2.54.44.44.5.43 1.23-.32a9 9 0 0 0 1.46-2.77l.68-1.99-.13 2.04c-.08 1.2-.68 4.16-1.49 7.28-1.17 4.48-1.37 5.62-1.4 7.88-.03 2.98.54 4.9 1.47 4.9.54 0 .6-.19.5-1.66q-.1-1.83.61-.13a10 10 0 0 0 3.1 3.8c1.8 1.2 3.51 1.3 5.73.35m.34-3.9c0-1-.18-2.4-.39-3.12-.21-.7-.33-1.34-.26-1.4.19-.2 1.45 1.07 1.86 1.87.51.98.47 1.9-.15 3.11-.84 1.65-1.06 1.55-1.06-.46m-15.01-21.03c.26-.2.65-1.33.97-2.81.53-2.47 1.86-5.36 2.83-6.15.41-.33.44-.31.24.16-.91 2.23-1.14 3.29-.77 3.65.09.1 1.05-.59 2.14-1.52 3.6-3.1 7.03-4.47 11.05-4.45 3.08.02 4.95.69 6.43 2.3a7 7 0 0 1 1.25 1.77c.57 1.88 1.72 1.78 1.72-.16 0-2.63-1.76-6.16-4.2-8.45-1.42-1.33-.83-1.7.86-.55 1.55 1.05 1.85.92 1.68-.72a23 23 0 0 0-2.42-7.14c-1-1.68-1.9-2.23-4.13-2.52l-1.72-.22 1.92-.74c1.22-.47 2.1-1 2.42-1.45.61-.86 1.67-5.48 2.4-10.49.9-6.18.74-7.22-1.24-7.97a8.6 8.6 0 0 1-4.24-3.46c-3.08-4.62-3.92-9.07-3.43-18.25.15-2.64.2-5 .1-5.22-.17-.44-1.62-.6-1.87-.2-.08.13-.44 1.64-.8 3.38-1.54 7.19-4.33 9.9-10.22 9.9-3.32 0-4.93-.77-6.44-3.05-1.16-1.76-1.65-3.31-2.16-6.85-.5-3.46-.86-4.03-2.34-3.76-1.31.25-1.52.78-1.22 3.11.57 4.38.27 10.63-.7 14.51-1.26 5.06-5.11 10.76-7.58 11.22-1.6.3-1.88 1-1.7 4.2.2 3.28 1.4 10.85 1.92 12.02.41.95 1.27 1.47 3.2 1.98l1.3.33-1.8.19c-1 .1-2.11.38-2.48.62-1.17.77-3.36 6.68-4.22 11.38-.58 3.2-.66 8.1-.15 9.3.88 2.08 8.54 4.71 17.5 6.02 3.26.47 5.35.5 5.9.09m-18.66-49.11c2.01-1.46 4.24-5.1 5.44-8.89 2.94-9.32.31-16.12-7.04-18.25-1.72-.5-2.3-.29-2.3.81 0 .34-.11.69-.25.77s-1.38-.91-2.77-2.22a21.6 21.6 0 0 0-9.26-5.55c-3.77-1.27-4.42-1.8-6.1-5.07-2.08-4.01-4.04-6.53-10.81-13.86a121 121 0 0 1-5.73-6.63c-1.72-2.25-1.86-2.55-2.65-5.55-1.3-4.95-2.84-8.33-4.42-9.73-.47-.42-.57-.43-.87-.07-.27.32-.2.75.37 2.32.7 1.9.78 2.64.67 5.56-.04 1.05-.17 1.52-.4 1.52-.44 0-.65-1.23-.57-3.23.05-1.25-.04-1.62-.52-2.09-.73-.73-1.2-.54-2.12.86-1.05 1.58-.99 2.8.27 5.34 1.26 2.56 2.7 4.15 3.78 4.15s1.35.25 1.56 1.37c.47 2.52 7.22 15.06 10.74 19.95 1.76 2.45 2.7 3.35 6.17 5.93a15 15 0 0 1 3.92 3.9c2.23 3.17 5.77 6.23 11.58 10 3.5 2.26 4.6 2.75 6.1 2.76 1.44 0 2.05-.53 2.76-2.44.26-.7.56-1.26.66-1.26.46 0 1.13 1.14 1.52 2.56.45 1.63.62 6.47.26 7.34-.2.48-.21.48-.75 0a6 6 0 0 1-1.03-1.43 7 7 0 0 0-1.17-1.58q-1.23-1.14-1.86.62c-.52 1.48.89 10.7 1.88 12.27.52.83 1.64.76 2.94-.18m-26.32-36.44c-.31-.12-2.8-3.98-3.48-5.38-.37-.77 1.88 1.59 3.43 3.6q1.97 2.55.05 1.78m67.74 34.63c.44-.49.97-3.1 1.51-7.5.27-2.1.26-2.69-.04-3.31-.5-1.06-1.34-1.1-2.37-.11-.97.92-1.1.96-1.56.4-.71-.85 1.02-5.59 3.06-8.4.51-.7 1.02-1.2 1.14-1.13s.3 1.1.4 2.28c.29 3.46 1.37 4.91 3.17 4.23.82-.31 7.52-5.07 10.22-7.25 2.62-2.12 6.37-5.96 7.02-7.18.4-.74.96-1.2 2.32-1.89 4.43-2.24 10.17-9.3 16.31-20.06a45 45 0 0 1 2.7-4.4c.16-.1.65-.09 1.07.04 1.1.31 1.8-.04 3.2-1.6 2.65-2.95 3.33-5.99 1.96-8.78-.9-1.83-1.67-2.65-2.4-2.55-.82.12-.85 1.19-.08 3.01l.65 1.53-.6 1.6c-.34.9-.71 1.58-.83 1.55-.13-.03-.32-1.74-.43-3.8l-.2-3.74.93-1.82c1.01-1.99 1.1-2.4.59-2.83-.47-.39-.74-.16-1.98 1.67-2.45 3.63-4.3 7.88-4.3 9.9 0 2.4-.16 2.6-8 10.45-7.55 7.56-9.62 10.02-10.4 12.34-.26.82-.71 1.5-1.2 1.85-.42.3-2.46 1.12-4.54 1.81-6.05 2.03-8.71 3.6-12.9 7.6l-2.1 2.01-.48-.83c-.25-.45-.73-.9-1.05-.98-.86-.22-2.95.35-4.47 1.21-1.56.9-2.56 2.25-3.48 4.7-.9 2.44-1.15 8-.48 10.99.78 3.5 2.86 7.15 4.96 8.67 1.25.9 2.06 1 2.68.32m25.59-36.13c0-.37.55-1.26 1.35-2.19 1.8-2.08 1.94-2.2 1.71-1.56-.25.74-2.63 4.34-2.87 4.36-.1 0-.2-.27-.2-.61m-43.4 24.58c2.87-1.47 5.35-5.61 4.1-6.86-.52-.52-1.72-.54-4.17-.07-.99.2-1.86.25-1.93.13-.15-.25 1.07-2.76 1.47-3 .16-.1.27.16.27.65 0 1.12.46 1.21 2.63.55 2.2-.66 3.08-1.39 3.31-2.73.14-.84.06-1.1-.52-1.68-.64-.64-.82-.68-2.2-.53-.83.09-2.6.24-3.93.33l-2.44.17-3.59-1.77c-1.97-.98-3.7-1.7-3.85-1.61s-.26.9-.27 1.8c0 .92-.17 1.93-.39 2.3-.93 1.64-.13 2.78 2.6 3.68.97.33 2.03.82 2.36 1.1.6.5.6.5-1.53.5-2.94.01-3.28.5-2.27 3.17q1.18 3.13 3.96 4.16c1.36.5 5.18.33 6.4-.29m-.9-14.45c1.61-.78 4.64-3.41 5.32-4.63 1.37-2.43 2.59-10.2 1.96-12.46a17 17 0 0 1-.29-3.34c0-3.59-.35-3.76-6.09-2.97-3.99.54-5.49.5-7.86-.26-2.53-.81-2.67-.82-2.96-.07l-.8 1.97c-.38.94-.63 2.38-.78 4.5-.32 4.46-.88 5.51-1.78 3.36-.5-1.19-.46-2.21.08-2.82q.73-.82-.52-1.63c-.81-.51-1.12.22-1.1 2.57.04 2.77.5 3.9 2.01 4.84.63.39 1.23.84 1.34 1 .1.16.43 1.34.72 2.62a19 19 0 0 0 .91 3.04c.6 1.15 1.99 2.33 4.26 3.62 2.43 1.39 3.76 1.54 5.58.66m-3.73-6.84c-.43.28-1.2.93-1.7 1.46-1.36 1.43-1 1.59 3.51 1.58 2.09 0 3.95-.1 4.13-.22.39-.24-1.52-2.33-2.68-2.94a3.4 3.4 0 0 0-3.26.12m3.8 1.12c1.51 1.06.52.97-1.63 1.05-2.28.1-2.93.15-2.93-.37 0-1.21 3.3-1.58 4.56-.68m-3.3-3.26c-1-.4-1-.8-.02-.8 1.42 0 1.64-.48 1.64-3.64v-2.77l1.02-.88c1.15-1 3.07-1.52 5.1-1.39 1.32.09 1.9.67.92.93-.63.16-.68.4-.27 1.19.23.41.2.63-.08.91-.92.93-3.56.62-3.84-.44-.07-.29-.3-.52-.5-.52q-1.05 0-.77 4c.18 2.54.18 2.55-.54 3.1-.74.6-1.7.7-2.67.3m-4.2-5.75c-.3-.07-.74-.31-1-.54-.57-.51-.23-1 .87-1.22.9-.18 1.02-.55.3-.94q-.5-.27-1.4-.01c-1.17.34-1.3.32-1.12-.12.23-.6 2.18-1.26 3.11-1.06 1.16.25 2.19.81 2.38 1.3.23.6-.63 2.22-1.27 2.4-.98.28-1.33.32-1.87.19m17.87-.88c.4-.77.22-1.95-.34-2.06q-.46-.07-.74.65c-.56 1.46.39 2.7 1.08 1.4m62.3-25.2c1.5-1.46 1.92-2.57.96-2.57-.68 0-3.2 2.05-3.5 2.84-.62 1.64.72 1.49 2.54-.27m-.83-2.9c.82-1.2 1.5-2.32 1.5-2.5-.01-.79-.7-.57-1.9.62-1.5 1.45-2.08 2.4-2.08 3.39 0 1.33.9.78 2.48-1.51m-146 1.41c.34-.56-.4-1.12-1.29-1.87-1.97-1.66-2.35-.68-2.24.08q.09.6 1.4 1.32c1.44.78 1.87.88 2.13.47m144.14-2.92c1.47-2.08 1.8-2.96 1.22-3.31-.38-.24-2.84 2.34-3.32 3.5-.4.97-.28 1.93.26 1.93.18 0 1-.95 1.83-2.12m-142.72 1.22c.16-.84-1.73-2.67-3.68-3.52-.52-.23-.55.49-.47 1.02.06.4.7 1.07 1.79 1.89 1.75 1.3 2.2 1.42 2.36.6m1.63-1.54c0-.71-3.34-4.17-4.03-4.17-.96 0-.47 1.11 1.3 2.94q2.73 2.83 2.73 1.23m-1.26-5.76c-.9 0-.51 1.54.73 2.86.65.7 1.3.9 1.41.14-.2-.65-1-2.84-2.14-3"/><path fill="#fff" d="M274.51 388.53c-5.44-.58-14.17-2.92-16.94-4.55-1.86-1.1-2.06-1.48-2.16-4.17a33 33 0 0 1 1.1-9.49c.8-2.98 2.12-6.53 2.9-7.71.57-.88 1.17-1.1 3.92-1.49l1.15-.16-1.73-.53c-2.57-.8-2.88-1.21-3.56-4.73-1.12-5.8-1.58-11.2-1.04-12.21.13-.25.88-.74 1.67-1.1 2.33-1.06 4.64-4.06 6.42-8.33 1.49-3.57 2.14-9.33 1.76-15.56a31 31 0 0 1-.07-3.97c.15-.6 1.38-1.05 2.02-.73.63.32.82.86 1.32 3.79.62 3.67.99 4.82 2.06 6.48 1.13 1.75 2.1 2.49 3.83 2.94 3.61.94 8.18-.15 10.06-2.4 1.19-1.42 2.24-3.94 3-7.18.4-1.7.84-3.23 1-3.4.17-.18.5-.24.88-.14l.6.15-.05 7.3c-.04 6.35.01 7.53.38 9.12.6 2.58 1.4 4.59 2.58 6.5a10 10 0 0 0 4.24 4c1.85.93 2.1 1.34 2.1 3.46 0 2.84-1.32 10.6-2.35 13.78-.4 1.25-.59 1.52-1.42 2-.53.3-1.5.74-2.17.97s-1.21.49-1.21.57.61.2 1.36.28c1.78.19 3.11.74 3.8 1.56 1.2 1.42 2.77 5.51 3.06 7.96.17 1.47-.11 1.6-1.49.67-.76-.52-1.89-.79-1.89-.44 0 .07.68.92 1.5 1.9 2.4 2.8 3.85 6.2 3.48 8.2q-.35 1.74-1.4-.32a7 7 0 0 0-3.29-3.39c-1.13-.55-1.63-.64-3.97-.72-4.35-.16-7.44.96-11.39 4.1a16 16 0 0 1-2.26 1.62c-.28 0-.05-1.12.54-2.63.93-2.37-.38-1.3-1.66 1.35a24 24 0 0 0-1.38 3.81c-.73 2.92-.82 3-2.83 2.96-.91-.02-2.03-.07-2.47-.12m12.82-15.07c.26-.22.32-1.29.32-5.53v-5.26l-.72-.51c-.57-.41-1.24-.56-3.17-.73-3.03-.27-9.86-.06-10.31.3-.26.22-.32 1.32-.32 5.5v5.24l.75.55c.57.43 1.17.6 2.59.72 2.78.24 10.47.04 10.86-.28m-5.6-15a12 12 0 0 0 1.97-1.2 6.4 6.4 0 0 0 1.74-4.06l.02-1.26 1-.24c1.17-.29 2.11-1.05 2.11-1.72 0-.25-.31-.82-.7-1.26l-.69-.8-1.18.32c-1.93.5-3.5.63-4.55.34-.79-.21-.95-.34-.82-.65.44-1.08.4-1.2-.62-1.65a6 6 0 0 0-1.36-.47c-.43 0-5.98 5.03-5.98 5.43 0 .46 1.8 1.95 2.36 1.95.28 0 1.21-.48 2.06-1.05 1.37-.94 1.66-1.05 2.63-.98.87.05 1.18.2 1.56.71l.48.65-.57 1.08c-.53 1-.85 1.29-3.2 2.83-.67.43-.56 1.2.3 2.13.77.83 1.64.8 3.43-.1m4.48-11.9c.28-.2-.03-.68-.08-1.13-.06-.54-.56-.68-1.04-.73-.58-.07-1.36.44-1.36.9 0 .26.85 1.13 1.11 1.13.1 0 .75.44.98.27m3.63-.24c.21-.21-.26-1.02-.3-1.29-.06-.4-.38-.47-1.14-.47-.77 0-.94.08-1 .5-.04.31.13.63.46.86.65.46.99 1.28 1.45.82m-1.72-6.1v-2.2l-6.86.07-6.86.06-.07 1.82c-.03 1-.01 1.96.06 2.13.09.25 1.45.31 6.92.31h6.81zm-.92-7.37v-2.2h-11.7l-.15 1.46c-.08.8-.08 1.8 0 2.2l.15.73h11.7z"/><g fill="#fff"><path d="M289.8 413.98c-1.77-.44-3.52-2.07-4.78-4.43-.3-.56-.58-1-.64-1-.06.01-.11.46-.13 1.04-.03 1.38-.06 1.48-.45 1.48-.93 0-1.45-1.7-1.45-4.7 0-2.03.18-3.1 1.25-7.49 1.04-4.25 1.4-5.96 1.55-7.34.16-1.5.22-2.45.14-2.45-.05 0-.24.48-.43 1.07-.65 2.02-1.54 3.63-2.26 4.1-.25.17-.27.16-.55-.11-.47-.45-.59-1.04-.58-3.03 0-2.35.33-3.73 1.33-5.6a14 14 0 0 1 7.66-6.42c1.5-.49 2.2-.58 4.23-.57 2.13 0 2.9.16 4.3.83 1.85.89 3.19 3.04 3.74 6a27 27 0 0 1 0 6.33c-.33 1.84-.7 2.89-2.31 6.54l-1 2.27.04 1.45c.16 4.66-.57 6.96-2.99 9.39-1.8 1.8-3.47 2.65-5.32 2.71a7 7 0 0 1-1.34-.07m5.02-3.33q1.24-2.06.45-3.69c-.29-.58-1.56-1.93-1.82-1.93-.23 0-.21.18.1 1.4a16 16 0 0 1 .37 2.71c.06.92.13 1.78.15 1.91.08.39.37.23.75-.4m-17.44 66.58c-.66-1.35-.66-1.37-.6-3.57.07-2.76-.1-3.56-2.54-11.32-5.26-16.83-5.48-19.42-2.21-27.03 1.33-3.1 1.31-3.2-.64-3.63a17 17 0 0 1-2.07-.58 4.4 4.4 0 0 1-2.23-2.22c-.3-.8-.3-.87.19-2.51.36-1.24.45-1.8.31-2.14a18 18 0 0 0-2.07-2.49c-2.9-3.1-4.19-5.09-5.08-7.86-1.5-4.62-2.75-12.56-3.24-20.46-.35-5.7-.22-7.1.69-7.22.5-.08 2.65.49 5.08 1.34a140 140 0 0 0 5.57 1.73c4.25 1.23 6.3 2.15 7.78 3.5 2 1.83 2.7 4.32 2.45 8.76-.16 2.82-.54 3.4-1.67 2.51-.43-.33-.54-.36-.7-.14-.36.55.03 3.43 1.54 11.3 1.6 8.3 1.64 9.05.66 12.37-.4 1.34-.71 2.85-.77 3.75-.1 1.34-.04 1.73.49 3.4a256 256 0 0 1 2.67 9.52l.63 2.36-.1 4.14c-.25 11.27.02 17 1.05 22.16.47 2.38.6 4.41.3 4.87-.2.32-1.2.54-3.23.7l-1.6.13zm-3.05-48.9a6 6 0 0 0 .35-1.5c.1-.97.08-1-1.2-2.77a73 73 0 0 1-1.64-2.33c-.18-.29-.37-.5-.4-.46-.13.12.43 2.7 1.03 4.78.85 2.94 1.28 3.47 1.86 2.28m-16.62-88.53c-.66-.72-1.4-3.84-1.92-7.95-.39-3.16-.37-4.1.09-4.86.2-.34.46-.61.57-.61q.71 0 2.06 2.07c.89 1.37 1.54 1.93 1.86 1.6.23-.22.26-4.42.04-6.09-.33-2.5-1.45-4.68-2.04-3.94a12 12 0 0 0-.7 1.4c-.75 1.7-1.18 2.04-2.6 2.03-1.53-.01-2.73-.6-6.8-3.3-5.25-3.48-8.42-6.3-11.2-9.94a17 17 0 0 0-2.56-2.64l-2.96-2.31c-2.49-1.95-4-3.86-7.04-8.92-3.39-5.64-6.7-12.09-7.6-14.82-.53-1.62-.8-1.91-1.74-1.91-1 0-2.5-1.64-3.7-4.03-1.12-2.27-1.29-3.43-.68-4.7.55-1.13 1.38-1.9 1.89-1.74.68.22.96 1.06.96 2.9s.2 2.67.64 2.67c.73 0 .63-4.74-.15-6.97-.86-2.44-.56-3.29.68-1.9 1.4 1.59 2.7 4.7 4.47 10.86a11 11 0 0 0 1.11 2.46c.98 1.5 3.8 4.86 7.61 9.03 5.87 6.43 7.94 9.13 10.06 13.08 1.64 3.07 2.34 3.66 5.9 4.92 4.37 1.56 5.8 2.42 9.47 5.65a17 17 0 0 0 2.66 2.09q.3 0 .47-.8c.16-.75.21-.8.85-.86.92-.08 3.44.88 4.84 1.82a10.5 10.5 0 0 1 4.3 6.57c.45 2.04.28 5.69-.39 8.25a23.5 23.5 0 0 1-3.97 8.5c-1.74 2.3-3.65 3.32-4.48 2.4m-22.63-36.74c.16-.49-3.93-5.54-4.49-5.54-.43 0 2.55 4.82 3.38 5.48.5.4 1 .42 1.1.06m42.35 23.2a7 7 0 0 1-1.8-1.22c-1.21-1.1-2.27-3.2-2.29-4.5 0-1.12.4-1.33 2.58-1.33 2.57 0 2.38-.6-.54-1.7-1.86-.7-2.72-1.26-3.05-1.95-.22-.45-.2-.68.14-1.7a13 13 0 0 0 .5-2.63c.1-1.4.13-1.46.52-1.35.22.06 1.91.84 3.75 1.71l3.33 1.6 2.51-.2c1.38-.1 3.15-.25 3.93-.32l1.42-.12.63.72c.53.6.6.81.52 1.38a3 3 0 0 1-.46 1.15c-.48.66-2.03 1.46-3.51 1.83-1.42.35-1.81.2-1.81-.7 0-1.14-.56-.78-1.4.9-.76 1.52-.7 1.63.7 1.5 4-.4 4.4-.4 4.84.06.36.35.4.55.3 1.19-.28 1.8-2.57 4.64-4.38 5.45-1.21.55-5.18.68-6.43.22"/><path d="M280.22 312.01c-1.94-.33-5.7-2.77-6.65-4.32-.3-.48-.79-1.88-1.16-3.31-.35-1.37-.7-2.58-.76-2.68s-.63-.55-1.24-.98c-1.65-1.16-1.97-1.92-1.97-4.74-.01-2.47.12-2.82.93-2.45.67.3.78.73.37 1.42-.59 1-.35 2.75.52 3.84.3.36.7.06.9-.67.1-.38.33-2 .49-3.61.28-2.78.64-4.28 1.5-6.3.27-.65.35-.71.9-.63.33.04 1.35.3 2.28.58 2 .6 4.3.67 7.67.22a37 37 0 0 1 3.54-.31c1.24-.02 1.44.03 1.85.45.44.43.49.68.69 3.37.44 5.9.15 9.4-1.1 13.36-.58 1.83-1.19 2.67-3.13 4.32-2.47 2.1-3.94 2.74-5.63 2.44m4.97-4.23c.26-.1.26-.17.03-.6-.4-.77-2-2.25-2.78-2.57-1.58-.66-3.07-.18-4.65 1.5-1.06 1.1-1.13 1.3-.64 1.58.36.2 7.53.29 8.04.1m-2.5-5.48.57-.54-.13-2.36c-.13-2.46.08-3.96.54-3.96.14 0 .43.25.66.56.5.67 1.58 1 2.65.84.9-.15 1.61-.73 1.44-1.18-.36-.93-.32-1.27.17-1.5 1.09-.5.22-.98-1.75-.98a7.4 7.4 0 0 0-4.08 1.13c-1.38.96-1.37.93-1.45 4.02-.06 2.68-.08 2.82-.5 3.16a2 2 0 0 1-1.09.36c-.84 0-.86.49-.02.86.96.44 2.3.25 2.99-.4m-4.94-5.54c.46-.25 1.19-1.76 1.11-2.31-.09-.61-1.83-1.47-2.97-1.47-1.36.01-3.07.96-2.59 1.45.06.06.53.03 1.03-.07.98-.2 1.82-.02 1.7.35-.05.13-.44.35-.88.5-.7.23-.8.32-.74.76.1.99 2.1 1.46 3.34.79"/><path d="M278.7 306.57c0-1.12 3.6-1.29 4.78-.22.33.3.33.31 0 .44-.19.08-1.34.15-2.56.15-2.1.01-2.21 0-2.21-.37m13.75-10.5c-.22-.58-.08-1.44.3-1.76.7-.58 1.16.99.55 1.85-.38.56-.61.53-.85-.08m7.46 41.68c-.93-.49-2.51-2.15-3.4-3.55-2.2-3.54-3.03-7.56-2.55-12.36.27-2.69.47-3.5 1.24-5.21a7.6 7.6 0 0 1 5.02-4.43c1.97-.6 2.52-.48 3.38.8l.46.69 2.27-2.09c4.1-3.78 6.26-5.12 11.12-6.9 6.7-2.46 6.78-2.51 7.45-4.31a14 14 0 0 1 1.23-2.3c1.32-1.98 2.44-3.19 11.51-12.45a86 86 0 0 0 4.78-5.16c.52-.76.67-1.22.88-2.77a21 21 0 0 1 .56-2.76c.75-2.3 3.49-7.24 4.76-8.6.37-.39.54-.46.73-.3.43.36.28 1.05-.62 2.85l-.88 1.74.22 3.44c.12 1.89.29 3.61.37 3.84.13.35.17.36.39.1.13-.16.48-.9.77-1.65l.53-1.35-.53-1.25a14 14 0 0 1-.65-1.84c-.15-.72.15-1.38.64-1.38s1.55 1.24 2.2 2.56c.48.98.54 1.32.55 2.82 0 1.6-.05 1.8-.7 3.12-.75 1.52-2.48 3.59-3.4 4.07-.42.2-.84.26-1.55.17-1.2-.15-1.07-.29-3.22 3.38-5.34 9.13-8.62 13.76-12.43 17.54a21 21 0 0 1-5.07 3.89c-.8.46-1.34.98-1.98 1.86-1.18 1.66-4.79 5.26-7.18 7.15a177 177 0 0 1-9.05 6.52c-2.3 1.44-3.34.2-3.88-4.62-.15-1.35-.34-1.67-.77-1.31-1.02.84-3.2 4.97-3.75 7.1-.38 1.46-.37 2.11.01 2.54.36.4.7.26 1.73-.62q1.23-1.09 1.94.07c.45.72.41 1.75-.22 5.93-.77 5.06-1.25 5.9-2.9 5.03m28.41-36.42c1.03-1.42 2.23-3.48 2.22-3.8s-1.76 1.45-2.66 2.69c-.52.72-.76 2.01-.37 2.01.1 0 .46-.4.81-.9m22.64-33.15c-.45-.8.4-2.39 2.14-4.04q1.61-1.5 1.3-.22c-.16.65-1.97 3.36-2.7 4.05-.5.49-.58.5-.74.21m1.68 1.91c-.23-.23-.19-1.02.1-1.68a10 10 0 0 1 3-3.24c.3-.15.54-.11.62.1.08.23-.1.6-.8 1.7-1.06 1.64-2.12 2.95-2.56 3.13-.25.11-.24.11-.36 0m.6 2.05c-.26-.26-.11-.89.34-1.47.54-.68 2.2-2 2.85-2.26.31-.12.6-.06.72.14.08.14.08.2 0 .43-.3.91-2.2 2.78-3.23 3.17-.4.15-.53.15-.69-.01m1.08 1.8a1 1 0 0 1-.16-.29c-.1-.31.64-1.23 1.55-1.91.78-.6 1.7-.93 1.7-.62 0 .33-1.07 1.5-2.16 2.37l-.65.54q-.08.16-.28-.1M212 263.62a4.5 4.5 0 0 1-1.66-2.56c-.03-.3-.02-.35.13-.5.14-.14.2-.16.37-.13.49.1 1.03.68 1.5 1.62.3.6.56 1.32.52 1.45q-.2.54-.86.12m-.77 2.9a14 14 0 0 1-3.46-3.59q-.46-.83.12-.92c.15-.03.26.01.55.2 1.16.8 3.32 3.11 3.53 3.81.16.53-.21.79-.74.5m-1.66 1.5a14 14 0 0 1-2.7-2c-.5-.51-.6-.72-.6-1.2 0-.32.03-.46.12-.57l.12-.15.28.13c1.7.75 3.6 2.5 3.6 3.33 0 .31-.22.62-.44.62zm-1.72 1.34c-1.08-.48-1.97-1.06-2.21-1.45-.17-.29-.17-.86 0-1.08q.47-.55 2 .66c1.25 1.01 1.59 1.5 1.3 1.88-.18.25-.5.25-1.09 0m70.7 216c-.4-.06-.68-.2-.68-.34 0-.05.12-.23.26-.4.13-.18.25-.38.25-.45s-.13-.24-.32-.4c-.17-.14-.31-.3-.31-.35 0-.19.49-.58.87-.7a8 8 0 0 1 2.81.04q1.3.36 1.15.9c-.06.17-.18.2-1.03.24-.42.01-.77.05-.77.08s.13.1.3.16c.67.24 1.17.5 1.34.7.23.26.24.3.02.44-.15.1-.36.12-1.85.13-.92 0-1.84-.02-2.05-.05m.59-3.28c-1.4-.07-1.62-.18-1.35-.68.25-.46.96-.6 3.03-.61 1.2 0 1.53.01 1.87.1.43.12.75.38.75.62 0 .19-.16.48-.3.53-.17.07-2.85.1-4 .04m-.92 18.07c-.81-.4-1.72-1.98-2.17-3.76-.3-1.17-.37-2.33-.16-2.54.11-.12.7.73 1.38 1.98l1.11 2.07c.77 1.42.86 1.69.68 2.05-.19.35-.42.4-.85.2m12.31-80.96c-.69-.27-1.11-1.17-.78-1.62s1.41-.71 2.12-.51c.5.13.63.64.33 1.24-.36.72-1.1 1.12-1.67.9m-12.69-49.23c-.33-.06-.44-.25-.54-.93-.12-.83.03-3.4.21-3.6.4-.38 4.99-.37 5.75.02.28.14.33.45.33 2.21 0 1.83-.04 2.07-.37 2.24-.34.19-4.5.23-5.38.06"/></g></svg>