<svg viewBox="0 0 313.71 398.25" xmlns="http://www.w3.org/2000/svg"><g transform="translate(45.2 16.86)"><path fill="#0068b6" d="M-45.19-16.86h313.71v398.25H-45.19z"/><g transform="translate(-21.2 2.33)scale(1.0028)" stroke="#000" stroke-width="3"><path fill="#0068b6" d="m30 80 110-40 40 80-130 40Z"/><path fill="#e50012" d="M110.25 3.15a21.4 21.4 0 0 0-21.42 21.42l.06 1.18a25.4 25.4 0 0 0-17.32-6.82 25.4 25.4 0 0 0-25.4 25.4 25 25 0 0 0 2.15 10.2 13.8 20.93 74.69 0 0-13.16 3.59 13.8 20.93 74.69 0 0-9.76 17.5 19 19 0 0 0-1.49-.07 19.1 19.1 0 0 0-19.1 19.1 19.1 19.1 0 0 0 8.67 15.98 27.4 27.4 0 0 0-9.5 20.71 27.4 27.4 0 0 0 27.4 27.4 27.4 27.4 0 0 0 12.95-3.27 31.22 27.32 74.02 0 0 2.36 14.75 31.22 27.32 74.02 0 0 36.53 18.4 31.22 27.32 74.02 0 0 16.13-23.5 21.28 23.22 73.54 0 0 24.25 4.86 21.28 23.22 73.54 0 0 13.53-11.6 33.72 16.22 72.02 0 0 18.81 16.88 33.72 16.22 72.02 0 0 9.06-32.31 33.72 16.22 72.02 0 0-.9-3.34 28 28 0 0 0 10.41 2.03 27.9 27.9 0 0 0 27.9-27.9 27.9 27.9 0 0 0-23.1-27.48 21.9 21.9 0 0 0 10.48-18.68 21.9 21.9 0 0 0-21.92-21.92 22 22 0 0 0-10 2.44l.04-.94a19.1 19.1 0 0 0-19.1-19.1 19 19 0 0 0-7.78 1.68 21 21 0 0 0 .64-5.17 21.4 21.4 0 0 0-21.42-21.41zm-19.66 58a19.26 21.42 0 0 0 17.84 13.4 19.26 21.42 0 0 0 17.73-13.1 19 19 0 0 0 12.65 4.8 19 19 0 0 0 7.34-1.48 22 22 0 0 0-.2 2.81 21.9 21.9 0 0 0 16.22 21.15 27.9 27.9 0 0 0-15.5 23.71 33.72 16.22 72.02 0 0-6.38-2.1 33.72 16.22 72.02 0 0-10.7 21.46 21.28 23.22 73.54 0 0-20.39-1.9 21.28 23.22 73.54 0 0-14.58 13.95 31.22 27.32 74.02 0 0-34.04-13.33 31.22 27.32 74.02 0 0-1.8.85v-.03a27.4 27.4 0 0 0-19.02-26.08 19 19 0 0 0 3.25-10.61 19 19 0 0 0-3.76-11.37 13.8 20.93 74.69 0 0 15.92-3.58 13.8 20.93 74.69 0 0 10.02-10.8 25 25 0 0 0 6.38.84 25.4 25.4 0 0 0 19.02-8.59z"/><g transform="rotate(138 73.22 171.3)"><circle fill="#fff" cx="73.22" cy="171.3" r="14.39"/><circle fill="#0068b6" cx="73.22" cy="163.58" r="5.86"/></g><g transform="rotate(-109 19.45 125.68)"><circle fill="#fff" cx="19.45" cy="125.68" r="9.62"/><circle fill="#0068b6" cx="19.45" cy="121.55" r="4.14"/></g><g transform="rotate(70.4 69.77 51.37)"><circle fill="#fff" cx="69.77" cy="51.37" r="12.18"/><circle fill="#0068b6" cx="69.77" cy="46.1" r="5.17"/></g><g transform="rotate(17 109.5 18.87)"><circle fill="#fff" cx="109.49" cy="18.87" r="11.36"/><circle fill="#0068b6" cx="109.49" cy="13.26" r="5.17"/></g><g transform="rotate(113 182.41 107.16)"><circle fill="#fff" cx="182.41" cy="107.16" r="12.76"/><circle fill="#0068b6" cx="182.41" cy="101.23" r="5.52"/></g><path fill="#fff" d="M75.6 85.2c20.6 8.4 31.15 4.7 45.49-1.2-.45 11.83-5.7 34.48-16.22 35.08C85.3 120.21 75.6 85.2 75.6 85.2Z"/></g><g transform="translate(79.85 60.3)scale(1.2664)"><path d="M51.33 175.9a12 12 0 0 1-5.24-1.64c-1.74-.99-2.95-2.56-2.99-3.88a8 8 0 0 0-.2-1.61c-.32-1.1.59-3.82 1.93-5.82.94-1.41 1.84-2.3 3.88-3.83 1.45-1.1 2.8-2 3-2 .72 0 2.73-1.83 3.15-2.88.43-1.07.36-1.88-.16-1.88a8 8 0 0 1-1.75-1.38 27 27 0 0 1-7.49-13.56c-1.19-5.58-1.4-9.85-.8-16.48.35-3.84.35-4.35 0-4.76a9 9 0 0 1-.95-1.54c-.3-.59-.7-1.21-.91-1.38-.5-.42-3.39-6.21-4.97-9.98-1.92-4.58-3.58-9.24-3.96-11.1-.21-1.03-.65-2.94-1.47-6.4-.2-.9-.38-2.59-.38-3.75 0-1.88-.08-2.21-.67-2.91-1.31-1.57-1.81-3.15-1.81-5.73 0-3.6.43-4.92 2.18-6.68 1.55-1.54 3.1-2.37 4.81-2.56.9-.1 1.94-.3 2.32-.45.85-.33 3.71.1 5 .75.7.34 1.06.37 1.86.14a37 37 0 0 1 2.91-.63c1.88-.34 1.92-.36 1.92-1.15 0-2.13 1.9-6.26 3.29-7.16a13 13 0 0 1 5.31-1.71c1.21 0 1.4-.08 1.68-.69a8.6 8.6 0 0 1 3.05-3.4c1.84-1.23 2.56-1.46 4.9-1.62 1.75-.11 2.18-.05 3.32.5 1.32.64 1.32.64 2.65-.39 2.65-2.05 4.91-2.62 8.33-2.1 2.3.36 3.43.92 5.17 2.55 1.32 1.24 1.32 1.24 2.38.9 1.41-.46 4.73-.37 6.06.16 1 .4 2.24 1.28 3.48 2.48.3.3.88 1.19 1.3 2 .53 1.06.89 1.47 1.3 1.48a11.5 11.5 0 0 1 5.95 2.45c1.3 1.21 2.8 5.46 2.62 7.43-.07.75-.02.78 1.78 1.22 3.42.82 4.88 1.85 6.17 4.36.9 1.74.95 2 .93 4.19-.04 2.96-.43 4.37-1.63 5.76-1.22 1.43-3.79 3.32-4.8 3.54-.8.18-.8.18-.81 4.2-.02 4.53-.38 7.7-1.26 11.07-.3 1.13-.27 1.17 2.15 2.8 5.4 3.66 7.96 7.1 9.2 12.36.74 3.09.49 5.45-.85 8.12-1.57 3.13-3.89 4.8-7.51 5.42-1.06.17-1.34.33-1.4.78-.06.4.09.6.53.72a5 5 0 0 1 1.63 1.49c.56.74 1.12 1.4 1.24 1.48.13.07.73-.2 1.33-.6 1.82-1.22 2.11-1.35 2.66-1.2.46.12 1.71 1.55 2.5 2.88.28.47.34.46 1.59-.08 2.53-1.1 2.76-1.16 3.26-.9.27.15.56.45.65.69.21.56-.35 4.03-.8 4.93-.58 1.15-.46 1.77.37 1.95 1.34.3 3.37.98 3.7 1.24.98.78-.22 3.4-2.12 4.62-2.31 1.48-7.92 3.86-9.85 4.19-.58.1-1.55.34-2.15.53-2.24.73-9.13 1.58-12.44 1.53-3.2-.05-3.2-.05-2.9.78a7.5 7.5 0 0 0 3.27 3.28c1 .42 4.17 2.7 5.49 3.96.44.42 1.3 1.54 1.92 2.5a8.6 8.6 0 0 1 1.44 6.34c-.34 2.78-1.74 4.14-5.74 5.6-1.8.64-7.45.86-9.13.34-.66-.2-1.9-.56-2.78-.8s-2.06-.66-2.64-.92c-3.5-1.58-4.33-2-5.16-2.63a9 9 0 0 0-1.64-1c-.95-.41-2.8-2.97-3.27-4.52-.21-.69-.38-2.34-.38-3.71 0-2.15-.09-2.61-.66-3.6-.92-1.56-1.64-1.87-4.35-1.87-2.52 0-3.47.33-4.36 1.54-.45.6-.58 1.3-.73 3.83-.1 1.7-.27 3.45-.37 3.89-.26 1.08-2.4 3.96-3.26 4.39-.38.19-1.05.6-1.49.92-1.11.8-3.84 2.23-4.25 2.23-.2 0-.74.23-1.22.5-.48.28-1.53.7-2.33.91l-2.65.75c-1.33.37-4.28.46-6.88.2m1.18-4.1c.22-1.7-.07-2.24-1.2-2.24-1.51 0-2.56 2.9-1.24 3.43a5 5 0 0 0 1.43.26c.81.02.83-.02 1.01-1.45m4.7 1.19c1.1-.3 1.17-.47.63-1.53-.3-.57-.6-.74-1.35-.8-1.28-.08-1.72.32-1.72 1.58 0 .94.06 1.03.73 1.02.4 0 1.17-.12 1.72-.27m45.45-.54c0-1.4-.42-1.86-1.62-1.79-1.11.07-1.82.69-1.82 1.6 0 .5 1.14.94 2.58.98.79.02.86-.04.86-.79m4.61.56c.87-.33.9-1.36.09-2.57-.41-.6-.8-.88-1.27-.88-1.22 0-1.56.84-1.15 2.88.14.69.29.83.91.83.41 0 1.05-.12 1.42-.26m-59.9-1.74c0-.37.17-1.1.39-1.62.48-1.15.48-1.02-.02-1.52-.71-.72-1.42-.51-1.86.53-.44 1.06-.3 1.81.5 2.69.7.77.98.75.98-.08m15.43-.1c2.79-1.05 4.7-2.24 6.37-4 1.55-1.61 1.7-2.18 1.78-6.34.05-2.3.48-3.37 1.99-4.81 1.63-1.57 3.46-2.15 6.3-2 1.9.1 2.67.26 3.76.82 2.62 1.33 3.52 2.75 3.67 5.82.23 4.44.33 4.85 1.53 6.23 1.4 1.63 4.19 3.4 6.75 4.3 1.1.4 2.02.7 2.02.67s.27-.6.6-1.3c.8-1.73 1.58-2.17 3.98-2.24 1.35-.04 2.1-.18 2.43-.47.27-.25 1.06-.45 1.98-.5 1.13-.06 1.64-.22 1.96-.6a3.8 3.8 0 0 1 2.56-1.16c.35 0 .65-.05.65-.12s-.36-.7-.8-1.39c-.79-1.24-1.67-2.01-3.9-3.4-.62-.38-1.12-.8-1.12-.91 0-.13-.26-.3-.58-.4-1.38-.45-3.4-2.03-3.98-3.11-1.92-3.63-2.01-4.62-.56-5.7 2.49-1.85 3.13-2.45 4.14-3.85.6-.85 1.42-1.93 1.8-2.38a7.4 7.4 0 0 0 1.69-3.32c.04-.38.31-1.28.6-2 .8-1.94 1.3-4.14 1.7-7.38.33-2.56.32-2.9-.04-3.04-.44-.17-1.68-.19-5.44-.06-2.72.1-3.73-.22-5.58-1.77-2.02-1.69-3.17-5.6-2.74-9.36.34-3.04.93-4.55 2.31-5.91 2.29-2.26 4.66-2.9 7.99-2.14 2.17.5 3.09.9 3.82 1.71q.5.56 1.43.56c1.02 0 1.9.62 1.9 1.32 0 1.1-2.63 2.14-3.99 1.58-.41-.17-.82-.52-.9-.77s-.8-.8-1.6-1.2a5.5 5.5 0 0 0-3.03-.72c-1.83.03-2.84.48-3.75 1.7-1.19 1.58-1.42 2.52-1.34 5.43.1 3.17.57 4.55 2 5.82 1.24 1.08 2.36 1.27 5.17.87 1.98-.29 2.48-.27 3.72.1 3.1.91 6.24.34 8.12-1.47 1.72-1.67 2.3-3.11 2.44-6 .1-2.27.04-2.62-.74-4.63-1.35-3.45-4.1-6.47-8.18-8.97-2.7-1.66-2.81-1.8-2.8-3.69 0-.92.14-2.03.32-2.47.49-1.22.92-5.87 1.02-10.98.1-5 .18-5.29 1.62-5.29 1.75 0 4.6-2.25 5.27-4.16.2-.55.35-1.76.35-2.7q0-3.1-2-4.64c-1.05-.8-3.31-1.46-5.02-1.46-1.85 0-2.25-.58-2.13-3.08.1-2.14-.52-4.74-1.37-5.72-.78-.9-2.66-1.73-4.34-1.92a7 7 0 0 1-2.21-.53 5.4 5.4 0 0 1-1.2-1.98 5 5 0 0 0-1.43-2.2 13 13 0 0 1-1.25-1.03c-1.1-1.1-3.9-1.11-6.23-.03-1.3.61-2.56.28-3.07-.8-.6-1.28-2.3-2.5-4.12-2.97-2.85-.73-6.19.35-7.4 2.41-.76 1.29-1.65 1.37-3.56.35a5.2 5.2 0 0 0-3.34-.8c-1.26.03-1.92.19-2.45.58-.4.29-1 .63-1.34.76-.4.15-.99.93-1.6 2.09-.53 1.01-1.15 1.92-1.38 2-.23.1-1.22.17-2.19.17a6.3 6.3 0 0 0-3.22.73c-1.32.66-1.53.89-2.34 2.57a7.3 7.3 0 0 0-.93 3.75c-.05 2.62-.42 3-2.92 3-2.52.01-2.73.18-1.84 1.48 1.3 1.92 1.46 2.55 1.2 5.1a12 12 0 0 1-.93 3.86c-.87 1.9-.87 2.16-.03 2.37q1.38.34.9 2.84c-.56 2.99-.05 6.3 1.6 10.28.9 2.17 1.14 3.09.96 3.8-.24.94-1.34 1.22-2.05.51-.61-.6-2.88-6.02-2.88-6.87 0-.32-.11-.9-.26-1.27-.36-.94-1.21-5.31-1.61-8.22-.33-2.37-.32-2.4.34-3.57.94-1.65 1.4-4.32 1-5.84-.36-1.36-1.99-3.05-3.81-3.93-2.4-1.16-6.72-.65-8.89 1.06-1.45 1.14-2.05 3.42-1.73 6.47a4.8 4.8 0 0 0 1.14 2.94c.84 1.11.97 1.49 1.17 3.52a57 57 0 0 0 1.1 6.9c.6 3 2.26 8.51 2.8 9.26.25.37.55 1.12.66 1.68.5 2.67 6.22 14.17 7.86 15.81.53.54.55.72.36 3.38-.54 7.56-.35 12.36.71 17.5.17.8.33 1.75.36 2.11.09 1.1 1.07 3.76 1.91 5.19.44.74.88 1.6.98 1.9.23.75 4 4.57 5.2 5.3 1.97 1.19 2.02 3.1.16 6.25-.6 1.03-.92 1.28-3.36 2.66-2.47 1.4-5.3 3.7-6.09 4.97-.43.7-.8 1.32-.8 1.39s.31.12.68.12c.83 0 1.94.55 2.61 1.3.3.33.7.5.97.42.62-.2 2.68.3 3.02.72q.27.34 2.27.35c2.45 0 3.13.38 4 2.22l.61 1.33zM75 101.3c-4.96-.97-7.64-2.88-9.68-6.88a7 7 0 0 1-.9-3.67c-.07-2.49.36-4.13 1.93-7.24.05-.11-.52-.2-1.27-.2-1.9 0-3.92-.66-5.1-1.67-2.12-1.82-2.68-6.14-1.14-8.77a7.24 7.24 0 0 1 10.83-1.77c.27.24.8.96 1.18 1.6.58 1 .68 1.5.7 3.39 0 1.84.08 2.2.4 2.08l2.39-.84c1.57-.57 2.51-.73 4.5-.77 3.16-.06 5.24.36 7.63 1.57 1.03.52 1.95.94 2.03.94s.07-.57-.03-1.28a7 7 0 0 1 .25-2.73c1-3.44 3.43-5.14 7-4.92 1.69.11 2.09.24 3.39 1.14a8 8 0 0 1 2.25 2.35c.75 1.28.78 1.46.68 3.72-.08 1.74-.27 2.69-.68 3.5a6.4 6.4 0 0 1-4 2.93c-1.16.28-3.74.23-4.25-.08-.37-.23-.3.32.14 1.19 1 1.92 1.31 3.34 1.31 5.96 0 2.27-.08 2.81-.62 3.83-1.66 3.15-3.53 4.88-6.6 6.1-1.76.72-2.3.8-5.82.91-3.13.1-4.38.03-6.52-.4m10.14-2.54c2.8-.65 4.57-1.83 5.89-3.92 1.1-1.76 1.26-2.48 1.03-4.99a8.3 8.3 0 0 0-1.28-4.22 15 15 0 0 0-3.39-4.22 17 17 0 0 0-2.44-1.41 9.4 9.4 0 0 0-4.31-1.18c-1.3-.1-2.68-.15-3.07-.09a11 11 0 0 0-3.35 1.06c-.3.19-.7.35-.93.35-.8.02-3.31 2.28-4.57 4.1-2.87 4.15-2.83 8.43.12 11.5 1.2 1.24 1.88 1.66 3.91 2.38a23.3 23.3 0 0 0 12.39.64m-8.29-3.54a9 9 0 0 1-4.02-2.06c-1.11-.9-2.46-3.23-2.46-4.24 0-.28-.24-.72-.53-.98-.29-.27-.53-.7-.53-.97 0-.68 1.1-1.16 1.8-.78.3.16 1.33.23 2.39.17a8.5 8.5 0 0 0 3.88-1.11c2.03-1 2.03-1 2.87-.5 2.9 1.72 3.37 1.86 6.13 1.87 2.57 0 2.65.02 2.73.62.05.35-.14.86-.43 1.19-.29.31-.6.94-.7 1.4-.82 3.89-6.55 6.66-11.13 5.4m5.33-2.52a10 10 0 0 0 3.04-2.36c.1-.15.24-.54.34-.84.15-.51.04-.58-1.33-.74-.82-.1-2.28-.54-3.24-.98-1.73-.8-1.73-.8-3.2-.22-.8.31-2.27.7-3.25.86-2.06.32-2.21.6-1.06 2.1a7 7 0 0 0 3.15 2.3c1.26.39 4.52.31 5.55-.12M81.12 83c-.35-.5-.36-.66-.05-1.12.68-1.04 2.01-.71 2.01.5S81.82 84 81.12 83m-4.39-.08c-.18-.22-.25-.67-.16-1.04a1.11 1.11 0 0 1 2.18.02c.2.78-.3 1.42-1.1 1.42-.32 0-.74-.18-.92-.4m21.07-1.89c1.22-.57 1.95-2.03 1.95-3.88a4.4 4.4 0 0 0-1.86-3.9c-2.19-1.73-5.49-1.13-6.72 1.21-.74 1.43-.73 4.07.02 5.1 1.03 1.38 2.13 1.9 4 1.9 1.03 0 2.06-.17 2.61-.43m-4.05-1q-1.75-.78-1.72-2.93c.05-2.12 1.06-3.3 2.85-3.3 1.74-.01 2.72.46 3.16 1.5.86 2.07.37 3.84-1.26 4.58-1.33.6-1.9.63-3.03.14m-26.86.4c1.72-.88 2.18-1.59 2.33-3.62.26-3.32-1.32-5.13-4.44-5.13-1.12 0-1.74.15-2.41.6-3.46 2.26-2.85 7.8.93 8.4 1.92.32 2.57.27 3.59-.25m-3.78-1.25c-1.07-.6-1.4-1.09-1.6-2.37-.23-1.48.58-3.1 1.76-3.52 2.27-.79 4.23.15 4.61 2.2.25 1.32-.26 2.96-1.09 3.5-.96.63-2.74.72-3.68.19m47.93 92.18c.78-.87.93-1.5.6-2.48-.32-.98-1.02-1.33-1.83-.9-.62.34-.67.93-.14 1.86.21.36.38.99.39 1.39.01.88.27.91.98.13m-.57-21.39a88 88 0 0 0 3.57-.62c.94-.2 2.06-.37 2.48-.38.43-.02.9-.15 1.08-.29.16-.14.83-.33 1.48-.42 1.89-.27 7.73-2.69 9.1-3.77.91-.71.76-.92-.72-.99a31 31 0 0 1-6.54-.93l-3.31-.91c-.87-.24-2.12-.59-2.78-.79s-1.62-.44-2.14-.54c-.93-.17-.96-.14-1.52 1.1a37 37 0 0 1-5.03 8c-.88 1.1-.88 1.1.8.96.92-.08 2.5-.27 3.53-.42m13.87-10c.41-.77 1.13-2.98 1-3.1-.06-.06-.62.07-1.24.29-1.65.58-1.4.7-3.39-1.54a4 4 0 0 0-1.1-.97c-.12 0-.85.41-1.6.92s-1.54.93-1.74.93-.69-.42-1.1-.93c-1.16-1.46-1.52-1.29-1.81.88-.17 1.29-.15 1.37.4 1.37.3 0 .89.16 1.28.36.4.2 1.55.52 2.57.71 1.02.2 2 .46 2.17.6.44.32 2.68.92 3.57.95.45.02.82-.16.99-.47"/><path style="-inkscape-stroke:none" d="M517.6 319.27c-5.08-.86-10.57-4.29-14.4-9-3.35-4.13-2.46-5.99 3.3-6.92a91 91 0 0 0 11.05-2.87l6.33-2.1 9.62 3.3c5.3 1.82 10.67 3.3 11.95 3.3 5.02 0 .87 6.98-6.76 11.35-5.04 2.89-13.98 4.13-21.09 2.94" transform="translate(-59.5 8.31)scale(.2645)" fill="#e8350b"/><path d="M75.42 98.65c-3.29-.72-4.88-1.5-6.44-3.15-1.74-1.84-2.53-4.03-2.23-6.19.51-3.72 4.12-8.22 7.66-9.55 4.95-1.87 10.87-.57 14.15 3.1 3 3.37 4.19 7.7 2.9 10.62a9.4 9.4 0 0 1-3.88 4.2c-2.55 1.32-8.44 1.8-12.16.97m8.15-4.03c2.09-.94 3.87-2.7 4.4-4.37.21-.62.55-1.38.77-1.7.53-.76.5-1.78-.07-2-.25-.09-1.47-.17-2.72-.17-2.03 0-2.46-.1-4.23-1.03-2.2-1.15-2.5-1.15-5.24.01-1.58.67-2.16.76-4.19.69-3.26-.12-3.61.2-2.51 2.3a21 21 0 0 1 .93 2.07c.72 1.98 3.04 3.99 5.53 4.8 1.93.63 5.19.36 7.33-.6m-.56-12.37c-.06-.7-.24-.94-.75-1.01-1.4-.2-2.02 1.28-.88 2.08.94.66 1.75.12 1.63-1.07m-4.57.83c.19-.23.3-.78.25-1.23-.17-1.48-2.26-1.14-2.26.37 0 1.07 1.35 1.65 2 .86m-16.06-2.9c-1.46-.63-2.15-1.99-2.03-3.97.19-2.87 2.33-4.75 4.98-4.36 2.67.4 3.6 1.56 3.6 4.52 0 2.05-.51 3.03-2.02 3.81-1.04.54-3.3.54-4.53 0m4.34-1.07c.64-.34 1.35-1.93 1.35-3.04 0-1.1-1-2.63-1.95-3a5 5 0 0 0-1.95-.15c-3.34.44-3.83 5.57-.63 6.5.97.3 2.29.16 3.18-.31m26.32 1.8c-2.18-.9-2.97-4.5-1.48-6.78 1.65-2.53 6.14-2.05 7.5.8.97 2.06.33 5-1.29 5.84-.87.45-3.78.54-4.73.14m4.08-1.14c1.78-1.09 1.9-4.16.2-5.5-1.07-.84-3.27-.81-4.28.06-.84.72-1.35 2.48-1.1 3.74.4 1.98 3.2 2.9 5.18 1.7M46.31 171c-.8-.9-.44-3.23.51-3.23.83 0 1.05.72.68 2.27-.2.81-.44 1.48-.53 1.48s-.4-.23-.66-.52m3.63 1.62c-.46-.46-.44-.95.09-1.98.33-.64.64-.85 1.28-.85 1 0 1.29.64 1 2.16-.17.91-.28 1.02-1.1 1.02-.51 0-1.08-.16-1.27-.35m4.98.04c-.1-.16-.11-.61-.02-.99.31-1.24 2.16-1.29 2.8-.08.27.5.24.68-.2 1-.62.45-2.32.5-2.58.07m44.96.01c-.36-.14-.65-.34-.65-.43 0-.54.66-1.25 1.3-1.41 1.09-.27 1.88.27 1.88 1.28 0 .78-.09.86-.94.84a6 6 0 0 1-1.59-.28m5.24-.1c-.08-.23-.11-.9-.06-1.52.07-.9.21-1.13.75-1.2.83-.12 1.37.3 1.75 1.4.23.66.2.94-.14 1.28-.55.55-2.1.57-2.3.04m4.68-2.54c-.5-1.42-.5-1.52-.02-1.87 1.18-.86 2.35 1.05 1.5 2.46-.69 1.13-.9 1.04-1.48-.59m11.94-30.1c-3.32-1-4.6-1.36-6.2-1.8-.95-.26-1.84-.57-1.98-.68s-.16-.75-.05-1.4c.22-1.28.8-1.55 1.3-.6.65 1.2 1.34 1.25 3.18.24l1.7-.94 1.22 1.4c1.22 1.37 1.23 1.38 2.62 1.2 1.54-.21 1.63-.08 1.07 1.52-.26.75-1.06 1.55-1.47 1.46-.05 0-.67-.19-1.39-.4" fill="#fff"/><path style="-inkscape-stroke:none" d="M165.6 208.24c.12-.18.89-1.28 1.72-2.43a43 43 0 0 0 2.77-4.58c.74-1.44 1.44-2.47 1.7-2.47.23 0 2.46.58 4.95 1.28a50 50 0 0 0 10.05 1.97c.56.04 1.02.2 1.02.36 0 .46-5.3 2.93-8.1 3.78-2.74.82-11.36 2.4-13.21 2.41q-1.12.02-.9-.32" transform="translate(-59.5 -58.36)" fill="#00a084"/><path style="-inkscape-stroke:none" d="M119.66 228.75c-.72-1.58-1.35-1.93-3.88-2.17-1.18-.1-2.47-.37-2.88-.58a5 5 0 0 0-1.73-.39c-.6 0-1.43-.3-2.09-.76a7 7 0 0 0-1.98-.94l-.9-.18.9-1.23c1.04-1.44 3.3-3.25 6.54-5.24 1.89-1.17 2.45-1.69 3.1-2.88.43-.8.87-2.1.96-2.9l.17-1.44-3.24-3.1c-4.44-4.25-5.66-6.65-6.99-13.8-.57-3.06-.65-4.45-.66-11.56-.01-7.78-.04-8.11-.63-8.95-1.82-2.56-5.78-10.6-7.37-14.95-2.7-7.4-3.85-11.88-4.57-17.65a13 13 0 0 0-.8-3.4c-1.45-2.5-1.51-2.69-1.51-4.93 0-2.61.42-3.83 1.7-4.9 1.8-1.52 6.08-2.16 8.27-1.24 1.45.6 2.92 1.8 3.63 2.95.52.84.6 1.31.48 2.94a12 12 0 0 1-.76 3.33c-.74 1.67-.77 3.17-.16 6.66 1.08 6.2 3 12.29 4.34 13.76.72.8 1.78.7 2.2-.2.29-.65.15-1.29-1.08-4.84l-1.42-4.09-.01-3.98c-.01-4.03-.07-4.24-1.15-4.62-.15-.05.08-1.16.5-2.45 1.11-3.36 1.09-5.97-.07-8.02-.47-.83-.77-1.59-.67-1.68.1-.1 1-.18 2-.18 2.41 0 2.83-.41 3.08-3.03.11-1.26.49-2.62 1.03-3.78 1.06-2.26 2.32-3.02 5.37-3.23 2.31-.16 2.67-.39 3.86-2.5 1.64-2.9 5.08-3.86 8.37-2.33 2.15 1 2.7.94 3.8-.44 1.74-2.2 4.5-3 7.38-2.16 1.36.4 1.96.79 3.3 2.2 1.81 1.9 2.33 2.04 4.4 1.2.67-.27 1.96-.5 2.86-.5 1.5 0 1.76.1 3.03 1.18a10 10 0 0 1 2.12 2.63c1.06 2.13 1.3 2.3 3.42 2.67 4.14.7 5.5 2.35 5.75 7.02.09 1.69.29 2.83.55 3.12.24.28 1.07.54 2.06.64 2.4.24 3.7.7 4.81 1.67 1.2 1.05 1.69 2.42 1.66 4.64-.05 3.4-2.04 5.57-5.9 6.42-.5.12-.84.41-.93.82-.08.36-.29 3.31-.46 6.57a94 94 0 0 1-.6 7.36c-.44 2.25-.63 4.67-.43 5.47.13.5 1 1.27 2.85 2.51 3.69 2.47 5.93 4.82 7.4 7.76 1.11 2.22 1.19 2.53 1.19 4.83 0 3.35-.41 4.54-2.16 6.3-1.86 1.87-3.34 2.33-6.3 1.98a50 50 0 0 0-5.48-.18c-2.55.05-3.6-.04-4.22-.36-2.02-1.04-2.92-3.23-2.92-7.05 0-2.37 1.01-4.7 2.42-5.55 1.92-1.17 5.37-.54 7.09 1.3.55.6.97.75 2.02.75 1.54 0 3.17-.93 3.19-1.8 0-.46-1.18-1.38-1.77-1.38a5 5 0 0 1-1.96-.85c-2.77-1.78-6.64-2.22-9.16-1.05-3.57 1.66-4.86 4.13-4.84 9.26 0 3.59.64 5.75 2.19 7.51 1.59 1.81 2.78 2.16 7.42 2.16 3.32 0 4.13.08 4.26.42.31.81-.73 6.41-1.89 10.1-1.07 3.44-1.32 3.93-3.22 6.43a26 26 0 0 1-3.76 4c-2.01 1.55-2.39 2.16-2.12 3.4a9.6 9.6 0 0 0 4.52 6.14c1.98 1.03 5.66 3.9 6.38 5 .95 1.42.95 1.47.1 1.47-.38 0-1.18.33-1.78.74s-1.79.86-2.63 1c-.84.13-1.76.36-2.04.51s-1.35.34-2.37.43c-2.15.18-3.1.76-3.89 2.34-.65 1.31-.94 1.29-4.37-.4-2.52-1.24-4.83-3.06-5.49-4.34-.23-.45-.55-2.27-.7-4.05-.33-3.78-.8-4.93-2.55-6.25-1.56-1.18-2.83-1.53-5.55-1.53-2.9 0-4.15.4-5.68 1.81-1.77 1.64-2.12 2.45-2.29 5.35a54 54 0 0 1-.29 3.48c-.18 1.18-2 3.24-4.03 4.54-1.46.94-4.82 2.43-5.47 2.43-.19 0-.58-.53-.87-1.19m24.57-68.8c3.47-.26 7.53-3.17 9.2-6.6.78-1.58.8-1.8.67-4.76-.1-2.48-.28-3.41-.86-4.7l-.72-1.6 1.7.12c2.38.17 4.13-.4 5.6-1.8 1.43-1.39 1.85-2.64 1.86-5.55 0-1.85-.1-2.2-.94-3.46a7.3 7.3 0 0 0-8.03-3c-2.88.7-4.9 3.62-4.9 7.11v1.53l-2.09-1a17 17 0 0 0-12.66-.43c-.84.32-1.57.52-1.63.46-.07-.07-.2-1.15-.32-2.4-.15-1.82-.36-2.55-1-3.52-1.47-2.22-4.95-3.2-8.04-2.27a7.7 7.7 0 0 0-4.13 3.77 8.8 8.8 0 0 0 .8 7.54c.76 1.07 3.09 2.14 5.19 2.38.91.1 1.66.22 1.66.26s-.35.83-.77 1.77c-.6 1.32-.8 2.28-.9 4.35-.12 2.5-.08 2.77.75 4.54 2.86 6.1 8.27 8.11 19.56 7.26" transform="translate(-59.5 -58.36)" fill="#00a084"/></g><g transform="translate(-10.17 -49)scale(1.1905)"><path d="m-6.54 195.99 4.45-9.85 22.48-.37 15.6 9.1-3.99 9.56-14.29-6.75zm-5.13 15.16 3.8-9.2 24.11.44 15.5 6.43-3.98 9.57-13.88-5.43zm-5.39 16.1 3.8-9.2 24.04-.18 15.57 7.06-3.98 9.56-14.48-6.39zm116.36 6.61 3.19-6.72 19.02 1.62 15.45 6.83-12.98 21.95-21.29 2.48-3.98-7.67 11.82-3.58 7.69-11.29zm5.9-10.92 17.54 1.87 13.18 6.28 5.2-8.86-15.2-7.58-17.17-.16zm-53.4 21.41 4.79 5.83 25.5-15.02 15.69-19.25-16.42-9.5-9.52-.72 4.65-7.97-11.02-2.08-14.02 26.78 9.29 3.04 6.26-9.2 9.75 2.4-11.18 14.68zm-14.65 14.49-4.02-14.3-5.5 3.89-3.06-6.82 7.02-4.86-1.82-6.27 6.17-5.4 2.35 7.27 8.63-5.68 1.1 16.9-5.9.85-.3-5.61-1.87 1.82 3.36 14.99z" fill="#e50012" stroke="#fcfcfc" stroke-width="1.21"/><path d="m64.51 245.66-12.6 33.7 32.3 11.46 12.6-33.71zm5.86 6.23 4.91 1.91-1.92 5.29 4.4 1.22-1.32 3.6-2.1-.52-4.58 8.02 2.5 3.97-4.3 3.78-2.04-2.78-2.73 2.58-6.98-4.96 7.09-3.03-.53-8.35 3.71-.05 1.11 5 3.18-5.22-7.05-2.7 1.4-3.82 3.63 1.2zm15.72 5.46 4.5 1.64-1.65 4.88 2.24 1.2-1.28 3.86-2.7-.98-5.74 14.73-9.27.96 1.06-6.75 4.26 1.93 5.15-12.4-3.96-2.07 1.23-3.38 4.08 1.74zm-11.93 9.68 3.67.06.56 7.2-4.9-.5z" fill="#ff0"/><path d="m232.34 79.92.3-4.63 7.4-.12.18-4.32-7.82-.12-.12-5.1 10.31-.3 3.56 5.04-.77 9.6zm12.15-13.94 1.42-.3-.77-2.84-1.84 1.07zm2.79-1 1.6-.42-.42-2.13-2.13.59zm10.13 2.19 1.84-.47-.83-2.67-1.84.7zm3.03-.89 1.72-.53-.9-2.67-1.83.71zm-6.52 3.92 1.18-3.33-5.22-2.01-1.6 3.73zm-6.29 3.25 4.92 1.13 1.19-3.2-5.04-1.66zm3.02 7.05-2.07-3.9 11.74-5.58 1.72 4.03zm17.08-.23-2.5-3.26 4.63-3.2-5.98.06.17-3.85 10.97-.24 2.73 4.09zm-3.08-15 11.08-.23-.06 3.61-11.14.18z" transform="matrix(3.2154 .5401 -.5669 3.0632 -631.35 -43)" fill="#e50012" stroke="#fcfcfc" stroke-width=".38"/></g></g></svg>