<?xml version="1.0" encoding="UTF-8" standalone="no"?>

<svg
   viewBox="0 0 84.604416 13.230484"
   version="1.1"
   xmlns="http://www.w3.org/2000/svg"
   xmlns:svg="http://www.w3.org/2000/svg">
   <g transform="translate(-58.625227,-83.798916)" style="fill:white;fill-opacity:1;stroke-width:0.74483">
      <path
         d="M 7.7133378,47.752511 3.8818073,46.924306 6.0759313,44.3174 c 2.5371949,-3.014518 7.3310137,-10.076241 7.3310137,-10.799236 0,-0.270368 -0.926606,-0.288063 -2.059123,-0.03932 -2.9098962,0.63912 -10.1424376,-3.065036 -10.46858787,-5.361502 -0.1911758,-1.346094 0.12053573,-1.675868 1.58407717,-1.675868 1.0021486,0 4.9623239,-1.135297 8.8003907,-2.522882 6.940615,-2.509257 6.983299,-2.540144 7.903711,-5.719163 0.508975,-1.757954 0.798009,-3.323681 0.642297,-3.479393 -0.155712,-0.155712 -1.576241,0.259145 -3.156731,0.921902 C 13.2926,17.051068 9.768968,16.628514 6.1064991,14.377202 1.5460355,11.573894 2.7146432,10.800968 20.110417,5.114892 c 4.301395,-1.4059768 8.55275,-2.925425 9.447455,-3.3765515 1.335157,-0.6732095 2.21738,-0.4740907 4.921941,1.1108872 1.812361,1.0621145 3.833097,2.7520499 4.490525,3.7554122 1.043452,1.5925083 1.057382,1.9387777 0.109632,2.72534 -0.59713,0.4955743 -1.79372,0.7158911 -2.659089,0.4895926 -0.865367,-0.2262988 -3.751607,0.2613285 -6.413866,1.0836165 l -4.84047,1.495069 1.568503,1.669594 c 0.862676,0.918277 1.568502,2.393753 1.568502,3.278836 0,1.409737 0.300105,1.554404 2.420698,1.166907 1.331384,-0.243284 3.395461,-0.90602 4.586838,-1.472746 1.973684,-0.938863 2.439341,-0.870306 5.241127,0.77165 3.337048,1.955641 5.194864,4.640008 4.744403,6.855209 -0.245761,1.208564 -0.869369,1.370066 -4.532956,1.173943 -4.419737,-0.236602 -12.701697,1.633086 -13.798669,3.115108 -0.340522,0.460048 -1.57843,3.149161 -2.750909,5.975806 -1.172477,2.826645 -3.441119,7.100109 -5.041425,9.496586 -3.23586,4.845737 -3.739969,4.991936 -11.4593192,3.32336 z"
         transform="matrix(0.26458333,0,0,0.26458333,58.625227,83.798916)" />
      <path
         d="m 61.843073,30.526164 c -5.684089,-2.576037 -7.080197,-5.702555 -2.44286,-5.470671 1.536212,0.07682 5.693499,-0.732771 9.238414,-1.799082 6.918381,-2.081051 15.060056,-3.877252 21.200171,-4.677141 3.749746,-0.488489 3.866288,-0.443388 7.262095,2.810367 3.781917,3.623711 4.421497,6.177336 2.078296,8.297903 -1.285467,1.163332 -1.599841,1.142064 -4.936675,-0.333976 l -3.563779,-1.576429 -7.539232,1.574842 c -10.699957,2.235073 -18.060137,2.640879 -21.29643,1.174187 z"
         transform="matrix(0.26458333,0,0,0.26458333,58.625227,83.798916)" />
      <path
         d="m 118.318,47.387058 c -4.57173,-2.899305 -6.8968,-6.739445 -6.38605,-10.54736 0.55161,-4.112582 5.68861,-14.34257 10.16856,-20.249997 2.08981,-2.755707 5.88913,-6.7214434 8.44292,-8.8127465 2.55379,-2.0913039 5.56659,-4.6427783 6.6951,-5.6699434 l 2.05183,-1.86757284 2.41462,1.41021154 c 2.21801,1.2953881 5.77141,5.5903528 5.77141,6.975854 0,0.3214695 -0.68609,0.8022463 -1.52465,1.0683942 -0.83855,0.2661472 -3.53623,2.157961 -5.99483,4.204031 l -4.47019,3.720127 4.95601,5.253627 c 5.18105,5.492184 10.87871,13.650603 13.2924,19.03323 1.36797,3.050619 1.37043,3.212577 0.0708,4.648688 -0.74062,0.818373 -1.65881,1.487951 -2.04043,1.487951 -0.38163,0 -2.81958,-2.041216 -5.41767,-4.536034 -3.93758,-3.781055 -5.01158,-4.446508 -6.4528,-3.99815 -3.97823,1.237618 -14.46193,7.028911 -15.32845,8.467579 -1.24025,2.059163 -2.21992,1.966991 -6.24855,-0.587889 z m 16.46249,-15.969987 c 0.0186,-0.335847 -1.01944,-2.141441 -2.30671,-4.012432 l -2.34051,-3.401801 -1.41362,1.77794 c -2.41269,3.034475 -5.80833,9.163482 -5.81567,10.497066 -0.006,1.07202 0.91987,0.838984 5.91786,-1.48966 3.25867,-1.518265 5.94006,-3.035266 5.95865,-3.371113 z"
         transform="matrix(0.26458333,0,0,0.26458333,58.625227,83.798916)" />
      <path
         d="m 195.72908,47.865384 c -0.67006,-0.517593 -2.46503,-4.020161 -3.98883,-7.783484 l -2.77055,-6.842406 -4.88805,1.839857 c -2.68843,1.011922 -5.43113,2.331343 -6.0949,2.932047 -1.60805,1.455265 -4.17302,1.353681 -7.79304,-0.308635 -5.06854,-2.327484 -7.15899,-6.047477 -3.39837,-6.047477 1.06908,0 16.80103,-6.286571 17.79128,-7.109485 0.55096,-0.457862 -2.21544,-4.807209 -3.05337,-4.800523 -0.50155,0.004 -2.75257,0.864043 -5.00226,1.911202 -5.16288,2.403149 -7.96403,2.001415 -11.12178,-1.595057 -2.24302,-2.554669 -2.84924,-3.990663 -1.73276,-4.10456 3.28785,-0.335411 13.59716,-4.49814 13.57659,-5.482002 -0.009,-0.435637 -0.672,-1.6300017 -1.4731,-2.6541433 -1.75594,-2.2448451 -1.89936,-4.6913941 -0.35036,-5.976948 1.67885,-1.39331654 4.1933,0.02027 7.00814,3.9398745 l 2.36047,3.286892 5.73229,-1.2069729 c 3.15276,-0.6638345 6.40734,-1.5848555 7.2324,-2.0467129 3.12767,-1.7508234 10.04476,3.5849907 10.04476,7.7484816 0,1.838546 -0.12232,1.889404 -3.4479,1.433582 -3.13844,-0.430171 -12.31765,0.543397 -13.80804,1.464514 -0.33851,0.209209 0.13765,1.691767 1.05814,3.294574 1.60467,2.794142 1.79635,2.895649 4.65293,2.464027 1.63863,-0.247592 3.88717,-0.971853 4.99676,-1.609467 1.77325,-1.018977 2.26019,-1.029384 4.02296,-0.08598 2.48905,1.332096 5.72243,6.091401 5.37476,7.911244 -0.21664,1.133977 -1.2653,1.43028 -6.41971,1.813907 -3.38843,0.252191 -6.31841,0.616163 -6.51108,0.808829 -0.19266,0.192665 0.32092,2.30122 1.14129,4.685679 1.70588,4.958217 1.86959,8.159665 0.54957,10.746827 -1.1368,2.228067 -2.11111,2.590583 -3.68824,1.372311 z"
         transform="matrix(0.26458333,0,0,0.26458333,58.625227,83.798916)" />
      <path
         d="m 224.4314,47.019581 -4.60391,-0.840105 7.21081,-5.760829 c 6.62027,-5.289034 16.13816,-13.993433 15.62136,-14.286204 -0.11958,-0.06774 -1.22293,-0.445248 -2.4519,-0.838905 -2.77495,-0.888857 -5.58623,-6.069389 -5.58623,-10.294129 0,-1.711152 -0.83972,-4.591686 -2.01545,-6.9136604 -2.5264,-4.9894841 -1.83293,-6.1125298 2.66352,-4.3134081 1.70719,0.6830788 3.7677,2.0857581 4.57893,3.1170651 l 1.47495,1.8751037 2.81053,-1.8599175 c 8.53365,-5.6473011 11.86243,-6.24697338 14.55374,-2.6218178 3.5266,4.750292 4.38087,10.045316 2.28914,14.188763 -3.82997,7.586656 -19.88507,25.48899 -25.14058,28.033139 -3.50001,1.694326 -4.65559,1.746498 -11.40491,0.514905 z m 27.65927,-31.378146 c 1.73584,-2.457939 3.38302,-5.102753 3.66039,-5.8773635 0.78663,-2.1967637 -0.18105,-4.1778446 -2.04073,-4.1778446 -1.86048,0 -7.55409,3.4132197 -9.65549,5.7882961 -1.31346,1.484519 -1.31652,1.751317 -0.0785,6.844859 l 1.2882,5.300128 1.83504,-1.704547 c 1.00927,-0.9375 3.25527,-3.715588 4.99112,-6.173528 z"
         transform="matrix(0.26458333,0,0,0.26458333,58.625227,83.798916)" />
      <path
         d="m 297.11121,47.829507 c -2.3677,-1.592012 -2.54514,-2.000118 -2.75259,-6.331058 -0.12196,-2.546143 -0.46806,-4.629351 -0.7691,-4.629351 -0.30104,0 -2.84902,1.910489 -5.66219,4.245532 -5.70392,4.73449 -8.02658,5.263639 -12.07992,2.752058 l -2.34668,-1.454085 5.20096,-4.447621 c 2.86053,-2.446191 8.2738,-6.734923 12.02948,-9.530516 3.75569,-2.795593 6.93185,-5.368021 7.05815,-5.716508 0.28396,-0.783493 -7.52561,0.993106 -11.68997,2.659352 -3.86808,1.547698 -7.16326,0.985752 -10.48607,-1.788251 -2.35132,-1.962972 -2.69939,-4.258513 -0.51884,-3.421755 0.52206,0.200333 5,-0.801699 9.95097,-2.226737 4.95097,-1.425039 12.64106,-3.109687 17.08908,-3.743663 4.44802,-0.633975 8.79033,-1.348172 9.64957,-1.587103 1.20491,-0.335055 2.2697,0.36929 4.65518,3.079339 1.70112,1.932569 3.09294,3.902297 3.09294,4.377176 0,1.511194 -1.71719,2.651007 -3.99389,2.651007 -2.16667,0 -8.66822,3.255034 -8.66822,4.339788 0,0.304063 0.92172,1.111737 2.04828,1.794832 6.68122,4.051206 10.33337,9.802905 8.13422,12.810427 -0.82336,1.126015 -1.59168,0.754325 -7.59753,-3.675459 l -6.68154,-4.928156 -0.37242,7.305191 c -0.35611,6.98542 -0.87217,9.167266 -2.1683,9.167266 -0.32489,0 -1.7296,-0.765767 -3.12157,-1.701705 z"
         transform="matrix(0.26458333,0,0,0.26458333,58.625227,83.798916)" />
      <path
         d="m 224.40106,47.01958 -4.63424,-0.840105 5.69588,-4.468981 c 3.13274,-2.45794 8.34387,-6.957667 11.58028,-9.999394 l 5.88439,-5.530411 -2.47705,-0.800646 c -3.02495,-0.977736 -5.82879,-5.971174 -5.82879,-10.380634 0,-1.711153 -0.83973,-4.591686 -2.01545,-6.9136606 -2.52641,-4.9894839 -1.83293,-6.1125296 2.66352,-4.313408 1.70718,0.6830788 3.7677,2.0857581 4.57892,3.1170651 l 1.47496,1.8751036 2.81052,-1.8599174 c 8.53365,-5.647301 11.86244,-6.24697329 14.55374,-2.6218178 3.5266,4.7502919 4.38087,10.0453151 2.28914,14.1887631 -3.82996,7.586656 -19.88506,25.488989 -25.14057,28.033138 -3.50026,1.694447 -4.6444,1.745965 -11.43525,0.514905 z m 27.14033,-30.629471 c 1.85076,-2.460054 3.66947,-5.271236 4.04158,-6.247072 0.956,-2.5070308 0.11363,-4.5568102 -1.87264,-4.5568102 -1.86048,0 -7.5541,3.4132196 -9.65549,5.7882962 -1.31311,1.484119 -1.31627,1.752347 -0.0807,6.836101 1.25909,5.180366 1.31666,5.263689 2.74414,3.97184 0.80193,-0.725741 2.97232,-3.332301 4.82308,-5.792355 z"
         transform="matrix(0.26458333,0,0,0.26458333,58.625227,83.798916)" />
      <path
         d="m 280.32931,12.350729 c -4.19489,-2.5579236 -5.92754,-6.6981861 -2.41916,-5.7807236 0.7755,0.2027986 3.16768,-0.102124 5.31596,-0.6776058 2.14827,-0.5754819 7.59286,-1.7539399 12.09908,-2.6187958 4.50623,-0.8648559 8.5927,-1.8963623 9.08105,-2.29223662 2.05537,-1.66615092 9.91212,4.32269402 9.91212,7.55555902 0,1.198519 -0.52406,1.3046767 -4.76154,0.9645328 -5.17249,-0.4151981 -18.48892,1.481456 -22.70193,3.233431 -3.24225,1.348285 -3.73169,1.319472 -6.52558,-0.384161 z"
         transform="matrix(0.26458333,0,0,0.26458333,58.625227,83.798916)" />
      <path
         d="m 225.95919,30.582439 c -3.06602,-1.334286 -3.15759,-1.531896 -4.05411,-8.749347 -0.43266,-3.483142 -1.57115,-7.951843 -2.60259,-10.215435 -1.00842,-2.2130787 -1.67671,-4.1805607 -1.48509,-4.3721826 0.77161,-0.7716147 5.74252,0.7445178 7.48951,2.2843106 2.01861,1.779203 6.3353,13.188443 6.3353,16.744561 0,2.015317 -1.79866,5.410315 -2.83535,5.351785 -0.28402,-0.01604 -1.56547,-0.485696 -2.84767,-1.043692 z"
         transform="matrix(0.26458333,0,0,0.26458333,58.625227,83.798916)" />
   </g>
</svg>
