<svg xmlns="http://www.w3.org/2000/svg" viewBox="0 0 84.6 13.23"><g fill="#fff" stroke-width=".74"><path d="m2.04 12.63-1.02-.22.58-.69c.67-.8 1.94-2.66 1.94-2.85 0-.07-.24-.08-.54-.01-.77.17-2.69-.81-2.77-1.42-.05-.36.03-.45.42-.45.26 0 1.31-.3 2.33-.66 1.83-.67 1.84-.67 2.09-1.52.13-.46.2-.88.17-.92-.04-.04-.42.07-.84.25q-1.34.56-2.79-.34c-1.2-.74-.9-.94 3.7-2.45a33 33 0 0 0 2.5-.9c.36-.17.6-.12 1.3.3.49.28 1.02.73 1.2 1 .27.42.28.5.03.72a1 1 0 0 1-.7.13c-.24-.06-1 .07-1.7.28l-1.29.4.42.44c.23.24.41.63.41.87 0 .37.08.41.64.3.36-.06.9-.23 1.22-.38.52-.25.64-.23 1.38.2.89.52 1.38 1.23 1.26 1.82-.07.32-.23.36-1.2.3-1.17-.06-3.36.44-3.65.83a15 15 0 0 0-.73 1.58c-.3.75-.9 1.88-1.33 2.51-.86 1.29-1 1.32-3.03.88m14.32-4.55c-1.5-.69-1.88-1.51-.65-1.45.4.02 1.5-.2 2.45-.48a38 38 0 0 1 5.6-1.24c1-.12 1.03-.11 1.93.75 1 .96 1.17 1.63.55 2.2-.34.3-.43.3-1.31-.1l-.94-.41-2 .41c-2.83.6-4.78.7-5.63.32m14.94 4.46c-1.2-.77-1.82-1.79-1.69-2.8a16 16 0 0 1 4.92-7.68l1.78-1.5.54-.5.64.38c.58.34 1.53 1.47 1.53 1.84 0 .09-.19.21-.4.28a8 8 0 0 0-1.6 1.12l-1.18.98 1.31 1.39a22 22 0 0 1 3.52 5.04c.36.8.36.85.02 1.23-.2.21-.44.39-.54.39s-.75-.54-1.43-1.2c-1.05-1-1.33-1.18-1.71-1.06-1.05.33-3.83 1.86-4.06 2.24-.32.55-.58.52-1.65-.15m4.36-4.23c0-.09-.27-.57-.61-1.06l-.62-.9-.38.47c-.64.8-1.53 2.42-1.54 2.78 0 .28.25.22 1.57-.4.86-.4 1.57-.8 1.58-.89m16.12 4.35a9 9 0 0 1-1.05-2.06l-.74-1.8-1.29.48a8 8 0 0 0-1.61.78q-.63.57-2.06-.09c-1.35-.61-1.9-1.6-.9-1.6.28 0 4.44-1.66 4.7-1.88.15-.12-.58-1.27-.8-1.27-.14 0-.73.23-1.33.5-1.36.64-2.1.54-2.94-.41q-.9-1.03-.46-1.09c.87-.09 3.6-1.19 3.6-1.45 0-.11-.18-.43-.4-.7-.46-.6-.5-1.24-.09-1.58.45-.37 1.11 0 1.86 1.04l.62.87 1.52-.32c.83-.18 1.7-.42 1.91-.54.83-.47 2.66.95 2.66 2.05 0 .48-.03.5-.91.38-.83-.12-3.26.14-3.66.38-.09.06.04.45.28.88.43.74.48.76 1.23.65a5 5 0 0 0 1.33-.43c.46-.27.6-.27 1.06-.02.66.35 1.51 1.61 1.42 2.1-.06.3-.33.37-1.7.47-.9.07-1.67.17-1.72.22s.09.6.3 1.24c.45 1.3.5 2.16.15 2.84-.3.59-.56.69-.98.36m7.59-.22-1.21-.22 1.9-1.53c1.76-1.4 4.28-3.7 4.14-3.78l-.65-.22c-.73-.23-1.48-1.6-1.48-2.72 0-.46-.22-1.22-.53-1.83-.67-1.32-.49-1.62.7-1.14.46.18 1 .55 1.22.82l.39.5.74-.5c2.26-1.49 3.14-1.65 3.85-.69.93 1.26 1.16 2.66.6 3.76-1 2-5.26 6.74-6.65 7.41-.92.45-1.23.47-3.01.14m7.32-8.3c.46-.65.9-1.35.97-1.56.21-.58-.05-1.1-.54-1.1s-2 .9-2.55 1.53c-.35.4-.35.46-.02 1.8l.34 1.41.48-.45c.27-.25.86-.98 1.32-1.63m11.91 8.51c-.63-.42-.68-.53-.73-1.67-.03-.67-.13-1.23-.2-1.23-.09 0-.76.5-1.5 1.13-1.51 1.25-2.13 1.39-3.2.73l-.62-.39 1.38-1.18c.75-.64 2.18-1.78 3.18-2.52s1.83-1.42 1.87-1.51c.07-.2-2 .26-3.1.7a2.5 2.5 0 0 1-2.77-.47c-.62-.52-.72-1.13-.14-.9.14.05 1.32-.22 2.63-.6 1.31-.37 3.35-.82 4.52-.98a46 46 0 0 0 2.56-.42c.32-.1.6.1 1.23.81.45.51.82 1.03.82 1.16 0 .4-.46.7-1.06.7-.57 0-2.3.86-2.3 1.15 0 .08.25.3.55.47 1.77 1.07 2.73 2.6 2.15 3.4-.22.29-.42.2-2-.98l-1.78-1.3-.1 1.93c-.09 1.85-.23 2.42-.57 2.42-.08 0-.46-.2-.82-.45"/><path d="m59.37 12.44-1.23-.22 1.5-1.19c.84-.65 2.22-1.84 3.07-2.64l1.56-1.46-.66-.22c-.8-.25-1.54-1.58-1.54-2.74 0-.46-.22-1.22-.53-1.83-.67-1.32-.49-1.62.7-1.14.46.18 1 .55 1.22.82l.39.5.74-.5c2.26-1.49 3.14-1.65 3.85-.69.93 1.26 1.16 2.66.6 3.76-1 2-5.26 6.74-6.65 7.41-.92.45-1.23.47-3.02.14m7.18-8.1c.49-.66.97-1.4 1.07-1.66.25-.66.03-1.2-.5-1.2-.49 0-2 .9-2.55 1.53-.35.4-.35.46-.02 1.8.33 1.38.35 1.4.72 1.06.21-.2.79-.88 1.28-1.53m7.62-1.07c-1.11-.68-1.57-1.78-.64-1.53.2.05.83-.03 1.4-.18s2.01-.47 3.2-.7 2.28-.5 2.4-.6c.55-.44 2.63 1.14 2.63 2 0 .31-.14.34-1.26.25-1.37-.1-4.9.4-6 .86-.87.36-1 .35-1.73-.1"/><path d="M59.78 8.1c-.81-.36-.84-.41-1.07-2.32a11 11 0 0 0-.7-2.7 4 4 0 0 1-.38-1.16c.2-.2 1.52.2 1.98.6.53.47 1.67 3.49 1.67 4.43 0 .53-.47 1.43-.75 1.42-.07 0-.41-.13-.75-.28"/></g></svg>