<svg xmlns="http://www.w3.org/2000/svg" viewBox="0 0 46.9 46.9"><circle cx="23.4" cy="23.4" r="23.4" fill="#fff"/><path fill="#2b479b" d="M34.2 37.3q-1.2-.4-1.8-2.8c-.2-.9-.4-1-2-.8-1.7 0-2.3 0-3.3-1.1q-1.5-1.3-1-3 .3-1.4 1.6-2.4c.7-.6.7-.6 1-1.8.2-1 .9-2.3 1.5-2.6q1.2-.7 2 .3c.7.7 1.5 1.9 1.6 2.4q0 .4.8.3 1 .2 1.7-1.6.5-1.6 1.5-1.8 1.5-.4 2 1.4l.3 1.2c.2.6.2.7 1.6 1.5.8.5 1 1.1 1 2.7 0 1.2 0 1.5-.3 2.1a4 4 0 0 1-3 2.3c-2 .4-2 .4-2 1q-.3 2-2.2 2.6l-.5.2zm.9-2.3q.3-.6-.4-.7t-.4.7c0 .2.6.2.8 0m2.3-4.4q.4-.5-.1-1l-1.2-.2q-1 0-.9.2t.9.7c1 .6 1 .6 1.3.3m-5-.4q.8-.3.5-.8l-2.3.1c-.2.2.6.9 1 .9z"/><path fill="#e73818" d="M24.2 19.3q0-.4-.4-.4l-.3.4q0 .4.4.4.3 0 .3-.4m0-2.6q-.6 0-.6.5t.4.4q.6 0 .7-.5-.1-.4-.6-.4m-4.3-3q0 .4.5.5.7-.1.6-.5t-.4-.5q-.5 0-.7.4m5.6-.4q-.6 0-.6.5t.6.5.5-.5q0-.5-.5-.5m2 4.4-.1.2-.6 1-1.2 1.8q-.4.8-1.5 1h-.3l-1-.3-1-1-.2-.6-.3-1-.2-.5-.4-.6h-1.1l-.3-.1-1.4-.1-.6-.3h-.1l-1.2-1-.8-1-.2-.5v-1.1l.2-.7.4-1q.6-.8 1.4-1.2l.3-.2V10l.2-2v-.2l.3-.7.1-.2h.3l1.4 1.2.8.7.1.2.6.4.4.2 1.5.4.6.1q1-.2 1.8-.9l.2-.2 1-1.3.5-.5c.2-.6.8-.8 1-1.3l.3.3.1 1.3v1.8l.2.4q0 .3.2.4l.9.3a2 2 0 0 1 1.5 1.8v.2q.1 1-.2 1.8l-.1.3-.4.6-.6.6q-.6.6-1.3.8l-.5.3q-.6.2-.7.8"/><path fill="#3baf4d" d="M14.2 36.6q-.6-.3-.8-.8c-.8-1.2-.5-1.1-3.2-1.2-1.3 0-2.6-.2-3-.3a3 3 0 0 1-2-2.7c0-.5.4-1.7.8-2.3.3-.6.4-.6.4-3s.1-3 .5-3l1.2 1c1.7 1.3 2.4 1.7 3.2 1.7s2.9-.5 3.3-.7l1.5-1.7 1.4-1.4q.4 0 1 1.7c.7 1.6.6 1.5 1.6 2q1.5.5 1.8 1.7c.2.9.1 2.7-.2 3.3-.4.8-1.6 2.1-2 2.3q-.6.2-.6.9c-.1.8-.8 1.9-1.6 2.4s-2.4.6-3.2.1m1.9-2c.4-.5-.3-1-.8-.6l-.3.2.4.3q.3.5.7 0m-3.6-4.4-.3-.3q-2-.4-2 .2-.1.2 1 .4 1.5.2 1.3-.3m4.5.3 1.6-.3c1-.2 1-.2 1-.5 0-.4 0-.4-1.1-.4s-1.3 0-1.8.4q-1.4 1.3.3.8"/></svg>