<?xml version="1.0" encoding="UTF-8" standalone="no"?>
<svg
    width="100"
    height="100"
    viewBox="0 0 100 100"
    version="1.1"
    xmlns="http://www.w3.org/2000/svg"
    xmlns:svg="http://www.w3.org/2000/svg">
    <defs>
        <mask id="cutOut" fill="white">
            <circle cx="50" cy="50" r="50" />
            <g  transform="translate(-12 -12) scale(0.5)">
                <path
                    d="M 178.9,153.1 V 91.6 c -3,-1.9 -14.7,-8.5 -28,-8.5 -13.2,0 -21.9,6.5 -24.1,8.4 v 61.1 c 4.2,-2.9 12.5,-7.4 24.1,-7.4 12.4,0 23.1,5.1 28,7.9 z"
                    fill="black" />
                <path
                    d="M 123.2,152.6 V 91.5 c -2.2,-1.8 -11,-8.4 -24.1,-8.4 -13.3,0 -25,6.6 -28,8.5 v 61.5 c 4.9,-2.8 15.7,-7.9 28,-7.9 11.6,0 19.9,4.5 24.1,7.4 z"
                    fill="black" />
                <path
                    d="m 182.5,99 v 57.2 c 0,0.5 -0.2,0.9 -0.5,1.3 -0.6,0.7 -1.6,0.7 -2.3,0.3 -0.1,-0.1 -13.4,-9 -28.8,-9 -15.3,0 -24.6,8.7 -24.7,8.8 0,0 0,0 0,0 -0.1,0.1 -0.1,0.1 -0.2,0.2 0,0 0,0 0,0 -0.1,0.1 -0.2,0.1 -0.3,0.1 0,0 0,0 0,0 -0.1,0 -0.2,0.1 -0.2,0.1 0,0 -0.1,0 -0.1,0 -0.1,0 -0.2,0 -0.3,0 0,0 0,0 0,0 v 0 c 0,0 0,0 0,0 -0.1,0 -0.2,0 -0.3,0 0,0 -0.1,0 -0.1,0 -0.1,0 -0.2,0 -0.2,-0.1 0,0 0,0 0,0 -0.1,0 -0.2,-0.1 -0.3,-0.1 0,0 0,0 0,0 -0.1,0 -0.1,-0.1 -0.2,-0.2 0,0 0,0 0,0 -0.1,-0.1 -9.5,-8.8 -24.7,-8.8 -15.4,0 -28.7,8.9 -28.8,9 -0.7,0.5 -1.7,0.4 -2.3,-0.3 -0.3,-0.3 -0.5,-0.8 -0.5,-1.3 V 99 h -5 v 64.1 h 53.4 c 1.6,0 2.9,0.8 3.7,1.9 0.8,1.1 2,1.8 3.4,1.8 h 4.1 c 1.3,0 2.6,-0.7 3.4,-1.8 0.8,-1.2 2.2,-1.9 3.7,-1.9 h 53.4 V 99 Z"
                    fill="black" />
            </g>
        </mask>
    </defs>
    <g>
        <circle cx="50" cy="50" r="50" fill="black" mask="url(#cutOut)" />
    </g>
</svg>
