<?xml version="1.0" encoding="UTF-8" standalone="no"?>
<svg
    width="100"
    height="100"
    viewBox="0 0 100 100"
    version="1.1"
    xmlns="http://www.w3.org/2000/svg"
    xmlns:svg="http://www.w3.org/2000/svg">
    <defs>
        <mask id="cutOut" fill="white">
            <circle cx="50" cy="50" r="50" />
            <path
                transform="translate(-13 -12) scale(0.55)"
                d="m 135.18868,170.22041 c 3.30991,1.10326 -9.66646,-5.78069 -14.61678,-10.55884 -3.80019,-3.66803 -5.61807,-6.80918 -6.67497,-11.53379 l -0.63732,-2.84899 c -35.888722,-29.67666 16.42111,13.90069 -19.238062,-15.28878 l -25.33978,-0.17639 -25.339785,-0.17639 -0.910199,-0.85524 c -1.241121,-1.16619 -1.2617,-3.23505 -0.04429,-4.45246 l 0.865909,-0.86591 h 19.533708 19.533707 l 0.82263,-0.87565 0.82263,-0.87565 -0.84933,-0.67507 c -0.46713,-0.3713 -3.82926,-3.12525 -7.4714,-6.1199 -6.48164,-5.32935 -6.65886,-5.44567 -8.35635,-5.48433 -3.038524,-0.0692 -4.928946,-1.53531 -5.202786,-4.03494 -0.242644,-2.21491 0.870281,-3.66961 3.966836,-5.18503 5.08713,-2.489601 31.69564,-12.858541 41.614372,-16.216511 4.62776,-1.56673 8.6614,-2.51348 10.70867,-2.51348 1.91094,0 5.19194,0.91438 7.75286,2.16063 1.53829,0.7486 6.61384,6.947896 8.80014,9.527194 8.06716,9.517277 8.74766,10.549157 14.30734,20.842967 1.09918,2.03514 4.37086,7.67265 4.65181,8.30324 l 0.51082,1.14653 h 15.64283 15.64282 l 0.71835,0.79375 c 0.3951,0.43656 0.81271,1.18125 0.92803,1.65486 0.24501,1.00624 -0.60898,3.011 -1.46245,3.43313 -0.32456,0.16053 -19.21483,0.37125 -41.97838,0.46826 l -41.38828,0.17639 5.29948,4.31708 c 20.11721,17.29533 -17.176266,-14.47846 4.10378,2.90401 4.70163,3.85426 5.42928,4.19445 9.04216,4.22728 2.61344,0.0237 6.90068,1.02251 9.31622,2.17031 3.02504,1.43743 7.36793,4.73487 11.5199,8.74678 5.93665,5.73638 6.47759,6.99495 4.49333,10.45431 -1.90596,3.32282 -7.17478,7.94823 -9.00922,7.90903 -0.39858,-0.008 -5.09725,-1.50446 -4.34706,-1.25441 z m -14.83786,-48.93008 c 0.5964,-0.27174 0.89855,-0.69166 0.89855,-1.24878 0,-2.11078 -3.633,-7.44415 -12.52361,-18.38513 l -1.76389,-2.170681 -1.63109,0.19785 c -0.8971,0.10882 -3.39099,0.643131 -5.541992,1.187361 -5.42576,1.37278 -24.05181,6.8524 -24.02944,7.06925 0.0101,0.0977 2.66914,2.34159 5.90903,4.98648 l 5.8907,4.8089 2.48617,-2.39481 c 2.89195,-2.78566 4.28438,-3.3165 8.08703,-3.08304 3.336582,0.20485 5.426902,1.08624 12.039932,5.07669 7.68127,4.63504 8.22461,4.84621 10.17861,3.95591 z"
                style="fill:#000000;stroke-width:0.352778"/>
            <circle
                fill="black"
                cx="43"
                cy="26"
                r="7" />
        </mask>
    </defs>
    <g>
        <!-- <rect x="0" y="0" width="100" height="100" fill="green" /> -->
        <circle cx="50" cy="50" r="50" fill="black" mask="url(#cutOut)" />
    </g>
</svg>
