<?xml version="1.0" encoding="UTF-8" standalone="no"?>
<svg
    width="100"
    height="100"
    viewBox="0 0 100 100"
    version="1.1"
    xmlns="http://www.w3.org/2000/svg"
    xmlns:svg="http://www.w3.org/2000/svg">
    <defs>
        <mask id="cutOut" fill="white">
            <circle cx="50" cy="50" r="50" />
            <rect x="28" y="30" width="40" height="50" fill="black" />
            <rect x="67.9" y="32" width="12.1" height="40" fill="black" />
            <rect x="68" y="38" width="6.1" height="28" fill="white" />
            <circle cx="48" cy="26" r="12" fill="white" />
            <circle cx="33" cy="26" r="10" fill="white" />
            <circle cx="63" cy="26" r="10" fill="white" />
            <circle cx="48" cy="26" r="10" fill="black" />
            <circle cx="33" cy="26" r="8" fill="black" />
            <circle cx="63" cy="26" r="8" fill="black" />
            <!-- <circle cx="68" cy="40" r="5" fill="white" /> -->
            <!-- <rect x="64" y="35" width="5" height="10" fill="white" /> -->

            
            <!-- <rect x="35" y="30" width="2" height="10" fill="white" /> -->
            <!-- <path d="M 36 38 L 40 42 V 50 H 32 V 42 Z" fill="white"/> -->
            <!-- <path d="M 24 42 V 66 H 76 V 42L 50 54 Z" fill="white"/> -->
        </mask>
    </defs>
    <g>
        <circle cx="50" cy="50" r="50" fill="black" mask="url(#cutOut)" />
    </g>
</svg>
