<?xml version="1.0" encoding="UTF-8" standalone="no"?>
<svg
    width="100"
    height="100"
    viewBox="0 0 100 100"
    version="1.1"
    xmlns="http://www.w3.org/2000/svg"
    xmlns:svg="http://www.w3.org/2000/svg">
    <defs>
        <mask id="cutOut" fill="white">
            <circle cx="50" cy="50" r="50" />

            <circle cx="42" cy="44" r="12" fill="black"/>
            <circle cx="42" cy="44" r="5" fill="white"/>

            <circle cx="58" cy="46" r="12" fill="white"/>
            <circle cx="58" cy="46" r="10" fill="black"/>
            <circle cx="58" cy="46" r="4" fill="white"/>

            <rect x="28" y="50" width="44" height="6" fill="white" />
            <rect x="28" y="52" width="44" height="6" fill="black" />
            <!-- <rect x="30" y="62" width="40" height="12" fill="black" /> -->
            <path d="M 30 60 H 70 L 66 74 H 34 Z" fill="black"/>

            <circle cx="30" cy="30" r="4" fill="black"/>
            <circle cx="30" cy="30" r="3" fill="white"/>

            <circle cx="68" cy="36" r="3" fill="black"/>
            <circle cx="68" cy="36" r="2" fill="white"/>

            <circle cx="38" cy="26" r="3" fill="black"/>
            <circle cx="38" cy="26" r="2" fill="white"/>


            <!-- <rect x="32" y="60" width="36" height="8" fill="black" />
            <rect x="45" y="52" width="16" height="6" fill="black" />

            <g transform="rotate(-35 50 50) translate(-13 -16)">
                <rect x="48" y="40" width="5" height="32" fill="black" />
            </g>

            <circle cx="38" cy="64" r="7" fill="white"/>
            <circle cx="38" cy="64" r="5" fill="black"/>

            <circle cx="66" cy="65" r="6" fill="white"/>
            <circle cx="66" cy="65" r="4" fill="black"/> -->

        </mask>
    </defs>
    <g>
        <circle cx="50" cy="50" r="50" fill="black" mask="url(#cutOut)" />
    </g>
</svg>
