<?xml version="1.0" encoding="UTF-8" standalone="no"?>
<svg
    width="100"
    height="100"
    viewBox="0 0 100 100"
    version="1.1"
    xmlns="http://www.w3.org/2000/svg"
    xmlns:svg="http://www.w3.org/2000/svg">
    <defs>
        <mask id="cutOut" fill="white">
            <circle cx="50" cy="50" r="50" />
            <g transform="scale(0.15) translate(-290 -10)">
                <path
                    fill="black"
                    d="m 609.98559,524.28281 c -12.82271,-4.63898 -19.81748,-11.80788 -30.45496,-31.21313 -8.20534,-14.96846 -22.63885,-20.66337 -74.90276,-29.55375 -23.54097,-4.00445 -48.05374,-8.99642 -54.47282,-11.09328 -13.21749,-4.31761 -33.93694,-25.96882 -33.88319,-35.40692 0.0713,-12.51889 18.03859,-43.30341 39.55209,-67.76713 12.11094,-13.77176 22.93477,-29.3635 24.05297,-34.64831 1.11819,-5.28481 4.51975,-32.34022 7.559,-60.12314 3.03926,-27.78292 7.19461,-53.63238 9.23412,-57.44325 2.44832,-4.57471 7.64469,-6.92884 15.29436,-6.92884 9.51731,0 15.84407,4.39593 35.43178,24.61853 23.27023,24.02448 29.01034,32.35372 36.44527,52.88426 l 3.63217,10.02977 h 55.8102 c 44.7145,0 57.42883,-1.13374 63.95179,-5.70259 4.47787,-3.13643 15.67844,-18.76927 24.89014,-34.73964 38.71554,-67.12131 56.91805,-64.1608 56.0971,9.12378 -0.22685,20.23408 -0.31329,41.26992 -0.19257,46.74632 0.15136,6.86445 6.95362,17.38797 21.9009,33.88169 17.1688,18.94512 22.1758,27.22121 24.0566,39.76355 1.3064,8.71141 1.7967,18.84309 1.0896,22.51483 -2.3159,12.02474 -36.81856,33.90654 -86.94685,55.14218 -51.5988,21.85857 -56.51311,25.31436 -75.61378,53.17236 -12.60521,18.38449 -31.03229,31.89251 -42.9199,31.46253 -4.01191,-0.14511 -12.83697,-2.26903 -19.61126,-4.71982 z"/>
            </g>
        </mask>
    </defs>
    <g>
        <circle cx="50" cy="50" r="50" fill="black" mask="url(#cutOut)" />
    </g>
</svg>
