<?xml version="1.0" encoding="UTF-8" standalone="no"?>
<svg
    width="100"
    height="100"
    viewBox="0 0 100 100"
    version="1.1"
    xmlns="http://www.w3.org/2000/svg"
    xmlns:svg="http://www.w3.org/2000/svg">
    <defs>
        <g id="steam">
            <path d="M 50 60 
                     C 56 49.5, 56 49.5, 52 39 
                     C 48 28.5, 48 28.5, 50 18 
                     C 44 28.5, 44 28.5, 48 39 
                     C 52 49.5, 52 49.5, 50 60 Z"/>
        </g>
        <mask id="cutOut" fill="white">
            <circle cx="50" cy="50" r="50" />
            <ellipse cx="50" cy="60" rx="30" ry="20" fill="black" />
            <ellipse cx="50" cy="55" rx="26" ry="16" fill="white" />
            <g transform="translate(-10, -6) scale(1.2)">
                <path d="M 50 60 
                     C 56 49.5, 58 49.5, 53 39 
                     C 48 28.5, 48 28.5, 50 18 
                     C 44 28.5, 42 28.5, 47 39 
                     C 52 49.5, 52 49.5, 50 60 Z"
                      fill="black"/>
                <path d="M 50 60 
                     C 56 49.5, 58 49.5, 53 39 
                     C 48 28.5, 48 28.5, 50 18 
                     C 44 28.5, 42 28.5, 47 39 
                     C 52 49.5, 52 49.5, 50 60 Z"
                      fill="black" transform="translate(-4.5, 3) scale(0.92)"/>
                <path d="M 50 60 
                     C 56 49.5, 58 49.5, 53 39 
                     C 48 28.5, 48 28.5, 50 18 
                     C 44 28.5, 42 28.5, 47 39 
                     C 52 49.5, 52 49.5, 50 60 Z"
                      fill="black" transform="translate(12.5, 3) scale(0.92)"/>
                <!-- <use href="#steam" fill="black" /> -->
                <!-- <use href="#steam" fill="black" transform="translate(-4.5, 3) scale(0.92)"/> -->
                <!-- <use href="#steam" fill="black" transform="translate(12.5, 3) scale(0.92)"/> -->
            </g>
            
        </mask>
    </defs>
    <g>
        <!-- <rect x="0" y="0" width="100" height="100" fill="green" /> -->
        <circle cx="50" cy="50" r="50" fill="black" mask="url(#cutOut)" />
    </g>
</svg>
