<?xml version="1.0" encoding="UTF-8" standalone="no"?>
<svg
    width="100"
    height="100"
    viewBox="0 0 100 100"
    version="1.1"
    xmlns="http://www.w3.org/2000/svg"
    xmlns:svg="http://www.w3.org/2000/svg">
    <defs>
        <mask id="cutOut" fill="white">
            <circle cx="50" cy="50" r="50" />
            <g transform="translate(-2 -2)">
            <circle cx="64" cy="32" r="7" fill="black"/>
            
            <rect x="38" y="37" width="18" height="6" fill="black" />
            <rect x="38" y="42" width="6" height="10" fill="black" />
            
            <!-- <rect x="60" y="62" width="6" height="20" fill="black" /> -->
            <!-- <rect x="50" y="58" width="16" height="6" fill="black" /> -->
            <g transform="rotate(35 50 50) translate(0 -8)">
                <rect x="47" y="44" width="6" height="36" fill="black" />
                <rect x="47" y="44" width="8" height="24" fill="black" />
            </g>
            <rect x="26" y="63.8" width="14" height="6" fill="black" />

            <rect x="56" y="42" width="6" height="14" fill="black" />
            <rect x="56" y="52" width="12" height="6" fill="black" />
            
             <g transform="rotate(-35 50 50) translate(-6 10)">
                <rect x="47" y="44" width="6" height="16" fill="black" />
            </g>
            <rect x="53" y="68" width="6" height="14" fill="black" />
            </g>
        </mask>
    </defs>
    <g>
        <circle cx="50" cy="50" r="50" fill="black" mask="url(#cutOut)" />
    </g>
</svg>
