<?xml version="1.0" encoding="UTF-8" standalone="no"?>
<svg
    width="100"
    height="100"
    viewBox="0 0 100 100"
    version="1.1"
    xmlns="http://www.w3.org/2000/svg"
    xmlns:svg="http://www.w3.org/2000/svg">
    <defs>
        <mask id="cutOut" fill="white">
            <circle cx="50" cy="50" r="50" />
            <!-- <rect x="65.9" y="30" width="6.1" height="20" fill="black" /> -->
            <circle cx="32" cy="32" r="10" fill="black" />
            <circle cx="32" cy="68" r="10" fill="black" />
            <circle cx="32" cy="32" r="6" fill="white" />
            <circle cx="32" cy="68" r="6" fill="white" />
            <!-- <path d="M 20 20 H 40 V 10 Z" fill="black"/> -->
            <!-- <circle cx="72" cy="40" r="5" fill="white" /> -->
            <!-- <rect x="68" y="35" width="5" height="10" fill="white" /> -->
            <g transform="rotate(40 50 50) translate(8 -3)">
                <rect x="25" y="47" width="50" height="6" fill="black" />
            </g>
            <g transform="rotate(-40 50 50) translate(8 3)">
                <rect x="25" y="47" width="50" height="6" fill="black" />
            </g>
            <circle cx="54.7" cy="50" r="2" fill="white" />
            
            <!-- <rect x="39" y="30" width="2" height="10" fill="white" /> -->
            <!-- <path d="M 40 38 L 44 42 V 50 H 36 V 42 Z" fill="white"/> -->
            <!-- <path d="M 24 42 V 66 H 76 V 42L 50 54 Z" fill="white"/> -->
        </mask>
    </defs>
    <g>
        <circle cx="50" cy="50" r="50" fill="black" mask="url(#cutOut)" />
    </g>
</svg>
