<?xml version="1.0" encoding="UTF-8" standalone="no"?>
<svg
    width="100"
    height="100"
    viewBox="0 0 100 100"
    version="1.1"
    xmlns="http://www.w3.org/2000/svg"
    xmlns:svg="http://www.w3.org/2000/svg">
    <defs>
        <mask id="cutOut" fill="white">
            <circle cx="50" cy="50" r="50" />
            <circle cx="50" cy="50" r="18" fill="black" />
            <!-- <circle cx="70" cy="60" r="15" fill="black" /> -->
            <!-- <circle cx="60" cy="43" r="14" fill="black" /> -->
            <!-- <circle cx="42" cy="38" r="15" fill="black" /> -->
            <rect x="48" y="10" width="4" height="16" fill="black" />
            <rect x="48" y="74" width="4" height="16" fill="black" />
            <rect x="10" y="48" width="16" height="4" fill="black" />
            <rect x="74" y="48" width="16" height="4" fill="black" />
            <rect x="74" y="48" width="16" height="4" fill="black" transform="rotate(45 50 50)" />
            <rect x="74" y="48" width="16" height="4" fill="black" transform="rotate(-45 50 50)" />
            <rect x="10" y="48" width="16" height="4" fill="black"  transform="rotate(45 50 50)" />
            <rect x="10" y="48" width="16" height="4" fill="black"  transform="rotate(-45 50 50)" />
        </mask>
    </defs>
    <g>
        <circle cx="50" cy="50" r="50" fill="black" mask="url(#cutOut)" />
    </g>
</svg>
