<?xml version="1.0" encoding="UTF-8" standalone="no"?>
<svg
    width="100"
    height="100"
    viewBox="0 0 100 100"
    version="1.1"
    xmlns="http://www.w3.org/2000/svg"
    xmlns:svg="http://www.w3.org/2000/svg">
    <defs>
        <mask id="cutOut" fill="white">
            <circle cx="50" cy="50" r="50" />
            <path
               transform="translate(-69,-20)"
               style="fill:#000000"
               d="m 104.3513,100.5381 c -1.04947,-0.29248 -1.4688,-0.666965 -2.47129,-2.207005 -3.50612,-5.38614 -4.162043,-13.47748 -1.79621,-22.15773 l 0.29319,-1.07574 -0.688847,-1.5066 c -3.455531,-7.55772 -6.639904,-15.679889 -7.246153,-18.482269 -0.241233,-1.115095 -0.217383,-4.062331 0.0417,-5.153133 0.377094,-1.587654 0.985664,-3.005459 1.849798,-4.309526 0.64965,-0.98039 2.368764,-2.699504 3.349154,-3.349154 1.332394,-0.882904 2.896108,-1.54382 4.471778,-1.890035 1.02403,-0.225006 3.95551,-0.224366 4.98745,0.0011 1.00499,0.219564 1.83467,0.508162 2.98906,1.039714 2.56938,1.183107 4.52098,1.626789 7.47957,1.700423 1.8872,0.04697 3.04714,-0.03228 4.7748,-0.326216 1.7974,-0.305802 4.16503,-1.010177 5.92666,-1.76319 1.53046,-0.654197 2.98802,-0.891985 5.06849,-0.826875 1.94493,0.06087 3.11566,0.335047 4.83123,1.13145 3.16569,1.469582 5.68118,4.419506 6.65117,7.799886 0.60491,2.108046 0.61756,4.705069 0.0331,6.788025 -1.02229,3.643235 -3.84378,10.65596 -7.6062,18.90494 -0.14175,0.31079 -0.13932,0.33375 0.13721,1.29576 0.15484,0.53865 0.43323,1.72978 0.61866,2.64694 0.61988,3.06603 0.80561,5.09949 0.74004,8.10224 -0.0837,3.83096 -0.71355,6.6911 -2.09784,9.52561 -0.67057,1.37309 -1.69769,2.96887 -2.20715,3.42913 -0.58548,0.528955 -1.43385,0.802175 -2.48569,0.800525 -1.24259,-0.002 -3.27195,-0.689597 -4.08295,-1.499462 -0.90278,-0.90152 -1.19915,-1.67509 -1.86244,-4.86129 -0.20937,-1.00571 -0.51599,-2.47627 -0.68139,-3.2679 -0.89227,-4.27054 -1.82822,-7.34077 -2.91654,-9.56733 -0.30371,-0.401107 -2.14036,-3.717394 -2.27405,-3.784043 -1.13346,-0.53756 -1.70327,-0.53745 -2.83682,5.1e-4 -2.27217,1.07831 -2.34814,4.53994 -3.8027,10.32516 -0.48945,1.94673 -0.59005,2.3986 -1.29108,5.79942 -0.81629,3.95995 -1.05641,4.6572 -1.92942,5.60264 -0.81097,0.878245 -3.55398,1.261495 -4.86222,1.247795 -0.39768,-0.004 -0.8945,-0.0554 -1.10405,-0.11376 z"/>
        </mask>
    </defs>
    <g>
        <!-- <rect x="0" y="0" width="100" height="100" fill="green" /> -->
        <circle cx="50" cy="50" r="50" fill="black" mask="url(#cutOut)" />
    </g>
</svg>
