<?xml version="1.0" encoding="UTF-8" standalone="no"?>
<svg
    width="100"
    height="100"
    viewBox="0 0 100 100"
    version="1.1"
    xmlns="http://www.w3.org/2000/svg"
	xmlns:svg="http://www.w3.org/2000/svg"
	xmlns:xlink="http://www.w3.org/1999/xlink">
    <defs>
        <g id="pill">
			<path
				id="path001"
				fill="black"
				d="M 25 70 A 1 1 0 0 1 25 30 H 42 A 1 1.5 0 0 1 42 70 Z"/>
			<path
				id="path003"
				fill="white"
				d="M 25 35 A 1 1 0 0 0 25 40 H 35 A 1 1 0 0 0 35 35 Z"/>
			<path
				id="path004"
				fill="black"
				d="M 60 35 A 1 1 0 0 0 60 40 H 80 A 1 1 0 0 0 80 35 Z"/>
			<path
				id="path005"
				fill="none"
				stroke="black"
				stroke-width="3"
				d="M 25 70 A 1 1 0 0 1 25 30 H 42 A 1 1.5 0 0 1 42 70 Z"/>
			<path
				id="path006"
				fill="none"
				stroke="black"
				stroke-width="3"
				d="M 42 70 A 1 1.5 0 0 0 42 30 H 75 A 1 1 0 0 1 75 70 Z"/>
		</g>
        <mask id="cutOut" fill="white">
            <circle cx="50" cy="50" r="50" />
            <use xlink:href="#pill"
                transform="rotate(-30 50 50) scale(0.8) translate(12 12)"/>

        </mask>
    </defs>
    <g>
        <circle cx="50" cy="50" r="50" fill="black" mask="url(#cutOut)" />
    </g>
</svg>
