<svg xmlns="http://www.w3.org/2000/svg" xml:space="preserve" viewBox="0 0 84.94 63.43"><g transform="translate(-49.64 11.47)"><path d="M49.64-11.47h84.94v63.43H49.64z"/><path fill="#4544b2" stroke="#4c75d3" stroke-width=".51" d="M50.05 4.84H63.3Zm28.68.14h24.71Z"/><path fill="#4544b2" stroke="#4c75d3" stroke-width=".56" d="M98.73 21.76 107 11.75z"/><path fill="#4544b2" stroke="#4c75d3" stroke-width=".51" d="M83.33 21.53h-21.7Z"/><path fill="#4544b2" stroke="#4c75d3" stroke-width=".5" d="M61.53 21.28v17.87Z"/><path fill="#b4816d" d="M71-.28c3.83 0 5.5 3.11 2.2 4.76-.3.14-.27.73 0 .83 4.2.98 1.82 5.43-2.2 5.42zm-.62 5.69v-1h-1.34c-.45 0-.44 1 0 1zM70.5.8V-.28c-1.4-.1-2.82.24-3.58 1.2-.37.58.31 1.49 1.24.62.68-.6 1.35-.66 2.34-.73m-.04 8.84v1.09c-2.12.29-3.97-.66-4.48-2.23-.13-1.15 1.25-.85 1.58-.1.56 1 1.65 1.16 2.9 1.24"/><path fill="#475096" d="M89.16 26.58h3.82V16.35l-3.82 1.03zm-.63-7.73v-1.29l-1.36.38c-.6.23-.36.91 0 .91z"/><path fill="#dfc23e" d="M106.67 10.06h4.72l3.7-5.76c.74-2.56-.2-4.09-1.96-4.6zm5.76 0h2.6c.58 0 .56-.91.03-.9h-2.07zm-.7-9.53.62-1.01c-4.04-.71-5.56.9-5.7 4.66.14.4 1.28.35 1.38 0 .17-2.58 1.03-3.82 3.7-3.65"/><path fill="none" stroke="#ff4d00" stroke-width=".5" d="M63.31 9.02V.86l7.77-4.48L78.41.86v8.16l-7.62 4.73Z"/><path fill="none" stroke="#4846b9" stroke-width=".5" d="M83.47 25.68v-8.15l7.77-4.49 7.33 4.49v8.15l-7.62 4.73z"/><path fill="none" stroke="#323232" stroke-width=".5" d="M103.65 9.27V1.1l7.77-4.48 7.33 4.48v8.16L111.13 14z"/><path fill="#fff" d="M71.94 32.75v3.75a2.4 2.4 0 0 1 2.1 2.38 2.4 2.4 0 0 1-2.1 2.38V45a6.13 6.13 0 0 0 5.84-6.12 6.13 6.13 0 0 0-5.84-6.13m-.58 0a6.13 6.13 0 0 0-5.84 6.13A6.13 6.13 0 0 0 71.36 45v-3.74a2.4 2.4 0 0 1-2.1-2.38 2.4 2.4 0 0 1 2.1-2.38zm-9.52-.15v3.74a2.4 2.4 0 0 1 2 1.23l2.68-2.69-.45-.49a6 6 0 0 0-4.23-1.8m-.58.02a6 6 0 0 0-3.86 1.77 6.13 6.13 0 0 0 0 8.68 6 6 0 0 0 3.86 1.77v-3.76a2.4 2.4 0 0 1-1.92-2.35 2.4 2.4 0 0 1 1.92-2.35zm2.5 7.4a2.4 2.4 0 0 1-1.92 1.1v3.74a6 6 0 0 0 4.23-1.8l.35-.37zm47.9-7.13v3.74a2.4 2.4 0 0 1 1.99 1.23l2.68-2.69-.44-.49a6 6 0 0 0-4.23-1.8m-.59.02a6 6 0 0 0-3.86 1.77 6.13 6.13 0 0 0 0 8.68 6 6 0 0 0 3.86 1.77v-3.76a2.4 2.4 0 0 1-1.92-2.35 2.4 2.4 0 0 1 1.92-2.35zm2.5 7.4a2.4 2.4 0 0 1-1.91 1.1v3.74a6 6 0 0 0 4.23-1.8l.34-.37zm-25.23-7.46h9.74v3.49h-9.74zm3.12 4.2h3.35v7.87h-3.35zm25.04-4.2h9.74v3.49h-9.74zm3.12 4.2h3.35v7.87h-3.35zm-41.71-4.25h3.32v12.04h-3.32zm6.57 0h3.32v12.04h-3.32zm-2.9.82 2.4 4.06v6.35l-2.4-4.14z"/><g fill="#fff"><path d="m99.73 32.9-4.38 11.97h3.48l2.15-6.21 2.31 6.2h3.48l-4.16-11.96Z"/><path d="m100.14 43.27.89-2.59.96 2.58z"/></g><ellipse cx="61.53" cy="39.15" fill="#4544b2" stroke="#4c75d3" stroke-width=".5" rx=".67" ry=".68"/></g><path fill="#fff" d="M34.28 40.57v-8.85h16.38zm0-17.7v8.85h16.38z" opacity=".9"/></svg>