<?xml version="1.0" encoding="UTF-8" standalone="no"?>
<svg
   viewBox="0 0 100 80"
   version="1.1"
   xmlns:xlink="http://www.w3.org/1999/xlink"
   xmlns="http://www.w3.org/2000/svg"
   xmlns:svg="http://www.w3.org/2000/svg">
  <defs>
    <g id="steam">
      <path
         fill="black"
         d="M 50 60                       C 56 49.5, 56 49.5, 52 39                       C 48 28.5, 48 28.5, 50 18                       C 44 28.5, 44 28.5, 48 39                       C 52 49.5, 52 49.5, 50 60 Z"/>
    </g>
    <g id="circle">
      <mask id="circleMask">
        <ellipse
           cx="50"
           cy="60"
           rx="30"
           ry="20"
           fill="white"
           id="ellipse185" />
        <ellipse
           cx="50"
           cy="56"
           rx="26"
           ry="17"
           fill="black"/>
      </mask>
      <ellipse
         cx="50"
         cy="60"
         rx="30"
         ry="20"
         fill="black"
         mask="url(#circleMask)"/>
    </g>
  </defs>
  <g>
    <!-- <rect x="0" y="0" width="100%" height="100%" fill="green"/> -->
    <use
       xlink:href="#circle"
       transform="matrix(1,0,0,0.9109506,0,-9.5934522)" />
    <g transform="matrix(1,0,0,0.6881891,0,10.036043)">
      <use
         xlink:href="#circle"
         transform="matrix(0.2,0,0,0.43237038,40,53.376361)"/>
      <use
         xlink:href="#steam"
         transform="matrix(0.2,0,0,0.2,40,71)"/>
    </g>
    <g transform="translate(-2.5494395,1.348178)">
      <g
         id="g595"
         transform="translate(0,-4.539824)">
        <use
           xlink:href="#circle"
           transform="matrix(0.26489676,0,0,-0.51681416,28.489676,55.884957)" />
        <use
           xlink:href="#steam"
           transform="matrix(0.36079441,0,0,0.22,23.471478,17.958663)"/>
      </g>
      <g transform="translate(21.629851,-4.539824)">
        <use
           xlink:href="#circle"
           transform="matrix(0.26489676,0,0,-0.51681416,28.489676,55.884957)"/>
        <use
           xlink:href="#steam"
           transform="matrix(0.36079441,0,0,0.22,23.471478,17.958663)"/>
      </g>
    </g>
  </g>
</svg>
