<?xml version="1.0" encoding="UTF-8" standalone="no"?>
<svg
   id="asanoha"
   width="56"
   height="63"
   version="1.1"
   xmlns:xlink="http://www.w3.org/1999/xlink"
   xmlns="http://www.w3.org/2000/svg"
   xmlns:svg="http://www.w3.org/2000/svg">

  <defs>
    <pattern
       xlink:href="#asanohaPattern"
       id="pattern6148"
       patternTransform="translate(-14)" />
    <g
       id="asanohaRect">
      <rect
         width="28"
         height="16"
         mask="url(#asanohaMask)"
         x="0"
         y="0" />
    </g>
  </defs>
  <mask
     id="asanohaMask">
    <rect
       width="28"
       height="16"
       fill="white"
       x="0"
       y="0" />
    <g
       stroke-width="0.8"
       stroke="#000000"
       fill="none">
      <path
         d="M 14,0 V 16 Z"
         id="path4291" />
      <path
         d="M 0,0 V 16 Z"
         id="path4293" />
      <path
         d="M 28,0 V 16 Z"
         id="path4295" />
      <path
         d="m 0,8 4.6188,8 H 14 Z"
         id="path4297" />
      <path
         d="M 0,8 H 9.2376 L 14,16 Z"
         id="path4299" />
      <path
         d="M 0,8 H 9.2376 L 14,0 Z"
         id="path4301" />
      <path
         d="M 0,8 4.6188,0 H 14 Z"
         id="path4303" />
      <path
         d="m 14,16 h 9.094 L 28,8 Z"
         id="path4305" />
      <path
         d="m 14,0 h 9.094 L 28,8 Z"
         id="path4307" />
      <path
         d="m 14,0 4.4752,8 H 28 Z"
         id="path4309" />
      <path
         d="M 14,16 18.4752,8 H 28 Z"
         id="path4311" />
    </g>
  </mask>
  <pattern
     id="asanohaPattern"
     width="28"
     height="16"
     patternTransform="scale(1)"
     patternUnits="userSpaceOnUse">
    <use
       xlink:href="#asanohaRect"
       fill="black" />
  </pattern>
  <path
     d="M 28,63 0,48 V 16 L 28,0 56,16 v 32 z"
     fill="url(#asanohaPattern)"
     style="fill:url(#pattern6148)" />
</svg>
