<?xml version="1.0" encoding="UTF-8" standalone="no"?>
<svg
   id="asanoha"
   width="28"
   height="32"
   version="1.1"
   sodipodi:docname="asanohaSingle.svg"
   inkscape:version="1.2.2 (b0a8486, 2022-12-01)"
   xmlns:inkscape="http://www.inkscape.org/namespaces/inkscape"
   xmlns:sodipodi="http://sodipodi.sourceforge.net/DTD/sodipodi-0.dtd"
   xmlns:xlink="http://www.w3.org/1999/xlink"
   xmlns="http://www.w3.org/2000/svg"
   xmlns:svg="http://www.w3.org/2000/svg">
  <sodipodi:namedview
     id="namedview2748"
     pagecolor="#505050"
     bordercolor="#ffffff"
     borderopacity="1"
     inkscape:showpageshadow="0"
     inkscape:pageopacity="0"
     inkscape:pagecheckerboard="1"
     inkscape:deskcolor="#505050"
     showgrid="false"
     inkscape:zoom="8.968254"
     inkscape:cx="5.4637168"
     inkscape:cy="15.666372"
     inkscape:window-width="1366"
     inkscape:window-height="715"
     inkscape:window-x="0"
     inkscape:window-y="25"
     inkscape:window-maximized="0"
     inkscape:current-layer="asanoha" />
  <defs
     id="defs2724">
    <pattern
       xlink:href="#asanohaPattern"
       id="pattern6148"
       patternTransform="translate(-28,-16)" />
    <g
       id="asanohaRect">
      <rect
         width="28"
         height="16"
         mask="url(#asanohaMask)"
         x="0"
         y="0"
         id="rect2721" />
    </g>
  </defs>
  <mask
     id="asanohaMask">
    <rect
       width="28"
       height="16"
       fill="#ffffff"
       x="0"
       y="0"
       id="rect2726" />
    <g
       stroke-width="0.8"
       stroke="#000000"
       fill="none"
       id="g2739">
      <path
         d="M 14,0 V 16 Z"
         id="path4291" />
      <path
         d="M 0,0 V 16 Z"
         id="path4293" />
      <path
         d="M 28,0 V 16 Z"
         id="path4295" />
      <path
         d="m 0,8 4.6188,8 H 14 Z"
         id="path4297" />
      <path
         d="M 0,8 H 9.2376 L 14,16 Z"
         id="path4299" />
      <path
         d="M 0,8 H 9.2376 L 14,0 Z"
         id="path4301" />
      <path
         d="M 0,8 4.6188,0 H 14 Z"
         id="path4303" />
      <path
         d="m 14,16 h 9.094 L 28,8 Z"
         id="path4305" />
      <path
         d="m 14,0 h 9.094 L 28,8 Z"
         id="path4307" />
      <path
         d="m 14,0 4.4752,8 H 28 Z"
         id="path4309" />
      <path
         d="M 14,16 18.4752,8 H 28 Z"
         id="path4311" />
    </g>
  </mask>
  <pattern
     id="asanohaPattern"
     width="28"
     height="16"
     patternTransform="scale(1)"
     patternUnits="userSpaceOnUse">
    <use
       xlink:href="#asanohaRect"
       fill="black"
       id="use2742" />
  </pattern>
  <path
     d="M 14,32 0,24 V 8 L 14,0 28,8 v 16 z"
     fill="url(#asanohaPattern)"
     style="fill:url(#pattern6148)"
     id="path2745" />
</svg>
