<?xml version="1.0" encoding="UTF-8" standalone="no"?>
<svg
   id="asanoha"
   width="32"
   height="38"
   version="1.1"
   sodipodi:docname="kagomeSingle.svg"
   inkscape:version="1.2.2 (b0a8486, 2022-12-01)"
   xmlns:inkscape="http://www.inkscape.org/namespaces/inkscape"
   xmlns:sodipodi="http://sodipodi.sourceforge.net/DTD/sodipodi-0.dtd"
   xmlns:xlink="http://www.w3.org/1999/xlink"
   xmlns="http://www.w3.org/2000/svg"
   xmlns:svg="http://www.w3.org/2000/svg">
  <sodipodi:namedview
     id="namedview3079"
     pagecolor="#505050"
     bordercolor="#ffffff"
     borderopacity="1"
     inkscape:showpageshadow="0"
     inkscape:pageopacity="0"
     inkscape:pagecheckerboard="1"
     inkscape:deskcolor="#505050"
     showgrid="false"
     inkscape:zoom="11.770833"
     inkscape:cx="27.525664"
     inkscape:cy="15.079646"
     inkscape:window-width="1366"
     inkscape:window-height="715"
     inkscape:window-x="0"
     inkscape:window-y="25"
     inkscape:window-maximized="0"
     inkscape:current-layer="asanoha" />
  <defs
     id="defs3040">
    <pattern
       inkscape:collect="always"
       xlink:href="#asanohaPattern"
       id="pattern3198"
       patternTransform="rotate(90,0.5,-8.5)" />
    <g
       id="asanohaRect">
      <rect
         width="28"
         height="16"
         mask="url(#asanohaMask)"
         id="rect3037"
         x="0"
         y="0" />
    </g>
  </defs>
  <mask
     id="asanohaMask">
    <rect
       width="28"
       height="16"
       fill="#ffffff"
       id="rect3042"
       x="0"
       y="0" />
    <g
       stroke-width="0.8"
       stroke="#000000"
       fill="none"
       id="g3070">
      <path
         d="m 0,8 4.6188,8 H 14 L 9.2376,8 Z"
         id="path3044" />
      <path
         d="M 9.31,16 4.6188,8 Z"
         id="path3046" />
      <path
         d="M 2.31,12 0,16 Z"
         id="path3048" />
      <path
         d="M 0,8 4.6188,0 H 14 L 9.2376,8 Z"
         id="path3050" />
      <path
         d="m 2.31,4 h 9.31 z"
         id="path3052" />
      <path
         d="M 11.62,12 16.31,4 Z"
         id="path3054" />
      <path
         d="m 16,12 h 9.5 z"
         id="path3056" />
      <path
         d="M 18.547,0 23.24,8 Z"
         id="path3058" />
      <path
         d="M 25.55,4 28,0 Z"
         id="path3060" />
      <path
         d="m 30.34,12 -4.69,8 z"
         id="path3062" />
      <path
         d="M -2.38,3.97 2.358,-3.95 Z"
         id="path3064" />
      <path
         d="m 14,16 h 9.094 L 28,8 h -9.5248 z"
         id="path3066" />
      <path
         d="m 14,0 h 9.094 L 28,8 h -9.5248 z"
         id="path3068" />
    </g>
  </mask>
  <pattern
     id="asanohaPattern"
     width="28"
     height="16"
     patternTransform="rotate(90)"
     patternUnits="userSpaceOnUse">
    <use
       xlink:href="#asanohaRect"
       fill="black"
       id="use3073" />
  </pattern>
  <path
     d="M 16,0 32,10 V 28 L 16,37.8 0,28 V 10 Z"
     fill="url(#asanohaPattern)"
     id="path3076"
     style="fill:url(#pattern3198)" />
</svg>
