<?xml version="1.0" encoding="UTF-8" standalone="no"?>

<svg
	id="seigaiha"
	width="110px"
	height="60px"
	viewBox=" 0 110 60"
	version="1.1"
	xmlns="http://www.w3.org/2000/svg"
	xmlns:svg="http://www.w3.org/2000/svg">
	<defs>
		<g id="fanShape">
			<circle
				r="6"
				mask="url(#seigaihaMask)"/>
		</g>
	</defs>
	<mask
		id="seigaihaMask"
		 maskContentUnits="objectBoundingBox">
		<rect x="0" y="0" width="100%" height="100%" fill="white" />
		<circle
			cx=".5"
			cy=".5"
			r="calc(5/12)"
			fill="black"/>
		<circle
			cx=".5"
			cy=".5"
			r="calc(4/12)"
			fill="white"/>
		<circle
			cx=".5"
			cy=".5"
			r="calc(3/12)"
			fill="black"/>
		<circle
			cx=".5"
			cy=".5"
			r="calc(2/12)"
			fill="white"/>
		<circle
			cx=".5"
			cy=".5"
			r="calc(1/12)"
			fill="black"/>
		<circle
			cx=".5"
			cy="1"
			r=".5"
			fill="black"/>
		<circle
			cx="calc(23/24)"
			cy=".75"
			r=".5"
			fill="black"/>
		<circle
			cx="calc(1/24)"
			cy=".75"
			r=".5"
			fill="black"/>
	</mask>
	<mask
		id="circleMask">
		<rect x="0" y="0" width="100%" height="100%" fill="black" />
		<circle
			cx="50%"
			cy="50%"
			r="13"
			fill="white"/>
		
	</mask>
	
	<g mask="url(#circleMask)">
		<use 
			href="#fanShape"
			fill="green"
			x="49.5"
			y="33"/>
		<use 
			href="#fanShape"
			fill="red"
			x="60.5"
			y="33"/>
		<use 
			href="#fanShape"
			fill="#707372"
			x="60.5"
			y="27"/>
		<use 
			href="#fanShape"
			fill="blue"
			x="55"
			y="30"/>
		<use 
			href="#fanShape"
			fill="#707372"
			x="49.5"
			y="27"/>
		<use 
			href="#fanShape"
			fill="yellow"
			x="55"
			y="36"/>
		<use 
			href="#fanShape"
			fill="#707372"
			x="55"
			y="24"/>
		<use 
			href="#fanShape"
			fill="#707372"
			x="66"
			y="30"/>
		<use 
			href="#fanShape"
			fill="#707372"
			x="44"
			y="30"/>
		<use 
			href="#fanShape"
			fill="#707372"
			x="60.5"
			y="21"/>
		<use 
			href="#fanShape"
			fill="#707372"
			x="49.5"
			y="21"/>
		<use 
			href="#fanShape"
			fill="#707372"
			x="60.5"
			y="39"/>
		<use 
			href="#fanShape"
			fill="#707372"
			x="49.5"
			y="39"/>
		<use 
			href="#fanShape"
			fill="#707372"
			x="55"
			y="42"/>
		<use 
			href="#fanShape"
			fill="#707372"
			x="55"
			y="18"/>
		<use 
			href="#fanShape"
			fill="#707372"
			x="66"
			y="36"/>
		<use 
			href="#fanShape"
			fill="#707372"
			x="44"
			y="36"/>
		<use 
			href="#fanShape"
			fill="#707372"
			x="66"
			y="24"/>
		<use 
			href="#fanShape"
			fill="#707372"
			x="44"
			y="24"/>
		<use 
			href="#fanShape"
			fill="#707372"
			x="38.5"
			y="33"/>
		<use 
			href="#fanShape"
			fill="#707372"
			x="38.5"
			y="27"/>
		<use 
			href="#fanShape"
			fill="#707372"
			x="71.5"
			y="33"/>
		<use 
			href="#fanShape"
			fill="#707372"
			x="44"
			y="42"/>
		<use 
			href="#fanShape"
			fill="#707372"
			x="66"
			y="42"/>
		<use 
			href="#fanShape"
			fill="#707372"
			x="49.5"
			y="45"/>
		<use 
			href="#fanShape"
			fill="#707372"
			x="60.5"
			y="45"/>
		<use 
			href="#fanShape"
			fill="#707372"
			x="55"
			y="48"/>
	</g>
</svg>
