<?xml version="1.0" encoding="UTF-8" standalone="no"?>

<svg
	id="shippo"
	width="96px"
	height="96px"
	viewBox="0 0 4 4"
	version="1.1"
	xmlns="http://www.w3.org/2000/svg"
	xmlns:svg="http://www.w3.org/2000/svg">
	<g>
		<path
			fill="#0000ff"
			d="M 1 1 A 1 1 0 0 0 2 0 A 1 1 0 0 0 1 1 Z"/>
		<path
			fill="#00ffff"
			d="M 1 1 A 1 1 0 0 0 2 2 A 1 1 0 0 0 1 1 Z"/>
		<path
			fill="#ff00ff"
			d="M 2 2 A 1 1 0 0 0 3 1 A 1 1 0 0 0 2 2 Z"/>
		<path
			fill="#0000ff"
			d="M 3 1 A 1 1 0 0 0 2 0 A 1 1 0 0 0 3 1 Z"/>
		<path
			fill="#00ff00"
			d="M 0 2 A 1 1 0 0 0 1 1 A 1 1 0 0 0 0 2 Z"/>
		<path
			fill="#00ff00"
			d="M 0 2 A 1 1 0 0 0 1 3 A 1 1 0 0 0 0 2 Z"/>
		<path
			fill="#aaff00"
			d="M 1 3 A 1 1 0 0 0 2 2 A 1 1 0 0 0 1 3 Z"/>
		<path
			fill="#ffff00"
			d="M 1 3 A 1 1 0 0 0 2 4 A 1 1 0 0 0 1 3 Z"/>
		<path
			fill="#ffff00"
			d="M 2 4 A 1 1 0 0 0 3 3 A 1 1 0 0 0 2 4 Z"/>
		<path
			fill="#ff9900"
			d="M 3 3 A 1 1 0 0 0 2 2 A 1 1 0 0 0 3 3 Z"/>
		<path
			fill="#ff0000"
			d="M 3 3 A 1 1 0 0 0 4 2 A 1 1 0 0 0 3 3 Z"/>
		<path
			fill="#ff0000"
			d="M 4 2 A 1 1 0 0 0 3 1 A 1 1 0 0 0 4 2 Z"/>
		
		


	</g>
</svg>
