<?xml version="1.0" encoding="UTF-8" standalone="no"?>
<svg
   viewBox="0 0 87.007636 87.007637"
   version="1.1"
   xmlns="http://www.w3.org/2000/svg"
   xmlns:svg="http://www.w3.org/2000/svg">
  <ellipse
     style="fill:#ffffff"
     cx="43.503819"
     cy="70.262329"
     rx="6.819149"
     ry="8.3630037"
     id="ellipse2151" />
  <path
     style="fill:#ffffff"
     d="M 43.988281,8.7402344 C 38.256055,8.7748153 30.04727,11.745371 24.8125,19.203125 c -0.800777,1.225673 -1.156999,2.906506 -1.177734,4.166016 -5.16e-4,3.651865 2.959463,6.612718 6.611328,6.613281 2.419923,-3.47e-4 4.646361,-1.322576 5.804687,-3.447266 2.056325,-2.405679 7.428758,-7.780133 13.783203,-4.161052 4.074691,2.32068 5.809948,7.009396 -5.269531,11.68449 -4.545656,1.918084 -7.5593,5.7319 -7.970703,14.310547 0.05502,4.150828 3.357355,7.505377 6.79492,7.609375 5.09909,-0.04839 6.415592,-2.998047 6.792969,-7.609375 0.785026,-6.400988 7.019027,-6.461394 11.246093,-11.050782 C 72.467174,25.047598 57.564606,8.6583321 43.988281,8.7402344 Z"/>
</svg>
