<?xml version="1.0" encoding="UTF-8" standalone="no"?>
<svg
   viewBox="0 0 15.858408 38.210042"
   version="1.1"
   xmlns="http://www.w3.org/2000/svg"
   xmlns:svg="http://www.w3.org/2000/svg">
  <mask
     id="spiral">
    <circle
       style="fill:#ffffff;fill-opacity:1;stroke-width:0"
       id="path2139"
       cx="27.042707"
       cy="94.74453"
       r="19.105021" />
    <g>
      <path
         d="m 24.701,78.207 c 7.067,-1.43 22.798,5.636 16.994,20.612 -2.944,5.721 -8.661,7.641 -14.89,5.973 -4.711,-1.262 -7.403,-6.31 -5.636,-10.348 0.841,-1.515 4.374,-4.122 6.814,-1.178 0.589,0.925 -0.42,1.346 -1.009,1.01 -0.589,-0.337 -1.756,-0.081 -2.188,1.43 -0.337,1.178 0.505,3.113 2.86,4.291 2.86,1.43 6.394,-0.253 8.16,-2.692 1.767,-2.44 4.795,-14.975 -11.021,-18.424 -0.672,-0.085 -0.546,-0.548 -0.084,-0.674 z"
         style="fill:#000000" />
    </g>
    <g transform="rotate(180,27.240677,94.916208)">
      <path
         d="m 24.701,78.207 c 7.067,-1.43 22.798,5.636 16.994,20.612 -2.944,5.721 -8.661,7.641 -14.89,5.973 -4.711,-1.262 -7.403,-6.31 -5.636,-10.348 0.841,-1.515 4.374,-4.122 6.814,-1.178 0.589,0.925 -0.42,1.346 -1.009,1.01 -0.589,-0.337 -1.756,-0.081 -2.188,1.43 -0.337,1.178 0.505,3.113 2.86,4.291 2.86,1.43 6.394,-0.253 8.16,-2.692 1.767,-2.44 4.795,-14.975 -11.021,-18.424 -0.672,-0.085 -0.546,-0.548 -0.084,-0.674 z"
         style="fill:#000000" />
    </g>
  </mask>
  <circle
     style="fill:#ffffff;fill-opacity:1;stroke-width:0"
     id="circle2745"
     cx="27.042707"
     cy="94.74453"
     r="19.105021"
     mask="url(#spiral)"
     transform="rotate(-90,-20.333799,66.481526)" />
</svg>
