<?xml version="1.0" encoding="UTF-8" standalone="no"?>
<svg
   viewBox="0 0 458 458"
   version="1.1"
   xmlns="http://www.w3.org/2000/svg"
   xmlns:svg="http://www.w3.org/2000/svg">
  <path
     id="path572"
     d="m 364.871,39.713 c -8.650,0.715 -21.356,18.651 -38.261,53.783 -8.580,17.832 -19.014,35.288 -23.185,38.791 -6.076,5.101 -17.920,6.367 -59.572,6.367 H 191.865 l -3.384,-11.199 C 181.554,104.530 176.207,95.230 154.531,68.404 136.285,45.823 130.392,40.916 121.527,40.916 c -7.125,0 -11.967,2.628 -14.248,7.736 -1.899,4.255 -5.770,33.118 -8.601,64.140 -2.831,31.022 -5.999,61.231 -7.041,67.132 -1.041,5.900 -9.122,23.311 -20.404,38.689 -20.039,27.316 -28.777,61.689 -28.843,75.667 -0.050,10.538 11.250,34.714 23.562,39.535 5.979,2.341 26.813,7.915 48.742,12.386 48.684,9.926 62.128,16.286 69.771,33 9.908,21.667 16.424,29.671 28.369,34.851 6.310,2.736 14.530,5.109 18.267,5.271 11.073,0.480 28.238,-14.602 39.980,-35.130 17.792,-31.106 22.370,-18.965 70.435,-43.373 46.694,-23.711 78.834,-48.143 80.992,-61.570 0.658,-4.099 0.201,-15.413 -1.015,-25.140 -1.751,-14.004 -6.415,-39.246 -22.408,-60.400 -13.923,-18.416 -20.261,-30.167 -20.402,-37.832 -0.112,-6.114 -0.031,-29.603 0.179,-52.197 0.406,-43.471 -4.188,-64.781 -13.992,-63.970 z M 155.543,216.959 c 8.330,0.134 20.957,4.006 27.287,9.169 7.925,6.192 14.237,18.252 12.357,23.792 -1.880,6.029 -6.313,5.375 -14.507,-1.957 l 0.134,-0.162 c -4.029,-3.747 -12.357,-6.843 -20.550,-7.984 -13.298,-1.629 -13.701,-1.955 -14.507,-11.244 -0.537,-7.821 0.134,-9.776 4.835,-11.080 1.334,-0.397 3.028,-0.566 4.951,-0.535 z m 148.623,4.019 c 5.810,-0.308 6.894,1.045 9.398,4.652 8.262,12.301 2.628,19.133 -15.523,18.830 -6.008,0 -15.396,1.671 -20.779,4.101 -11.767,5.163 -12.143,5.163 -15.648,1.062 l -0.126,0.152 c -3.630,-4.404 -3.378,-14.579 0.376,-19.287 1.627,-1.974 13.143,-5.314 25.412,-7.289 8.215,-1.252 13.404,-2.037 16.890,-2.222 z m -86.244,144.527 c 1.392,0.083 3.018,0.329 4.990,0.708 13.269,2.581 17.277,5.771 17.277,13.820 0,12.870 -23.020,19.697 -31.593,9.351 0.018,0.022 0.028,0.042 0.046,0.064 l -0.126,-0.152 c 0.025,0.031 0.054,0.057 0.080,0.087 -5.703,-6.952 -5.568,-12.108 0.171,-19.375 2.910,-3.531 4.976,-4.755 9.154,-4.505 z"
     style="fill:#ffffff" />
</svg>
