<?xml version="1.0" encoding="UTF-8" standalone="no"?>

<svg xmlns="http://www.w3.org/2000/svg" version="1.2" width="100" height="100" viewBox="0 0 100 100">
    <g fill="white">
        <g opacity="0.666">
            <circle cx="29.43" cy="70.08" r="20" opacity="1" />
            <circle cx="6.98" cy="52.12" r="6" opacity="1" />
            <circle cx="13.71" cy="36.16" r="10" opacity="1" />
            <circle cx="15.71" cy="21.2" r="4" opacity="1" />
            <circle cx="21.95" cy="17.96" r="2" opacity="1" />
            <circle cx="20.2" cy="13.72" r="2" opacity="1" />
            <circle cx="24.69" cy="45.64" r="4" opacity="1" />
            <circle cx="54.78" cy="62.77" r="6" opacity="1" />
            <circle cx="53.2" cy="73.31" r="2" opacity="1" />
            <circle cx="50.85" cy="79.2" r="2" opacity="1" />
        </g>
        <g opacity="1">
            <circle cx="91.57" cy="62.6" r="6" opacity="1" />
            <circle cx="69.1" cy="49.93" r="10" opacity="1" />
            <circle cx="77.33" cy="75.3" r="12" opacity="1" />
            <circle cx="61.6" cy="88.75" r="8" opacity="1" />
            <circle cx="88.83" cy="47.72" r="8" opacity="1" />
            <circle cx="60.47" cy="73.45" r="4" opacity="1" />
            <circle cx="45.2" cy="92.13" r="6" opacity="1" />
            <circle cx="53.35" cy="96.74" r="2" opacity="1" />
            <circle cx="67.92" cy="63.76" r="2" opacity="1" />
            <circle cx="81.49" cy="59.04" r="4" opacity="1" />
        </g>
        <g opacity="0.45">
            <circle cx="32.65" cy="22.75" r="8" opacity="1" />
            <circle cx="40.11" cy="39.73" r="10" opacity="1" />
            <circle cx="56.57" cy="16.04" r="14" opacity="1" />
            <circle cx="92.3" cy="34.93" r="4" opacity="1" />
            <circle cx="73.76" cy="11.05" r="4" opacity="0" />
            <circle cx="56.88" cy="36.43" r="6" opacity="1" />
            <circle cx="67.35" cy="33.92" r="4" opacity="1" />
            <circle cx="80.52" cy="25.59" r="10" opacity="1" />
            <circle cx="43.12" cy="26.93" r="2" opacity="1" />
            <circle cx="74.52" cy="12.21" r="4" opacity="1" />
            <circle cx="36.96" cy="8.84" r="6" opacity="1" />
        </g>
    </g>
</svg>