<?xml version="1.0" encoding="UTF-8" standalone="no"?>
<!-- Created with Inkscape (http://www.inkscape.org/) -->

<svg
   width="70.636505mm"
   height="12.5387mm"
   viewBox="0 0 70.636505 12.5387"
   version="1.1"
   id="svg4365"
   xml:space="preserve"
   sodipodi:docname="contact.svg"
   inkscape:version="1.2.2 (b0a8486, 2022-12-01)"
   xmlns:inkscape="http://www.inkscape.org/namespaces/inkscape"
   xmlns:sodipodi="http://sodipodi.sourceforge.net/DTD/sodipodi-0.dtd"
   xmlns="http://www.w3.org/2000/svg"
   xmlns:svg="http://www.w3.org/2000/svg"><sodipodi:namedview
     id="namedview4367"
     pagecolor="#505050"
     bordercolor="#ffffff"
     borderopacity="1"
     inkscape:showpageshadow="0"
     inkscape:pageopacity="0"
     inkscape:pagecheckerboard="1"
     inkscape:deskcolor="#505050"
     inkscape:document-units="mm"
     showgrid="false"
     inkscape:zoom="1.2473272"
     inkscape:cx="112.64085"
     inkscape:cy="144.70943"
     inkscape:window-width="1366"
     inkscape:window-height="715"
     inkscape:window-x="0"
     inkscape:window-y="25"
     inkscape:window-maximized="0"
     inkscape:current-layer="layer1" /><defs
     id="defs4362" /><g
     inkscape:label="Layer 1"
     inkscape:groupmode="layer"
     id="layer1"><g
       id="g6640"
       transform="translate(-68.059716,-103.12807)"><path
         id="path5654"
         style="opacity:1;fill:#ffffff;fill-opacity:1;stroke:none;stroke-width:1.36682;stop-color:#000000"
         d="m 84.398407,103.28184 v 3.74602 a 2.3987114,2.3987114 0 0 1 2.106331,2.38125 2.3987114,2.3987114 0 0 1 -2.106331,2.37867 v 3.74447 a 6.1340733,6.1340733 0 0 0 5.841505,-6.12314 6.1340733,6.1340733 0 0 0 -5.841505,-6.12727 z m -0.584461,0.004 a 6.1340733,6.1340733 0 0 0 -5.84202,6.12314 6.1340733,6.1340733 0 0 0 5.84202,6.12314 v -3.74447 a 2.3987114,2.3987114 0 0 1 -2.106848,-2.37867 2.3987114,2.3987114 0 0 1 2.106848,-2.37918 z" /><path
         id="path5654-0"
         style="opacity:1;fill:#ffffff;fill-opacity:1;stroke:none;stroke-width:1.36682;stop-color:#000000"
         d="m 74.30105,103.12807 v 3.73776 a 2.3987114,2.3987114 0 0 1 1.988509,1.22886 l 2.682524,-2.68252 a 6.1340733,6.1340733 0 0 0 -0.4408,-0.49196 6.1340733,6.1340733 0 0 0 -4.230233,-1.79214 z m -0.584461,0.0186 a 6.1340733,6.1340733 0 0 0 -3.860229,1.77353 6.1340733,6.1340733 0 0 0 0,8.67492 6.1340733,6.1340733 0 0 0 3.860229,1.77406 v -3.75791 a 2.3987114,2.3987114 0 0 1 -1.921329,-2.34922 2.3987114,2.3987114 0 0 1 1.921329,-2.34921 z m 2.494939,7.40988 a 2.3987114,2.3987114 0 0 1 -1.910478,1.10019 v 3.73052 a 6.1340733,6.1340733 0 0 0 4.230233,-1.79214 6.1340733,6.1340733 0 0 0 0.344165,-0.37465 z" /><path
         id="path5654-0-8"
         style="opacity:1;fill:#ffffff;fill-opacity:1;stroke:none;stroke-width:1.36682;stop-color:#000000"
         d="m 124.11589,103.40758 v 3.73776 a 2.3987114,2.3987114 0 0 1 1.98851,1.22886 l 2.68252,-2.68252 a 6.1340733,6.1340733 0 0 0 -0.4408,-0.49196 6.1340733,6.1340733 0 0 0 -4.23023,-1.79214 z m -0.58446,0.0186 a 6.1340733,6.1340733 0 0 0 -3.86023,1.77353 6.1340733,6.1340733 0 0 0 0,8.67492 6.1340733,6.1340733 0 0 0 3.86023,1.77406 v -3.75791 a 2.3987114,2.3987114 0 0 1 -1.92133,-2.34922 2.3987114,2.3987114 0 0 1 1.92133,-2.34921 z m 2.49494,7.40988 a 2.3987114,2.3987114 0 0 1 -1.91048,1.10019 v 3.73052 a 6.1340733,6.1340733 0 0 0 4.23023,-1.79214 6.1340733,6.1340733 0 0 0 0.34417,-0.37465 z" /><g
         id="g6267"
         style="fill:#ffffff"><rect
           style="opacity:1;fill:#ffffff;fill-opacity:1;stroke:none;stroke-width:1.3;stop-color:#000000"
           id="rect5818"
           width="9.7355413"
           height="3.4936152"
           x="100.80244"
           y="103.36443" /><rect
           style="opacity:1;fill:#ffffff;fill-opacity:1;stroke:none;stroke-width:1.3;stop-color:#000000"
           id="rect5820"
           width="3.3538706"
           height="7.8722796"
           x="103.9234"
           y="107.55676" /></g><g
         id="g6271"
         style="fill:#ffffff"><rect
           style="opacity:1;fill:#ffffff;fill-opacity:1;stroke:none;stroke-width:1.3;stop-color:#000000"
           id="rect5818-6"
           width="9.7355413"
           height="3.4936152"
           x="128.96068"
           y="103.36443" /><rect
           style="opacity:1;fill:#ffffff;fill-opacity:1;stroke:none;stroke-width:1.3;stop-color:#000000"
           id="rect5820-1"
           width="3.3538706"
           height="7.8722796"
           x="132.08165"
           y="107.55676" /></g><g
         id="g6263"
         style="fill:#ffffff"><rect
           style="opacity:1;fill:#ffffff;fill-opacity:1;stroke:none;stroke-width:1.3;stop-color:#000000"
           id="rect5837"
           width="3.3181918"
           height="12.043807"
           x="90.369522"
           y="103.31457" /><rect
           style="opacity:1;fill:#ffffff;fill-opacity:1;stroke:none;stroke-width:1.3;stop-color:#000000"
           id="rect5837-1"
           width="3.3181918"
           height="12.043807"
           x="96.944458"
           y="103.31457" /><path
           style="opacity:1;fill:#ffffff;fill-opacity:1;stroke:none;stroke-width:1.3;stop-color:#000000"
           d="m 94.043075,104.13131 2.393622,4.06033 v 6.35 l -2.393622,-4.14226 z"
           id="path5915"
           sodipodi:nodetypes="ccccc" /></g><g
         id="g6275"
         style="fill:#ffffff"><path
           id="path5917"
           style="opacity:1;fill:#ffffff;fill-opacity:1;stroke:none;stroke-width:1.3;stop-color:#000000"
           d="m 112.18902,103.434 -4.37751,11.96516 h 3.47679 l 2.15129,-6.21203 2.31458,6.21203 h 3.48041 L 115.06584,103.434 Z" /><path
           style="opacity:1;fill:#ffffff;fill-opacity:1;stroke:none;stroke-width:0.5265;stop-color:#000000"
           d="m 112.59439,113.7932 0.89489,-2.58334 0.96243,2.58334 z"
           id="path5919-1"
           sodipodi:nodetypes="cccc" /></g></g><path
       style="opacity:1;fill:#ff0000;fill-opacity:1;stroke:none;stroke-width:1.3;stop-color:#000000"
       d="M 82.986315,75.631484 V 74.844983"
       id="path6152" /></g></svg>
