<?xml version="1.0" encoding="UTF-8" standalone="no"?>
<!-- Created with Inkscape (http://www.inkscape.org/) -->

<svg
   width="175.49004mm"
   height="18.400875mm"
   viewBox="0 0 175.49004 18.400875"
   version="1.1"
   id="svg491"
   inkscape:version="1.2.2 (b0a8486, 2022-12-01)"
   sodipodi:docname="marusotoFontBase.svg"
   xmlns:inkscape="http://www.inkscape.org/namespaces/inkscape"
   xmlns:sodipodi="http://sodipodi.sourceforge.net/DTD/sodipodi-0.dtd"
   xmlns="http://www.w3.org/2000/svg"
   xmlns:svg="http://www.w3.org/2000/svg">
  <sodipodi:namedview
     id="namedview493"
     pagecolor="#505050"
     bordercolor="#ffffff"
     borderopacity="1"
     inkscape:showpageshadow="0"
     inkscape:pageopacity="0"
     inkscape:pagecheckerboard="1"
     inkscape:deskcolor="#505050"
     inkscape:document-units="mm"
     showgrid="false"
     inkscape:zoom="0.57140854"
     inkscape:cx="371.88804"
     inkscape:cy="231.88313"
     inkscape:window-width="1366"
     inkscape:window-height="715"
     inkscape:window-x="0"
     inkscape:window-y="25"
     inkscape:window-maximized="0"
     inkscape:current-layer="layer1"
     showguides="false" />
  <defs
     id="defs488" />
  <g
     inkscape:label="Layer 1"
     inkscape:groupmode="layer"
     id="layer1"
     transform="translate(15.185867)">
    <g
       id="g7033">
      <path
         d="M 49.918316,9.347177 Q 49.805427,8.985932 49.399027,8.782732 49.015204,8.556954 48.563648,8.556954 q -0.677334,0 -1.016001,0.248355 -0.338667,0.225778 -0.338667,0.609601 0,0.225778 0.225778,0.4064 0.248356,0.180623 0.632178,0.361245 0.406401,0.158045 0.92569,0.316089 0.541867,0.158045 1.151468,0.31609 1.806224,0.474134 2.799648,1.264358 1.016001,0.790223 1.016001,2.302935 0,0.857957 -0.383823,1.603023 -0.383822,0.722491 -1.083734,1.264358 -0.699912,0.541867 -1.693335,0.835378 -0.970846,0.31609 -2.190047,0.31609 -1.535291,0 -2.619025,-0.428978 -1.061157,-0.42898 -1.738491,-1.038579 -0.654756,-0.63218 -0.948268,-1.332091 -0.293511,-0.722489 -0.293511,-1.286934 0,-0.451556 0.451556,-0.451556 h 2.77707 q 0.451556,0 0.587022,0.361245 0.383823,1.016001 1.64818,1.016001 0.699912,0 1.061156,-0.225778 0.361246,-0.248356 0.361246,-0.632179 0,-0.248356 -0.203201,-0.4064 -0.2032,-0.180623 -0.564445,-0.316089 -0.338667,-0.135467 -0.812801,-0.248356 -0.474134,-0.135467 -1.016001,-0.293512 -0.993423,-0.293511 -1.761068,-0.6096 -0.767646,-0.338667 -1.309513,-0.767645 -0.519289,-0.42898 -0.812801,-0.970847 -0.270933,-0.564445 -0.270933,-1.309512 0,-0.880535 0.361245,-1.625602 0.383822,-0.745067 1.038578,-1.286935 0.677335,-0.541867 1.580447,-0.835378 0.925689,-0.316089 2.032002,-0.316089 0.857956,0 1.738491,0.180622 0.903112,0.158045 1.648179,0.587023 0.745067,0.428978 1.241779,1.174045 0.51929,0.745068 0.632179,1.919113 0.02258,0.248356 -0.112889,0.361245 -0.135467,0.09031 -0.338667,0.09031 h -2.460981 q -0.451556,0 -0.587023,-0.361243 z"
         style="font-weight:bold;font-size:22.5778px;line-height:1;font-family:Tenada;-inkscape-font-specification:'Tenada Bold';text-align:center;text-anchor:middle;fill:#ffffff;stroke-width:1.3;stop-color:#000000"
         id="path482" />
      <path
         d="m 41.199828,12.891888 c 0,0.993425 -0.158047,1.843855 -0.47414,2.551288 -0.301033,0.692386 -0.73001,1.256833 -1.28693,1.69334 -0.541867,0.4365 -1.20415,0.75259 -1.98685,0.94827 -0.76764,0.210727 -1.610543,0.31609 -2.52871,0.31609 -0.918167,0 -1.761073,-0.105363 -2.52872,-0.31609 -0.76764,-0.19568 -1.42992,-0.51177 -1.98684,-0.94827 -0.541867,-0.436507 -0.970847,-1.000953 -1.28694,-1.69334 -0.301033,-0.707433 -0.45155,-1.557863 -0.45155,-2.551288 V 6.0053539 c 0,-0.3010373 0.150517,-0.451556 0.45155,-0.451556 h 3.58987 c 0.316093,0 0.47414,0.1505187 0.47414,0.451556 v 6.7284901 c 0,0.24083 0.0301,0.48166 0.0903,0.722489 0.0602,0.24083 0.158037,0.459082 0.29351,0.654757 0.135467,0.180624 0.308563,0.331143 0.51929,0.451556 0.22578,0.120413 0.50424,0.18062 0.83538,0.18062 0.33114,0 0.6096,-0.06021 0.83538,-0.18062 0.225773,-0.120413 0.406393,-0.270932 0.54186,-0.451556 0.135467,-0.195675 0.233303,-0.413927 0.29351,-0.654757 0.0602,-0.240829 0.0903,-0.481659 0.0903,-0.722489 V 6.0053539 c 0,-0.3010373 0.15052,-0.451556 0.45156,-0.451556 h 3.58987 c 0.316087,0 0.47413,0.1505187 0.47413,0.451556 v 6.8865341 z"
         style="font-weight:bold;font-size:22.5778px;line-height:1;font-family:Tenada;-inkscape-font-specification:'Tenada Bold';text-align:center;text-anchor:middle;fill:#ffffff;stroke-width:1.3;stop-color:#000000"
         id="path480-0-0"
         sodipodi:nodetypes="ccccscccsssssssccsscsssssscc" />
      <path
         d="m 115.08118,4.9848529 v -2.050058 c 0,-0.285985 0.15804,-0.428978 0.47413,-0.428978 h 3.58989 c 0.30105,0 0.45157,0.142993 0.45157,0.428978 v 2.050058 c 0.0299,0.401856 0.11815,0.538296 0.54278,0.568962 h 1.9182 c 0.31609,0 0.47413,0.150519 0.47413,0.451556 v 3.002848 c 0,0.316089 -0.15804,0.474134 -0.47413,0.474134 h -2.08334 c -0.36539,0 -0.37765,0.08813 -0.37765,0.342015 v 3.4739371 c 0,0.436504 0.0828,0.730016 0.24835,0.880537 0.16557,0.15052 0.42146,0.22578 0.76765,0.22578 h 1.49014 c 0.12042,0 0.22578,0.03763 0.31609,0.11288 0.0903,0.07535 0.13547,0.195685 0.13547,0.361255 v 3.070562 c 0,0.30104 -0.15052,0.451557 -0.45156,0.451557 h -1.49014 c -1.02353,0 -1.88902,-0.0978 -2.59646,-0.293517 -0.69239,-0.19567 -1.25684,-0.504237 -1.69334,-0.925684 -0.43651,-0.4365 -0.75261,-1.000937 -0.94828,-1.693321 -0.19567,-0.692387 -0.29351,-1.535293 -0.29351,-2.528716 V 9.8654639 c 0.015,-0.167824 -0.0533,-0.383111 -0.44522,-0.383111 h -0.77399 c -0.3161,0 -0.47415,-0.158045 -0.47415,-0.474134 v -3.002848 c 0,-0.301037 0.15805,-0.451556 0.47415,-0.451556 h 0.74172 c 0.37333,-0.0091 0.45973,-0.174057 0.4775,-0.568962 z"
         style="font-weight:bold;font-size:22.5778px;line-height:1;font-family:Tenada;-inkscape-font-specification:'Tenada Bold';text-align:center;text-anchor:middle;fill:#ffffff;stroke-width:1.3;stop-color:#000000"
         id="path492-1-6"
         sodipodi:nodetypes="cssssccssssccsssssssssccssccsssscc" />
      <path
         d="m 71.087677,4.9848531 v -2.050058 c 0,-0.285985 0.15804,-0.428978 0.47413,-0.428978 h 3.58989 c 0.30105,0 0.45157,0.142993 0.45157,0.428978 v 2.050058 c 0.0299,0.401856 0.11815,0.538296 0.54278,0.568962 h 1.9182 c 0.31609,0 0.47413,0.150519 0.47413,0.451556 v 3.002848 c 0,0.316089 -0.15804,0.4741342 -0.47413,0.4741342 h -2.08334 c -0.36539,0 -0.37765,0.08813 -0.37765,0.342015 v 3.4739367 c 0,0.436504 0.0828,0.730016 0.24835,0.880537 0.16557,0.15052 0.42146,0.22578 0.76765,0.22578 h 1.49014 c 0.12042,0 0.22578,0.03763 0.31609,0.11288 0.0903,0.07535 0.13547,0.195685 0.13547,0.361255 v 3.070562 c 0,0.30104 -0.15052,0.451557 -0.45156,0.451557 h -1.49014 c -1.02353,0 -1.88902,-0.0978 -2.59646,-0.293517 -0.69239,-0.19567 -1.25684,-0.504237 -1.69334,-0.925684 -0.43651,-0.4365 -0.75261,-1.000937 -0.94828,-1.693321 -0.19567,-0.692387 -0.29351,-1.535293 -0.29351,-2.528716 V 9.8654643 c 0.015,-0.167824 -0.0533,-0.383111 -0.44522,-0.383111 h -0.77399 c -0.3161,0 -0.47415,-0.1580452 -0.47415,-0.4741342 v -3.002848 c 0,-0.301037 0.15805,-0.451556 0.47415,-0.451556 h 0.74172 c 0.37333,-0.0091 0.45973,-0.174057 0.4775,-0.568962 z"
         style="font-weight:bold;font-size:22.5778px;line-height:1;font-family:Tenada;-inkscape-font-specification:'Tenada Bold';text-align:center;text-anchor:middle;fill:#ffffff;stroke-width:1.3;stop-color:#000000"
         id="path492-1-6-3"
         sodipodi:nodetypes="cssssccssssccsssssssssccssccsssscc" />
      <path
         d="m 23.06199,17.917298 c 0,0.31609 -0.15052,0.483577 -0.45156,0.483577 h -3.61245 c -0.30103,0 -0.45155,-0.167487 -0.45155,-0.483577 V 6.0443279 c 0,-0.285986 0.15052,-0.428979 0.45155,-0.428979 h 3.58987 c 0.31609,0 0.47414,0.10483 0.47414,0.390816 v 0.294117 c 0,0.50336 0.40227,-0.689177 2.41188,-0.689177 2.00961,0 0.98923,-0.02205 1.62954,-0.01164 0.31605,0.0051 0.47414,0.142993 0.47414,0.428979 v 3.176773 c 0,0.316089 -0.15052,0.4741319 -0.45156,0.4741319 -0.42145,0 -1.3954,-0.03316 -2.0941,0.286208 -0.87079,0.3975062 -1.9699,1.3231512 -1.9699,2.0139102 v 5.626114 z"
         style="font-weight:bold;font-size:22.5778px;line-height:1;font-family:Tenada;-inkscape-font-specification:'Tenada Bold';text-align:center;text-anchor:middle;fill:#ffffff;stroke-width:1.3;stop-color:#000000"
         id="path496-2-7"
         sodipodi:nodetypes="ssssssssszsssscccs" />
      <path
         d="m 142.4082,17.917299 c 0,0.31609 -0.15052,0.483577 -0.45156,0.483577 h -3.61245 c -0.30103,0 -0.45155,-0.167487 -0.45155,-0.483577 V 6.0443294 c 0,-0.285986 0.15052,-0.428979 0.45155,-0.428979 h 3.58987 c 0.31609,0 0.47414,0.10483 0.47414,0.390816 v 0.294117 c 0,0.50336 0.40227,-0.689177 2.41188,-0.689177 2.00961,0 0.98923,-0.02205 1.62954,-0.01164 0.31605,0.0051 0.47414,0.142993 0.47414,0.428979 v 3.176773 c 0,0.316089 -0.15052,0.4741319 -0.45156,0.4741319 -0.42145,0 -1.3954,-0.03316 -2.0941,0.2862077 -0.87079,0.397507 -1.9699,1.323152 -1.9699,2.013911 v 5.626113 z"
         style="font-weight:bold;font-size:22.5778px;line-height:1;font-family:Tenada;-inkscape-font-specification:'Tenada Bold';text-align:center;text-anchor:middle;fill:#ffffff;stroke-width:1.3;stop-color:#000000"
         id="path496-2-7-1"
         sodipodi:nodetypes="ssssssssszsssscccs" />
      <path
         id="path498-3-0"
         style="font-weight:bold;font-size:22.5778px;line-height:1;font-family:Tenada;-inkscape-font-specification:'Tenada Bold';text-align:center;text-anchor:middle;fill:#ffffff;stroke-width:1.3;stop-color:#000000"
         d="m 154.09579,5.418231 c -0.93321,0 -1.7913,0.105534 -2.574,0.31626 -0.78269,0.195674 -1.46763,0.511759 -2.05466,0.948263 -0.57196,0.436503 -1.0233,1.008737 -1.35443,1.716174 -0.3161,0.692385 -0.47439,1.535105 -0.47439,2.528528 v 1.964221 c 0,0.993422 0.16547,1.84383 0.49661,2.551267 0.33114,0.692377 0.78299,1.256921 1.35495,1.693421 0.57197,0.436497 1.24154,0.752574 2.00918,0.948254 0.76764,0.210727 1.58782,0.316257 2.46083,0.316257 0.91816,0 1.8283,-0.0419 2.58089,-0.237577 0.75259,-0.18062 1.44838,-0.500387 1.9752,-0.846587 0.90576,-0.658694 1.74473,-1.801108 1.76802,-2.844765 v -0.1578 c 0,-0.301037 -0.11332,-0.451652 -0.41436,-0.451652 h -3.56157 c -0.16558,0 -0.27828,0.0374 -0.33848,0.112655 -0.0602,0.07526 -0.0555,0.188479 -0.0856,0.338997 -0.0452,0.3462 -0.26808,0.42902 -0.56912,0.56449 -0.30103,0.13547 -0.71497,0.20309 -1.24179,0.20309 -0.72249,0 -1.24912,-0.17316 -1.58026,-0.51935 -0.33114,-0.34619 -0.49713,-0.805208 -0.49713,-1.377178 v -0.256832 h -0.002 v -2.52491 h 0.005 c 0.0292,-0.537715 0.2232,-0.965087 0.58343,-1.282093 0.39134,-0.331141 0.88827,-0.497127 1.49034,-0.497127 0.61713,0 1.09869,0.165981 1.44488,0.497127 0.17309,0.16557 0.30484,0.361188 0.39521,0.586909 0.0904,0.225721 0.0937,0.376759 0.093,0.605853 -0.0387,0.170467 -0.35015,0.161675 -0.35015,0.161675 h -2.35824 c 0,0 -0.16118,-0.01033 -0.23446,0.06296 -0.0697,0.06973 -0.0764,0.232879 -0.0764,0.232879 v 1.807715 c 0,0 1e-4,0.127935 0.0631,0.190953 0.0582,0.05816 0.18363,0.07641 0.18363,0.07641 h 6.63405 c 0.31609,0 0.4371,-0.1583 0.4371,-0.474389 v -2.348177 c 0,-0.707438 -0.15062,-1.346776 -0.45166,-1.918746 -0.30103,-0.571971 -0.73034,-1.054042 -1.28726,-1.44539 -0.54186,-0.4064 -1.19657,-0.714799 -1.96422,-0.925525 -0.75259,-0.210726 -1.58762,-0.31626 -2.50579,-0.31626 z"
         sodipodi:nodetypes="scccsscscscccsssscsssscccccssscccsccscssssccss" />
      <path
         id="path488-5-6-7"
         style="font-weight:bold;font-size:22.5778px;line-height:1;font-family:Tenada;-inkscape-font-specification:'Tenada Bold';text-align:center;text-anchor:middle;fill:#ffffff;stroke-width:1.3;stop-color:#000000"
         d="m 129.95886,5.418677 c -0.91816,0 -1.76857,0.10553 -2.55127,0.31626 -0.76764,0.19567 -1.43004,0.51176 -1.98696,0.94826 -0.55691,0.43651 -0.99339,1.00822 -1.30948,1.71566 -0.31609,0.69239 -0.47439,1.53511 -0.47439,2.52853 v 1.96422 c 0,0.99342 0.1583,1.84434 0.47439,2.551777 0.0818,0.17923 0.17179,0.349767 0.26983,0.511727 0.33099,0.573287 0.39034,0.388207 1.15799,-0.379437 l 0.83974,-0.839737 0.83975,-0.83974 c 0.6574,-0.657401 0.82114,-0.672513 0.82114,-1.1622 v -1.64848 c 0,-0.24083 0.0302,-0.47392 0.0904,-0.6997 0.0602,-0.24083 0.16522,-0.45907 0.31574,-0.65474 0.15052,-0.19568 0.34622,-0.35398 0.58705,-0.47439 0.25588,-0.12042 0.56479,-0.18035 0.92604,-0.18035 0.36124,0 0.66196,0.0599 0.90278,0.18035 0.70769,0.408583 0.62926,0.367069 1.32951,-0.333185 l 0.75952,-0.759515 0.75951,-0.759515 c 0.88071,-0.705054 0.711,-0.900031 -0.14053,-1.299586 -0.32657,-0.151677 -0.67973,-0.274999 -1.05953,-0.369949 -0.78269,-0.21073 -1.6331,-0.31626 -2.55126,-0.31626 z m 4.39275,2.747378 -0.83069,0.830697 -0.8307,0.830698 c -0.76624,0.681662 -0.82711,0.684219 -0.7899,1.258067 v 1.64848 c 0,0.24083 -0.0374,0.4816 -0.11266,0.72243 -0.0602,0.24083 -0.16574,0.45907 -0.31626,0.65474 -0.15052,0.18062 -0.3539,0.33124 -0.60978,0.45165 -0.24083,0.12042 -0.54154,0.18035 -0.90279,0.18035 -0.36124,0 -0.67016,-0.0599 -0.92604,-0.18035 -0.71879,-0.549859 -0.54061,-0.537278 -1.36112,0.28323 l -0.75757,0.757577 -0.75758,0.757564 c -0.80969,0.809687 -0.9528,0.794117 0.17858,1.339614 0.33117,0.158037 0.68868,0.285977 1.0725,0.383817 0.7827,0.210717 1.6331,0.316257 2.55127,0.316257 0.91816,0 1.76856,-0.10554 2.55126,-0.316257 0.7827,-0.19568 1.45226,-0.511757 2.00918,-0.948254 0.55692,-0.43651 0.99339,-1.000534 1.30948,-1.692911 0.31609,-0.707437 0.47439,-1.558357 0.47439,-2.551777 v -1.96423 c 0,-0.99342 -0.1583,-1.83614 -0.47439,-2.52852 -0.69777,-1.378239 -0.45468,-1.255367 -1.47718,-0.232872 z"
         sodipodi:nodetypes="ccscssccccccscscsccccccccccccscccsccccccscscsscc" />
      <path
         id="path488-5-6-7-4"
         style="font-weight:bold;font-size:22.5778px;line-height:1;font-family:Tenada;-inkscape-font-specification:'Tenada Bold';text-align:center;text-anchor:middle;fill:#ffffff;stroke-width:1.3;stop-color:#000000"
         d="m 61.938522,5.4186762 c -0.91816,0 -1.76857,0.10553 -2.55127,0.31626 -0.76764,0.19567 -1.43004,0.51176 -1.98696,0.94826 -0.55691,0.4365104 -0.99339,1.0082204 -1.30948,1.7156604 -0.31609,0.69239 -0.47439,1.53511 -0.47439,2.5285304 v 1.96422 c 0,0.99342 0.1583,1.84434 0.47439,2.551777 0.0818,0.17923 0.17179,0.349767 0.26983,0.511727 0.33099,0.573287 0.39034,0.388207 1.15799,-0.379437 l 0.83974,-0.839737 0.83975,-0.83974 c 0.6574,-0.657401 0.82114,-0.672513 0.82114,-1.1622 v -1.64848 c 0,-0.24083 0.0302,-0.47392 0.0904,-0.6997 0.0602,-0.24083 0.16522,-0.4590704 0.31574,-0.6547404 0.15052,-0.19568 0.34622,-0.35398 0.58705,-0.47439 0.25588,-0.12042 0.56479,-0.18035 0.92604,-0.18035 0.36124,0 0.66196,0.0599 0.90278,0.18035 0.70769,0.408583 0.62926,0.367069 1.32951,-0.333185 l 0.75952,-0.759515 0.75951,-0.759515 c 0.88071,-0.7050544 0.711,-0.9000314 -0.14053,-1.2995864 -0.32657,-0.151677 -0.67973,-0.274999 -1.05953,-0.369949 -0.78269,-0.21073 -1.6331,-0.31626 -2.55126,-0.31626 z m 4.39275,2.7473784 -0.83069,0.830697 -0.8307,0.830698 c -0.76624,0.6816624 -0.82711,0.6842194 -0.7899,1.2580674 v 1.64848 c 0,0.24083 -0.0374,0.4816 -0.11266,0.72243 -0.0602,0.24083 -0.16574,0.45907 -0.31626,0.65474 -0.15052,0.18062 -0.3539,0.33124 -0.60978,0.45165 -0.24083,0.12042 -0.54154,0.18035 -0.90279,0.18035 -0.36124,0 -0.67016,-0.0599 -0.92604,-0.18035 -0.71879,-0.549859 -0.54061,-0.537278 -1.36112,0.28323 l -0.75757,0.757577 -0.75758,0.757564 c -0.80969,0.809687 -0.9528,0.794117 0.17858,1.339614 0.33117,0.158037 0.68868,0.285977 1.0725,0.383817 0.7827,0.210717 1.6331,0.316257 2.55127,0.316257 0.91816,0 1.76856,-0.10554 2.55126,-0.316257 0.7827,-0.19568 1.45226,-0.511757 2.00918,-0.948254 0.55692,-0.43651 0.99339,-1.000534 1.30948,-1.692911 0.31609,-0.707437 0.47439,-1.558357 0.47439,-2.551777 v -1.96423 c 0,-0.9934204 -0.1583,-1.8361404 -0.47439,-2.5285204 -0.69777,-1.378239 -0.45468,-1.255367 -1.47718,-0.232872 z"
         sodipodi:nodetypes="ccscssccccccscscsccccccccccccscccsccccccscscsscc" />
      <path
         id="path488-5-6-7-2"
         style="font-weight:bold;font-size:22.5778px;line-height:1;font-family:Tenada;-inkscape-font-specification:'Tenada Bold';text-align:center;text-anchor:middle;fill:#ffffff;stroke-width:1.3;stop-color:#000000"
         d="m 85.908669,5.4186774 c -0.91816,0 -1.76857,0.10553 -2.55127,0.31626 -0.76764,0.19567 -1.43004,0.51176 -1.98696,0.94826 -0.55691,0.43651 -0.99339,1.00822 -1.30948,1.71566 -0.31609,0.6923896 -0.47439,1.5351096 -0.47439,2.5285296 v 1.96422 c 0,0.99342 0.1583,1.84434 0.47439,2.551777 0.0818,0.17923 0.17179,0.349767 0.26983,0.511727 0.33099,0.573287 0.39034,0.388207 1.15799,-0.379437 l 0.83974,-0.839737 0.83975,-0.83974 c 0.6574,-0.657401 0.82114,-0.672513 0.82114,-1.1622 v -1.64848 c 0,-0.24083 0.0302,-0.47392 0.0904,-0.6997 0.0602,-0.24083 0.16522,-0.45907 0.31574,-0.65474 0.15052,-0.19568 0.34622,-0.35398 0.58705,-0.47439 0.25588,-0.12042 0.56479,-0.18035 0.92604,-0.18035 0.36124,0 0.66196,0.0599 0.90278,0.18035 0.70769,0.408583 0.62926,0.367069 1.32951,-0.3331846 l 0.75952,-0.759515 0.75951,-0.759515 c 0.88071,-0.705054 0.711,-0.900031 -0.14053,-1.299586 -0.32657,-0.151677 -0.67973,-0.274999 -1.05953,-0.369949 -0.78269,-0.21073 -1.6331,-0.31626 -2.55126,-0.31626 z m 4.39275,2.747378 -0.83069,0.830697 -0.8307,0.8306976 c -0.76624,0.681662 -0.82711,0.684219 -0.7899,1.258067 v 1.64848 c 0,0.24083 -0.0374,0.4816 -0.11266,0.72243 -0.0602,0.24083 -0.16574,0.45907 -0.31626,0.65474 -0.15052,0.18062 -0.3539,0.33124 -0.60978,0.45165 -0.24083,0.12042 -0.54154,0.18035 -0.90279,0.18035 -0.36124,0 -0.67016,-0.0599 -0.92604,-0.18035 -0.71879,-0.549859 -0.54061,-0.537278 -1.36112,0.28323 l -0.75757,0.757577 -0.75758,0.757564 c -0.80969,0.809687 -0.9528,0.794117 0.17858,1.339614 0.33117,0.158037 0.68868,0.285977 1.0725,0.383817 0.7827,0.210717 1.6331,0.316257 2.55127,0.316257 0.91816,0 1.76856,-0.10554 2.55126,-0.316257 0.7827,-0.19568 1.45226,-0.511757 2.00918,-0.948254 0.55692,-0.43651 0.99339,-1.000534 1.30948,-1.692911 0.31609,-0.707437 0.47439,-1.558357 0.47439,-2.551777 v -1.96423 c 0,-0.99342 -0.1583,-1.83614 -0.47439,-2.5285196 -0.69777,-1.378239 -0.45468,-1.255367 -1.47718,-0.232872 z"
         sodipodi:nodetypes="ccscssccccccscscsccccccccccccscccsccccccscscsscc" />
      <g
         aria-label="Marusoto Store"
         id="text422-8-3"
         style="font-weight:bold;font-size:22.5778px;line-height:1;font-family:'PT Sans';-inkscape-font-specification:'PT Sans Bold';text-align:center;text-anchor:middle;fill:#ffffff;stroke-width:1.3;stop-color:#000000"
         transform="translate(59.803081,-22.169867)">
        <path
           d="m -42.992297,40.119186 c 0,0.301037 -0.150519,0.451556 -0.451556,0.451556 h -3.58987 c -0.316089,0 -0.474134,-0.150519 -0.474134,-0.451556 V 33.02895 c 0,-2.684783 -3.667266,-1.980706 -3.740872,0.948568 0,0.88806 0.436987,1.874464 0.828336,2.280865 0.4064,0.391349 0.565077,0.587023 1.287567,0.587023 h 0.09031 c 0.301037,0 0.451556,0.158044 0.451556,0.474133 v 2.799648 c 0,0.301037 -0.150519,0.451556 -0.451556,0.451556 h -0.09031 c -1.023527,0 -1.543449,-0.120415 -2.371302,-0.361245 -0.827853,-0.24083 -1.53529,-0.609601 -2.122313,-1.106312 -0.571971,-0.496712 -1.016001,-1.113839 -1.33209,-1.85138 -0.316089,-0.752593 -0.474134,-2.175806 -0.474134,-3.184281 v -0.451556 c 0,-0.978371 0.142993,-1.843854 0.428978,-2.596447 0.285985,-0.752593 0.677334,-1.377246 1.174046,-1.873957 0.496711,-0.511763 1.083734,-0.895586 1.761068,-1.151468 0.692386,-0.255882 1.437454,-0.383823 2.235203,-0.383823 0.391348,0 0.790222,0.06021 1.196623,0.180623 0.210726,0.05268 0.353964,0.103078 0.598312,0.208844 0.256076,0.110843 0.530578,0.461777 0.530578,0.310445 v -0.135467 c 0,-0.301037 0.158045,-0.451556 0.474134,-0.451556 h 3.58987 c 0.301037,0 0.451556,0.150519 0.451556,0.451556 z"
           style="font-family:Tenada;-inkscape-font-specification:'Tenada Bold'"
           id="path476-1-3"
           sodipodi:nodetypes="cssscccsssssssccsssccscssssssc" />
      </g>
      <path
         d="m 104.58902,10.85992 c -0.73755,-0.270934 -1.42995,-0.549394 -2.07718,-0.83538 -0.64724,-0.2859797 -1.21169,-0.61712 -1.69336,-0.99342 -0.46661,-0.3913466 -0.842907,-0.8579533 -1.128894,-1.39982 -0.27094,-0.5418666 -0.40641,-1.2116766 -0.40641,-2.00943 0,-0.99342 0.158047,-1.84385 0.47414,-2.55129 0.316094,-0.70744 0.752604,-1.2869366 1.309524,-1.73849 0.55692,-0.45155333 1.21921,-0.78269334 1.98687,-0.99342 C 103.83642,0.11289 104.69438,0 105.62761,0 c 0.91817,0 1.76108,0.11289 2.52874,0.33867 0.78271,0.22577333 1.45252,0.55691337 2.00944,0.99342 0.55694,0.4365067 0.99345,0.9708467 1.30954,1.60302 0.3161,0.6171267 0.47415,1.2293138 0.47415,2.0270671 v 0.0903 c -0.0151,0.3010334 -0.16559,0.45155 -0.45157,0.45155 h -3.68023 c -0.30104,0 -0.45157,-0.1580433 -0.45157,-0.47413 v -0.11289 c 0,-0.3461933 -0.14299,-0.5369271 -0.42898,-0.7627071 -0.27093,-0.2408266 -0.67734,-0.36124 -1.21921,-0.36124 -1.08375,0 -1.62562,0.53434 -1.62562,1.60302 0,0.48166 0.22578,0.8579567 0.67734,1.12889 0.45156,0.2709334 1.17406,0.5794967 2.16749,0.92569 0.82787,0.2859867 1.56542,0.5870234 2.21266,0.90311 0.64724,0.3160934 1.18911,0.67734 1.62563,1.08374 0.45156,0.3913463 0.79023,0.85043 1.01601,1.37725 0.24084,0.526813 0.36125,1.14394 0.36125,1.85138 0,0.99342 -0.1731,1.851374 -0.5193,2.573864 -0.33114,0.707429 -0.79023,1.301973 -1.37727,1.783631 -0.58702,0.466604 -1.28695,0.812796 -2.09976,1.038574 -0.79776,0.225778 -1.66325,0.338667 -2.59647,0.338667 -0.91818,0 -1.77615,-0.112889 -2.57391,-0.338667 -0.7827,-0.225778 -1.46757,-0.556916 -2.0546,-0.993414 -0.58703,-0.436505 -1.053641,-0.963319 -1.399834,-1.580441 -0.33114,-0.632178 -0.49671,-1.251887 -0.49671,-2.049631 v -0.0903 c 0.01507,-0.30104 0.165587,-0.45156 0.45156,-0.45156 h 3.680214 c 0.30104,0 0.45155,0.158046 0.45155,0.47414 v 0.13546 c 0,0.3763 0.15805,0.574559 0.47415,0.785284 0.33115,0.210726 0.81281,0.31609 1.445,0.31609 0.64723,0 1.10632,-0.142994 1.37725,-0.42898 0.28599,-0.301038 0.42898,-0.714964 0.42898,-1.241777 0,-0.316087 -0.0903,-0.579494 -0.27093,-0.79022 -0.18062,-0.22578 -0.4064,-0.41393 -0.67734,-0.56445 -0.27093,-0.165567 -0.57197,-0.301034 -0.90312,-0.4064 -0.31609,-0.10536 -0.61713,-0.210724 -0.90312,-0.31609 z"
         style="font-weight:bold;font-size:22.5778px;line-height:1;font-family:Tenada;-inkscape-font-specification:'Tenada Bold';text-align:center;text-anchor:middle;fill:#ffffff;stroke-width:1.3;stop-color:#000000"
         id="path490-1-5-0-2"
         sodipodi:nodetypes="ccccssscscccscsssscsssccccscccscccscsssscscscccc" />
      <path
         id="path474-5-8-7-1-8-1"
         style="font-weight:bold;font-size:22.5778px;line-height:1;font-family:Tenada;-inkscape-font-specification:'Tenada Bold';text-align:center;text-anchor:middle;fill:#ffffff;stroke-width:1.3;stop-color:#000000"
         d="m -1.6228673,7.0364059e-8 c -0.2653126,0 -0.2027816,-0.0024000003641 -1.08443,0.879284999635941 l -0.8425837,0.84258503 -2.6375654,2.64997 -0.0062,-0.006 -1.7856788,1.83102 -0.8928387,0.91551 c -0.9812814,0.981281 -1.0127204,0.794766 -0.0071,1.807642 l 0.8857337,0.892133 0.8857334,0.8921319 c 0.8623744,0.909969 0.7458807,1.013401 1.4746731,0.288201 0.178286,-0.177298 0.5315466,-0.526176 1.638782,-1.6334119 0.3399706,-0.33997 0.6717927,-0.665849 0.9990204,-0.988966 0.7822507,-0.782251 0.9575764,-0.807919 0.9719524,-0.388138 l 5e-4,9.9205819 c 2.2e-5,0.286 0.150616,0.498332 0.4516526,0.498332 h 3.3863501 c 0.3160887,0 0.4746807,-0.212342 0.4743897,-0.498332 L 2.2724735,0.45135007 c 0.0092,-0.339141 -0.06029,-0.44135 -0.3896557,-0.44135 z M -14.711477,0.01000007 c -0.316089,0 -0.47439,0.14293 -0.47439,0.42892 V 17.856844 c 0,0.31609 0.150616,0.544032 0.451652,0.544032 h 3.409097 c 0.301036,0 0.451652,-0.227942 0.451652,-0.544032 0,0 0.03669,-6.078913 0.03669,-8.8194309 0.02346,-1.902159 -0.299489,-1.045179 1.9762781,-3.367643 2.3955948,-2.395595 2.4240508,-1.551088 -1.1427421,-5.11788003 -0.336853,-0.337093 -0.357171,-0.30398 -0.531751,-0.45217 -0.06492,-0.0551 -0.172909,-0.0899 -0.33848,-0.0899 z"
         sodipodi:nodetypes="ccccccccsccscccsscccccssssccccscc" />
    </g>
  </g>
</svg>
