<?xml version="1.0" encoding="UTF-8" standalone="no"?>
<!-- Created with Inkscape (http://www.inkscape.org/) -->

<svg
   width="61.498676mm"
   height="13.693758mm"
   viewBox="0 0 61.498676 13.693758"
   version="1.1"
   id="svg5"
   inkscape:version="1.2.2 (b0a8486, 2022-12-01)"
   sodipodi:docname="tententenFontBase.svg"
   xmlns:inkscape="http://www.inkscape.org/namespaces/inkscape"
   xmlns:sodipodi="http://sodipodi.sourceforge.net/DTD/sodipodi-0.dtd"
   xmlns="http://www.w3.org/2000/svg"
   xmlns:svg="http://www.w3.org/2000/svg">
  <sodipodi:namedview
     id="namedview7"
     pagecolor="#505050"
     bordercolor="#ffffff"
     borderopacity="1"
     inkscape:showpageshadow="0"
     inkscape:pageopacity="0"
     inkscape:pagecheckerboard="1"
     inkscape:deskcolor="#505050"
     inkscape:document-units="mm"
     showgrid="false"
     inkscape:zoom="0.90318624"
     inkscape:cx="144.48847"
     inkscape:cy="81.378564"
     inkscape:window-width="1366"
     inkscape:window-height="715"
     inkscape:window-x="0"
     inkscape:window-y="25"
     inkscape:window-maximized="0"
     inkscape:current-layer="layer1" />
  <defs
     id="defs2" />
  <g
     inkscape:label="Layer 1"
     inkscape:groupmode="layer"
     id="layer1">
    <g
       aria-label="t"
       id="text3987-1"
       style="font-weight:bold;font-size:22.5778px;line-height:1;font-family:Mooch;-inkscape-font-specification:'Mooch Bold';text-align:center;text-anchor:middle;stroke-width:1.3;stop-color:#000000" />
    <g
       aria-label="t"
       id="text3987-1-1"
       style="font-weight:bold;font-size:22.5778px;line-height:1;font-family:Mooch;-inkscape-font-specification:'Mooch Bold';text-align:center;text-anchor:middle;stroke-width:1.3;stop-color:#000000"
       transform="matrix(-1,0,0,1,32.367144,0)" />
    <g
       id="g4324"
       transform="translate(-4.604101,-3.894964)">
      <g
         aria-label="."
         id="text3430-3"
         style="font-weight:bold;font-size:22.5778px;line-height:1;font-family:Tenada;-inkscape-font-specification:'Tenada Bold';text-align:center;text-anchor:middle;fill:#ff0000;stroke:#000000;stroke-width:1.3;stop-color:#000000"
         transform="translate(-20.624677,-81.773195)">
        <path
           d="m 62.738494,99.361916 c -1.43369,0 -2.607735,-1.174046 -2.607735,-2.607736 0,-1.44498 1.174045,-2.619025 2.607735,-2.619025 1.44498,0 2.619025,1.174045 2.619025,2.619025 0,1.43369 -1.174045,2.607736 -2.619025,2.607736 z"
           style="font-family:Mooch;-inkscape-font-specification:'Mooch Bold';fill:#000000;stroke:none"
           id="path4046" />
      </g>
      <g
         aria-label="r"
         id="text3987"
         style="font-weight:bold;font-size:22.5778px;line-height:1;font-family:Mooch;-inkscape-font-specification:'Mooch Bold';text-align:center;text-anchor:middle;stroke-width:1.3;stop-color:#000000"
         transform="translate(13.942454,-57.469133)">
        <path
           d="m 49.3381,69.402115 h -0.01129 c 0,0 0,0 0.01129,0 z m -2.619025,5.655739 c -1.43369,0 -2.607736,-1.174046 -2.607736,-2.607736 v -2.619025 h 0.01129 c -0.01129,-0.06773 -0.01129,-0.135467 -0.01129,-0.2032 0,-0.07902 0,-0.146756 0.01129,-0.214489 h -0.01129 c 0,-2.889959 2.336802,-5.226761 5.226761,-5.226761 v 0.01129 c 0.06773,0 0.135467,-0.01129 0.2032,-0.01129 1.444979,0 2.619025,1.174045 2.619025,2.619025 0,1.43369 -1.174046,2.607736 -2.619025,2.607736 -0.06773,0 -0.135467,0 -0.2032,-0.01129 v 0.01129 h -0.01129 c 0,0.06773 0.01129,0.135466 0.01129,0.214489 0,0.06773 -0.01129,0.135466 -0.01129,0.2032 h 0.01129 v 2.619025 c 0,1.43369 -1.174046,2.607736 -2.619025,2.607736 z"
           id="path4049" />
      </g>
      <g
         aria-label="a"
         id="text3987-8"
         style="font-weight:bold;font-size:22.5778px;line-height:1;font-family:Mooch;-inkscape-font-specification:'Mooch Bold';text-align:center;text-anchor:middle;stroke-width:1.3;stop-color:#000000"
         transform="translate(-13.079006,-71.61551)">
        <path
           d="m 64.32293,89.204231 c -2.889958,0 -5.226761,-2.336802 -5.226761,-5.226761 h 0.01129 c -0.01129,-0.06773 -0.01129,-0.135466 -0.01129,-0.2032 0,-0.07902 0,-0.146756 0.01129,-0.214489 h -0.01129 c 0,-2.889958 2.336803,-5.226761 5.226761,-5.226761 v 0.01129 c 0.06773,0 0.135467,-0.01129 0.2032,-0.01129 0.07902,0 0.146756,0.01129 0.214489,0.01129 v -0.01129 c 2.889959,0 5.226761,2.348091 5.226761,5.226761 h -0.01129 c 0,0.06773 0.01129,0.135467 0.01129,0.214489 0,0.06773 -0.01129,0.135467 -0.01129,0.2032 h 0.01129 v 2.619025 c 0,1.433691 -1.174045,2.607736 -2.619025,2.607736 -1.43369,0 -2.607736,-1.174045 -2.607736,-2.607736 V 83.97747 h 0.01129 c -0.01129,-0.06773 -0.01129,-0.135466 -0.01129,-0.2032 0,-0.07902 0,-0.146756 0.01129,-0.214489 H 64.32293 Z"
           id="path4052" />
      </g>
      <g
         aria-label="e"
         id="text3987-11"
         style="font-weight:bold;font-size:22.5778px;line-height:1;font-family:Mooch;-inkscape-font-specification:'Mooch Bold';text-align:center;text-anchor:middle;stroke-width:1.3;stop-color:#000000"
         transform="translate(-8.5021231,-74.993547)">
        <path
           d="m 29.31182,92.582268 c -2.889959,0 -5.226761,-2.336803 -5.226761,-5.226761 h 0.01129 c -0.01129,-0.06773 -0.01129,-0.135467 -0.01129,-0.2032 0,-0.07902 0,-0.146756 0.01129,-0.214489 h -0.01129 c 0,-2.889959 2.336802,-5.226761 5.226761,-5.226761 v 0.01129 c 0.06773,0 0.135467,-0.01129 0.2032,-0.01129 0.07902,0 0.146756,0.01129 0.214489,0.01129 v -0.01129 c 2.889959,0 5.226761,2.348091 5.226761,5.226761 h -5.226761 v -0.01129 c -0.06773,0.01129 -0.135467,0.01129 -0.214489,0.01129 -0.06773,0 -0.135467,0 -0.2032,-0.01129 h -0.01129 c 0,0 0,0 0.01129,0 v 0.01129 h -0.01129 c 0,0.06773 0.01129,0.135466 0.01129,0.214489 0,0.06773 -0.01129,0.135466 -0.01129,0.2032 h 0.01129 v 0.01129 c 0.06773,0 0.135467,-0.01129 0.2032,-0.01129 0.07902,0 0.146756,0.01129 0.214489,0.01129 v -0.01129 h 2.607736 c 1.444979,0 2.619025,1.174046 2.619025,2.619025 0,1.43369 -1.174046,2.607736 -2.619025,2.607736 h -2.607736 v -0.01129 c -0.06773,0.01129 -0.135467,0.01129 -0.214489,0.01129 -0.06773,0 -0.135467,0 -0.2032,-0.01129 h -0.01129 c 0,0 0,0 0.01129,0 z"
           id="path4058" />
      </g>
      <g
         aria-label="u"
         transform="rotate(180,-5.1169583,-35.624124)"
         id="text4044"
         style="font-weight:bold;font-size:22.5778px;line-height:1;font-family:Mooch;-inkscape-font-specification:'Mooch Bold';text-align:center;text-anchor:middle;stroke-width:1.3;stop-color:#000000">
        <path
           d="m -43.135345,-77.965759 c -2.889958,0 -5.226761,-2.336803 -5.226761,-5.226761 h 0.01129 c -0.01129,-0.06773 -0.01129,-0.135467 -0.01129,-0.2032 0,-0.07902 0,-0.146756 0.01129,-0.214489 h -0.01129 v -2.607736 c 0,-1.44498 1.174046,-2.619025 2.607736,-2.619025 1.44498,0 2.619025,1.174045 2.619025,2.619025 v 2.607736 h -0.01129 c 0,0.06773 0.01129,0.135466 0.01129,0.214489 0,0.06773 -0.01129,0.135466 -0.01129,0.2032 h 0.01129 v 0.01129 c 0.06773,0 0.135467,-0.01129 0.2032,-0.01129 0.07902,0 0.146756,0.01129 0.225778,0.01129 -0.01129,-0.06773 -0.01129,-0.146756 -0.01129,-0.214489 0,-0.07902 0,-0.146756 0.01129,-0.214489 h -0.01129 v -2.607736 c 0,-1.44498 1.174045,-2.619025 2.607736,-2.619025 1.444979,0 2.619024,1.174045 2.619024,2.619025 -0.0562,1.912178 0,3.686728 0,5.64445 0,1.43369 -1.174045,2.607736 -2.619024,2.607736 -0.51929,0 -1.004713,-0.146756 -1.411113,-0.41769 -0.4064,0.270934 -0.891823,0.41769 -1.411113,0.41769 -0.06773,0 -0.135466,0 -0.2032,-0.01129 h -0.01129 0.01129 z"
           id="path4061"
           sodipodi:nodetypes="cccsccsssccscccscsccssccscscccc" />
      </g>
      <path
         id="path4055"
         style="font-weight:bold;font-size:22.5778px;line-height:1;font-family:Mooch;-inkscape-font-specification:'Mooch Bold';text-align:center;text-anchor:middle;stroke-width:1.3;stop-color:#000000"
         d="m 10.01824,3.894964 c -1.433688,0 -2.607592,1.173984 -2.607592,2.618961 V 6.727866 C 7.348101,6.726392 7.285611,6.717531 7.223062,6.717531 c -1.444977,0 -2.618961,1.173983 -2.618961,2.618961 0,1.433689 1.173984,2.607593 2.618961,2.607593 0.062546,0 0.125036,-4.11e-4 0.187586,-0.0093 v 0.0093 H 7.4215 c -0.01129,0.06773 -0.010852,0.135437 -0.010852,0.214457 0,1.10521 -0.0043,1.619986 0,2.645833 0,0.144223 0.023399,0.449257 0.117822,0.806153 0.167261,0.686234 0.58991,1.531327 1.607137,1.848982 0.0077,0.0025 0.015484,0.0048 0.023254,0.0072 0.010139,0.0031 0.020234,0.0063 0.030489,0.0093 0.221125,0.06537 0.469277,0.104656 0.747758,0.111104 0.026815,6.21e-4 0.053753,0.0016 0.081132,0.0016 0.0045,0 0.0089,1.6e-5 0.01344,0 0.0045,1.6e-5 0.0089,0 0.01344,0 0.02721,0 0.05397,-9.38e-4 0.08061,-0.0016 3.42e-4,-8e-6 6.93e-4,8e-6 10e-4,0 0.276309,-0.0064 0.522783,-0.04505 0.74259,-0.109554 0.01375,-0.0039 0.02728,-0.0083 0.04082,-0.0124 0.0044,-0.0013 0.0086,-0.0028 0.01292,-0.0041 1.020804,-0.316455 1.444256,-1.163188 1.611788,-1.850533 0.09442,-0.356896 0.118339,-0.66193 0.118339,-0.806153 0.0043,-1.025847 0,-1.540623 0,-2.645833 0,-0.07902 -7.9e-5,-0.146724 -0.01137,-0.214457 h 0.01137 v -0.0093 c 0.06238,0.0088 0.124692,0.0093 0.187068,0.0093 1.444978,0 2.618962,-1.173904 2.618962,-2.607593 0,-1.444978 -1.173984,-2.618961 -2.618962,-2.618961 -0.06238,0 -0.124694,0.00882 -0.187068,0.010335 v -0.21394 c 0,-1.444977 -1.174421,-2.618961 -2.60811,-2.618961 -0.0045,0 -0.0089,4.94e-4 -0.01344,5.17e-4 -0.0045,-2.3e-5 -0.0089,-5.17e-4 -0.01344,-5.17e-4 z" />
    </g>
    <text
       xml:space="preserve"
       style="font-style:normal;font-variant:normal;font-weight:bold;font-stretch:normal;font-size:22.5778px;line-height:1;font-family:Mooch;-inkscape-font-specification:'Mooch Bold';text-align:center;text-anchor:middle;fill:#ffffff;fill-opacity:1;stroke:none;stroke-width:1.3;stop-color:#000000"
       x="29.880325"
       y="43.941658"
       id="text4257"><tspan
         sodipodi:role="line"
         id="tspan4255"
         style="stroke-width:1.3"
         x="29.880325"
         y="43.941658" /></text>
  </g>
</svg>
