<?xml version="1.0" encoding="UTF-8" standalone="no"?>

<svg
	viewBox="0 0 16 16"
	version="1.1"
	xmlns="http://www.w3.org/2000/svg"
	xmlns:svg="http://www.w3.org/2000/svg"
	xmlns:xlink="http://www.w3.org/1999/xlink">

	<defs>
		<g id="ghost">
			<path
				fill="blue"
				d="M 1 14 V 7 H 2 V 4 H 3 V 3 H 4 V 2 H 6 V 1 H 10 V 2 H 12 V 3 H 13 V 4 H 14 V 7 H 15 V 14 H 14 V 15 H 12 V 14 H 11 V 13 H 10 V 14 H 9 V 15 H 7 V 14 H 6 V 13 H 5 V 14 H 4 V 15 H 2 V 14 Z"/>
			<rect fill="white" height="1" width="1" x="2" y="11"/>
			<rect fill="white" height="1" width="1" x="13" y="11"/>
			<rect fill="white" height="1" width="2" x="3" y="10"/>
			<rect fill="white" height="1" width="2" x="11" y="10"/>
			<rect fill="white" height="1" width="2" x="5" y="11"/>
			<rect fill="white" height="1" width="2" x="9" y="11"/>
			<rect fill="white" height="1" width="2" x="7" y="10"/>
			<rect fill="white" height="2" width="2" x="5" y="6"/>
			<rect fill="white" height="2" width="2" x="9" y="6"/>

		</g>
	</defs>
	<g>
		<use
			xlink:href="#ghost"/>
	</g>
</svg>
