<?xml version="1.0" encoding="UTF-8" standalone="no"?>
<svg
   xmlns:dc="http://purl.org/dc/elements/1.1/"
   xmlns:cc="http://creativecommons.org/ns#"
   xmlns:rdf="http://www.w3.org/1999/02/22-rdf-syntax-ns#"
   xmlns:svg="http://www.w3.org/2000/svg"
   xmlns="http://www.w3.org/2000/svg"
   version="1.0"
   width="1600.000000pt"
   height="900.000000pt"
   viewBox="0 0 1600.000000 900.000000">

   <g id="ohno">
      <path
         fill="none"
         stroke-width="10"
         stroke="white"
         d="m 450.5,107.3 c -8.4,3.8 -16.24507,10.44507 -21.2,15.1 -6.33753,5.61908 -6.3,5.70079 -6.3,12.5 0,5.4 0.4,7 2.7,10 3.8,5 6,6.7 12.3,9.7 3,1.4 6.3,3 7.2,3.5 1,0.5 2.9,0.9 4.2,0.9 1.4,0 2.8,0.4 3.1,1 0.3,0.5 -0.7,4.2 -2.2,8.1 -2,5.2 -4.8,9.5 -10.1,15.7 -5.16509,5.80697 -9.9034,13.08111 -14.6,18.3 -3.5,3.8 -7.4,10.1 -12.6,20.5 -6.67463,11.47475 -7.46468,13.60506 -7.8,25.9 -0.4,12.5 0.8,19.6 4.7,26.9 2.9,5.5 15.6,18.8 20.2,21.2 3.12166,3.66359 9.27433,5.34596 13.4,7.4 4.4,2.3 11.4,5.2 15.5,6.6 4.1,1.4 8.2,2.8 9,3.1 6.66561,3.33449 12.46507,3.36393 20,5.1 8.56295,1.23089 20.93135,1.83287 28.9,2.5 9.58589,5.84712 20.10828,9.92159 29,9.2 0.70224,-0.0828 1.2,3 1.5,5.5 0.5,4.3 2.5,11.2 4.6,15.5 3.7,7.8 6,14.8 5.5,16.8 -0.76451,3.02901 -0.97202,4.31037 -1.77347,7.31326 -2.9729,5.99694 -4.73057,12.47158 -5.72653,16.98674 -1,1 -5,15.2 -5.7,19.9 -0.2,1.6 -0.8,3.9 -1.3,5 -6.26036,28.64202 -6.84459,60.3604 -5.59993,87.1 3.72113,14.99966 10.89204,39.72 18,51.1 6.1,9.3 6.1,9.3 -5.9,21.3 -15.04515,15.85335 -27.66949,34.30088 -36.4,52.8 -3,5.4 -5.4,30.3 -3.1,31.7 2.84098,6.58992 8.63256,12.71969 14.5,16.8 2.2,1.4 7,3.8 10.8,5.2 4.2,1.7 6.7,3.3 6.7,4.2 0.0172,3.34347 -5.38643,7.54796 -5.9,10.9 -3.44449,5.36636 -4.97609,12.84075 -5.2,15.1 0,1.5 -0.3,8.8 -0.5,16.2 -0.4,8.7 -0.2,14.9 0.6,17.5 1.2,4.4 7.1,11.6 9.4,11.6 10.23151,4.11796 22.76818,4.44194 33.2,3 16.72372,-2.12441 36.38986,-14.92484 48,-24.7 5.8,-4.7 21.4,-20 21.4,-21 8.54591,-9.51194 11.68778,-15.81061 16.4,-26.5 0.7,-1.4 1.4,-6.3 1.5,-10.9 0.2,-7.4 -0.1,-9.1 -2.4,-13.4 -7.16389,-9.42633 -26.44884,-14.57587 -33.5,-16.2 -5.2347,-1.77586 -10.95458,-3.21551 -16.4,-3.3 -1.4,0 -2.6,-0.4 -2.6,-0.9 0,-0.5 2.2,-3.6 5,-6.8 2.7,-3.2 5,-6.1 5,-6.6 0,-1.4 3.1,-0.7 6.3,1.5 1.7,1.3 6.8,5 11.2,8.4 4.4,3.3 10.3,7.3 13,8.8 2.8,1.6 5.7,3.5 6.5,4.2 2.5,2.1 31.6,17.4 33.3,17.4 19.05592,10.40195 37.80543,12.21067 57.2,17.5 9.60532,2.10841 19.78309,4.14912 29,4.9 4.4,0.4 12.1,1.1 17,1.7 5,0.5 11.5,0.9 14.5,0.9 h 20.4 c 9.6,0 16.1,-0.4 18.4,-1.2 3.1,-1.2 3.6,-1.1 4.6,0.5 1.03991,4.32684 5.75339,6.69464 8.9,8.9 1,2.4 17,8.8 22,8.8 6.92337,2.08674 10.64413,1.64417 15.5,1.4 10.37365,0.47888 17.86189,-2.17175 26.5,-2.8 l 7.7,-0.6 0.1,13.2 c 0.1,7.3 0.2,14.9 0.4,16.8 0.1,1.9 0.5,8.8 0.9,15.2 0.5,6.4 1.3,13.2 2,15 4.73362,13.24753 15.25124,20.76232 28.1,21.8 2.1,1.8 19.1,0.3 26.6,-2.3 4.1,-1.4 8.8,-2.8 10.5,-3.2 7.59453,-3.72934 15.71793,-8.36075 22.20003,-12.5 4.8571,-2.87039 9.5731,-5.42253 13.8,-8.9 -1.1,-0.1 7.4718,-5.79155 11.6,-9 6.0384,-5.33672 11.9925,-10.33021 16.5,-14.8 9.6873,-10.28364 14.667,-18.06043 21,-29.1 2.4,-4 4.3,-7.9 4.3,-8.7 2.6134,-5.7633 6.2008,-29.25166 3.2,-33.3 -1.5583,-3.31123 -3.4551,-5.35394 -5.4,-7.4 -3.9091,-8.32295 -14.8173,-10.13956 -18.6,-11 -1.6,-1.6 -29.6,-2.2 -32.3,-0.7 -2.7153,0.68171 -13.7488,2.73458 -15.5,4.4 -3.9,3.9 -6.3,0.9 -6.5,-8.3 0.5719,-4.71399 -1.7853,-9.02853 -2.4,-12.9 -1.3201,-4.68207 -3.5024,-10.61667 -6.9,-13.8 -3.49441,-3.43971 -6.48092,-6.82223 -2.50003,-10.5 0.7,-0.6 4.50003,-8.8 6.60003,-14.3 0.9,-2.3 2.2,-4.9 2.8,-5.7 1.4,-1.7 8.5,-16.8 8.5,-18.1 0,-0.5 1.1,-3.2 2.5,-6.1 1.4,-2.8 2.5,-5.8 2.5,-6.5 4.2296,-6.11306 3.1471,-12.04336 14.9,-12.3 2.5,0 7.3,-0.4 10.6,-1 3.3,-0.5 7.8,-1 10,-1 2.2,-0.1 6.3,-0.8 9,-1.5 2.8,-0.7 8.5,-2.3 12.7,-3.4 4.3,-1.2 8.6,-2.1 9.6,-2.1 2.2,0 29.8,-13.6 30.8,-15.1 0.3,-0.6 7.2,-0.9 17.8,-0.7 17,0.3 17.2,0.3 22.5,-2.5 2.9,-1.5 5.8,-2.7 6.5,-2.7 1.8,0 11.2,-9.4 13.2,-13.2 1.3,-2.4 1.9,-6.3 2.2,-14.3 l 0.4,-11 4.2,-4 c 4.3,-4.1 7.8,-9.4 8.8,-13.2 0.7,-2.5 -1.8,-15.1 -3.3,-16.9 -0.5,-0.7 -1.1,-5.7 -1.3,-11.1 -0.3,-9.8 -1.7,-14.3 -5.8,-19.4 -2.7,-3.3 -13,-7.1 -20,-7.4 l -6.7,-0.3 -5.8,-5.9 c -7.8,-7.8 -15.3,-10.8 -25.8,-10.1 -12.8,0.8 -20.3,6.3 -31,22.3 -8.3,12.5 -12.5,21.9 -15.1,33.5 -1.3,5.7 -2.4,11.7 -2.4,13.3 0,3 -0.4,3.2 -11,6.5 -5.2,1.6 -8.2,1.9 -15.3,1.5 -9.8,-0.6 -11.5,-1.5 -12.1,-5.8 -0.2,-1.7 -0.7,-5 -1.1,-7.5 l -0.7,-4.5 11.8,-10 c 6.4,-5.5 13.3,-11.6 15.3,-13.5 6.2622,-4.65832 11.1025,-11.79534 15.6,-16.5 2.7621,-3.69118 17.2316,-22.07726 17.5,-25 4.1399,-9.86292 5.446,-19.32503 5.7,-26.5 0.5,-12.3 0.3,-14.3 -2,-22.5 -3.3,-12.1 -6.4,-18.7 -12.7,-27.1 -6.7,-8.9 -11.2,-12 -31.2,-21.6 -1,-0.4 -2.7,-0.8 -3.8,-0.8 -2.4,0 -2.5,-0.8 -0.4,-3.9 2.2,-3.1 4.4,-11.7 4.3,-17.1 -0.1,-5.3 -3.3,-11.6 -6.9,-13.5 -7.9519,-5.08767 -17.4291,-5.23472 -24.8,-7.6 -24.1454,-6.89865 -35.32204,-11.25309 -55.70003,-22.3 -3.3,-1.9 -10.9,-6 -17,-9.1 -6,-3.1 -13.7,-7.3 -17,-9.4 -3.3,-2.1 -10.3,-6.3 -15.5,-9.4 -5.2,-3.1 -12.2,-7.7 -15.5,-10.2 -3.3,-2.6 -8,-5.8 -10.5,-7.1 -5.1,-2.8 -10.1,-6.1 -14.5,-9.7 -2.6,-2.1 -14.5,-10.4 -27,-18.7 -2.2,-1.5 -10.1,-5.5 -17.5,-9 -7.4,-3.4 -14.8,-7.1 -16.5,-8 -3.4,-2.1 -21.3,-8.9 -26.5,-10.1 -14.6,-3.6 -38.1,-4.7 -61.5,-2.9 -19.1,1.4 -47.6,7.1 -60.5,12.2 -7.1,2.7 -8.8,3.9 -11.6,7.7 -3.7,5.1 -5.8,13.6 -5.2,20.2 0.6,5.5 4.7,21 6,22.6 0.6,0.7 2.6,1.5 4.5,1.9 3.3,0.6 3.8,0.3 10.4,-6.5 3.8,-3.9 7.7,-7.1 8.8,-7.1 4.1,0 4.6,2.3 4.6,21.4 0,17.7 -0.1,18.2 -2.7,23.9 -9.39992,37.5596 -53.59646,50.23277 -70,85.2 -1.3,2.9 -2.4,3.2 -3.7,0.7 -1.8,-3.4 -2.5,-8.8 -2.4,-19.6 0.3993,-4.17413 0.26581,-18.80645 2.1,-21.5 2.2,-1.4 10.4,-14.8 10.9,-17.9 2.9256,-13.14887 12.12566,-16.16188 18.7,-23.8 1.4,-1.5 2.8,-4.3 3.1,-6.3 0.3,-2 0.8,-4.5 1,-5.5 0.3,-1.3 -0.9,-3.2 -3.7,-5.8 -3.8,-3.5 -5.7,-4.6 -16,-9.2 -4,-1.8 -10.1,-9.7 -9.6,-12.5 0.5,-2.7 4.8,-2.6 7.5,0.3 2.9,3.2 6.1,3.3 9.8,0.4 l 2.17755,-2.94694 L 635.6,167.5 C 635,155.6 633.3,150 628.1,143 c -6.02174,-7.54799 -12.67924,-12.47503 -20.6,-16.8 -7.2,-4 -20.1,-8.6 -30.2,-10.8 -11.2,-2.3 -27.21846,-4.64083 -44.7,-3.02245 -16.59375,-1.2809 -55.85319,6.7341 -70.6,-6.37755 -2.6,-2.6 -3.2,-2.5 -11.5,1.3 z m 598.4,232.3 c 3.6,1 6.7,2.9 10.1,6.2 4.4,4.3 4.8,5.2 5.5,10.8 1,9 -1,12.1 -19.1,29.9 -4.6895,3.12926 -17.1874,21.193 -22.6,21.5 -1.3,0 -2.4,-1.3 -3.5,-3.8 -0.8,-2 -2.1,-4.4 -2.8,-5.2 -1.4,-1.7 -6,-10.5 -10.1,-19.5 -3.1,-6.6 -4.1,-11.4 -5,-22.1 l -0.6,-7.1 3.8,-3.2 c 2.2,-1.7 5,-3.4 6.4,-3.7 1.4,-0.3 5.2,-1.3 8.5,-2.2 5.1,-1.3 11.8,-2.2 22.1,-3 1.1,-0.1 4.4,0.5 7.3,1.4 z"/>
   </g>
</svg>
