<?xml version="1.0" encoding="UTF-8" standalone="no"?>
<!-- Created with Inkscape (http://www.inkscape.org/) -->

<svg
   width="84.935837mm"
   height="63.43309mm"
   viewBox="0 0 84.935837 63.43309"
   version="1.1"
   id="svg4365"
   xml:space="preserve"
   sodipodi:docname="videoPreview.svg"
   inkscape:version="1.2.2 (b0a8486, 2022-12-01)"
   xmlns:inkscape="http://www.inkscape.org/namespaces/inkscape"
   xmlns:sodipodi="http://sodipodi.sourceforge.net/DTD/sodipodi-0.dtd"
   xmlns="http://www.w3.org/2000/svg"
   xmlns:svg="http://www.w3.org/2000/svg"><sodipodi:namedview
     id="namedview4367"
     pagecolor="#505050"
     bordercolor="#ffffff"
     borderopacity="1"
     inkscape:showpageshadow="0"
     inkscape:pageopacity="0"
     inkscape:pagecheckerboard="1"
     inkscape:deskcolor="#505050"
     inkscape:document-units="mm"
     showgrid="false"
     inkscape:zoom="1.4050712"
     inkscape:cx="161.2018"
     inkscape:cy="102.84177"
     inkscape:window-width="1366"
     inkscape:window-height="715"
     inkscape:window-x="0"
     inkscape:window-y="25"
     inkscape:window-maximized="0"
     inkscape:current-layer="layer1" /><defs
     id="defs4362" /><g
     inkscape:label="Layer 1"
     inkscape:groupmode="layer"
     id="layer1"><path
       style="opacity:1;fill:#ff0000;fill-opacity:1;stroke:none;stroke-width:1.3;stop-color:#000000"
       d="M 82.986315,75.631484 V 74.844983"
       id="path6152" /><g
       id="g10593"
       transform="translate(-49.635494,11.468129)"><rect
         style="opacity:1;fill:#000000;stroke-width:1.3;stop-color:#000000"
         id="rect6245"
         width="84.935837"
         height="63.43309"
         x="49.635494"
         y="-11.468129" /><path
         style="opacity:1;fill:#4544b2;fill-opacity:1;stroke:#4c75d3;stroke-width:0.508786;stroke-dasharray:none;stroke-opacity:1;stop-color:#000000"
         d="M 50.051911,4.8437334 H 63.287216 Z"
         id="path6993" /><path
         style="opacity:1;fill:#4544b2;fill-opacity:1;stroke:#4c75d3;stroke-width:0.510818;stroke-dasharray:none;stroke-opacity:1;stop-color:#000000"
         d="M 78.725831,4.9782817 H 103.44226 Z"
         id="path10452" /><path
         style="opacity:1;fill:#4544b2;fill-opacity:1;stroke:#4c75d3;stroke-width:0.556122;stroke-dasharray:none;stroke-opacity:1;stop-color:#000000"
         d="m 98.73008,21.758778 8.26901,-10.010012 z"
         id="path10454" /><path
         style="opacity:1;fill:#4544b2;fill-opacity:1;stroke:#4c75d3;stroke-width:0.506849;stroke-dasharray:none;stroke-opacity:1;stop-color:#000000"
         d="M 83.329836,21.527704 H 61.623053 Z"
         id="path10456" /><path
         style="opacity:1;fill:#4544b2;fill-opacity:1;stroke:#4c75d3;stroke-width:0.50135;stroke-dasharray:none;stroke-opacity:1;stop-color:#000000"
         d="M 61.532461,21.280577 V 39.148516 Z"
         id="path10458" /><g
         id="g6249"
         transform="matrix(1.030673,0,0,1.030673,30.47224,-107.139)"
         style="fill:#b4816d;fill-opacity:1"><path
           style="opacity:1;fill:#b4816d;fill-opacity:1;stroke:none;stroke-width:1.3;stop-color:#000000"
           d="m 39.324761,103.68426 c 3.718145,0 5.331618,3.01937 2.137218,4.61421 -0.30103,0.13533 -0.265553,0.71338 -0.01198,0.80514 4.082976,0.94537 1.769073,5.26361 -2.125241,5.2607 6e-6,-3.55077 3e-6,-7.12928 3e-6,-10.68005 z"
           id="path6087"
           sodipodi:nodetypes="ccccc" /><path
           style="opacity:1;fill:#b4816d;fill-opacity:1;stroke:none;stroke-width:1.3;stop-color:#000000"
           d="m 38.718913,109.19583 v -0.96288 h -1.296662 c -0.435673,0 -0.423902,0.96288 0,0.96288 z"
           id="path6156"
           sodipodi:nodetypes="ccccc" /><path
           style="opacity:1;fill:#b4816d;fill-opacity:1;stroke:none;stroke-width:1.3;stop-color:#000000"
           d="m 38.839428,104.73923 v -1.05744 c -1.356789,-0.0981 -2.73943,0.23158 -3.466895,1.15725 -0.359059,0.57218 0.291005,1.45208 1.1975,0.61156 0.661593,-0.591 1.311851,-0.64133 2.269395,-0.71137 z"
           id="path6156-9"
           sodipodi:nodetypes="ccccc" /><path
           style="opacity:1;fill:#b4816d;fill-opacity:1;stroke:none;stroke-width:1.3;stop-color:#000000"
           d="m 38.801343,113.31455 v 1.05743 c -2.058598,0.27563 -3.851854,-0.63933 -4.35002,-2.16162 -0.122292,-1.12465 1.214562,-0.82721 1.53665,-0.10042 0.540394,0.96586 1.593705,1.13457 2.81337,1.20461 z"
           id="path6156-9-2"
           sodipodi:nodetypes="ccccc" /></g><g
         id="g6258"
         transform="matrix(0.97178742,0,0,0.97178742,29.64255,-84.332911)"
         style="fill:#475096;fill-opacity:1"><path
           style="opacity:1;fill:#475096;fill-opacity:1;stroke:none;stroke-width:1.3;stop-color:#000000"
           d="m 61.252132,114.12781 h 3.92951 v -10.52756 l -3.92951,1.05569 z"
           id="path6208"
           sodipodi:nodetypes="ccccc" /><path
           style="opacity:1;fill:#475096;fill-opacity:1;stroke:none;stroke-width:1.3;stop-color:#000000"
           d="m 60.599592,106.1773 v -1.33205 l -1.407576,0.39366 c -0.615461,0.23743 -0.364429,0.93839 0,0.93839 z"
           id="path6210"
           sodipodi:nodetypes="ccccc" /></g><g
         id="g6359"
         transform="matrix(0.87672693,0,0,0.87672693,69.869645,-91.028161)"
         style="fill:#dfc23e;fill-opacity:1"><path
           style="fill:#dfc23e;fill-opacity:1;stroke:none;stroke-width:1.45974;stop-color:#000000"
           d="m 41.973215,115.30506 h 5.384457 l 4.218728,-6.5779 c 0.841902,-2.91426 -0.218888,-4.65644 -2.238103,-5.24036 z"
           id="path6212"
           sodipodi:nodetypes="ccccc" /><path
           style="fill:#dfc23e;fill-opacity:1;stroke:none;stroke-width:1.45974;stop-color:#000000"
           d="m 48.543092,115.30506 h 2.969771 c 0.653337,-0.007 0.640749,-1.04063 0.02773,-1.03692 h -2.359159 z"
           id="path6214"
           sodipodi:nodetypes="ccccc" /><path
           style="fill:#dfc23e;fill-opacity:1;stroke:none;stroke-width:1.45974;stop-color:#000000"
           d="m 47.746151,104.43193 0.698341,-1.14727 c -4.589076,-0.81473 -6.330106,1.01275 -6.499867,5.31236 0.166276,0.44893 1.460525,0.39905 1.576923,0 0.207834,-2.95131 1.176695,-4.35463 4.224603,-4.16509 z"
           id="path6216"
           sodipodi:nodetypes="ccccc" /></g><path
         style="opacity:1;fill:none;stroke:#ff4d00;stroke-width:0.5;stroke-dasharray:none;stroke-opacity:1;stop-color:#000000"
         d="M 63.313296,9.016344 V 0.86185641 l 7.769627,-4.48579581 7.331453,4.48579581 V 9.016344 L 70.78945,13.75008 Z"
         id="path6353"
         sodipodi:nodetypes="ccccccc" /><path
         style="fill:none;stroke:#4846b9;stroke-width:0.5;stroke-dasharray:none;stroke-opacity:1;stop-color:#000000"
         d="m 83.471285,25.680672 v -8.154488 l 7.769627,-4.485795 7.331453,4.485795 v 8.154488 l -7.624926,4.733736 z"
         id="path6353-3"
         sodipodi:nodetypes="ccccccc" /><path
         style="fill:none;stroke:#323232;stroke-width:0.5;stroke-dasharray:none;stroke-opacity:1;stop-color:#000000"
         d="m 103.65351,9.2657971 v -8.154488 l 7.76962,-4.485795 7.33146,4.485795 v 8.154488 l -7.62493,4.7337359 z"
         id="path6353-8"
         sodipodi:nodetypes="ccccccc" /><path
         id="path5654"
         style="opacity:1;fill:#ffffff;fill-opacity:1;stroke:none;stroke-width:1.36682;stop-color:#000000"
         d="m 71.941826,32.752881 v 3.74602 a 2.3987114,2.3987114 0 0 1 2.106331,2.38125 2.3987114,2.3987114 0 0 1 -2.106331,2.37867 v 3.74447 a 6.1340733,6.1340733 0 0 0 5.841505,-6.12314 6.1340733,6.1340733 0 0 0 -5.841505,-6.12727 z m -0.584461,0.004 a 6.1340733,6.1340733 0 0 0 -5.84202,6.12314 6.1340733,6.1340733 0 0 0 5.84202,6.12314 v -3.74447 a 2.3987114,2.3987114 0 0 1 -2.106848,-2.37867 2.3987114,2.3987114 0 0 1 2.106848,-2.37918 z" /><path
         id="path5654-0"
         style="opacity:1;fill:#ffffff;fill-opacity:1;stroke:none;stroke-width:1.36682;stop-color:#000000"
         d="m 61.844469,32.599111 v 3.73776 a 2.3987114,2.3987114 0 0 1 1.988509,1.22886 l 2.682524,-2.68252 a 6.1340733,6.1340733 0 0 0 -0.4408,-0.49196 6.1340733,6.1340733 0 0 0 -4.230233,-1.79214 z m -0.584461,0.0186 a 6.1340733,6.1340733 0 0 0 -3.860229,1.77353 6.1340733,6.1340733 0 0 0 0,8.67492 6.1340733,6.1340733 0 0 0 3.860229,1.77406 v -3.75791 a 2.3987114,2.3987114 0 0 1 -1.921329,-2.34922 2.3987114,2.3987114 0 0 1 1.921329,-2.34921 z m 2.494939,7.40988 a 2.3987114,2.3987114 0 0 1 -1.910478,1.10019 v 3.73052 a 6.1340733,6.1340733 0 0 0 4.230233,-1.79214 6.1340733,6.1340733 0 0 0 0.344165,-0.37465 z" /><path
         id="path5654-0-8"
         style="opacity:1;fill:#ffffff;fill-opacity:1;stroke:none;stroke-width:1.36682;stop-color:#000000"
         d="m 111.6593,32.878621 v 3.73776 a 2.3987114,2.3987114 0 0 1 1.98851,1.22886 l 2.68252,-2.68252 a 6.1340733,6.1340733 0 0 0 -0.4408,-0.49196 6.1340733,6.1340733 0 0 0 -4.23023,-1.79214 z m -0.58446,0.0186 a 6.1340733,6.1340733 0 0 0 -3.86023,1.77353 6.1340733,6.1340733 0 0 0 0,8.67492 6.1340733,6.1340733 0 0 0 3.86023,1.77406 v -3.75791 a 2.3987114,2.3987114 0 0 1 -1.92133,-2.34922 2.3987114,2.3987114 0 0 1 1.92133,-2.34921 z m 2.49494,7.40988 a 2.3987114,2.3987114 0 0 1 -1.91048,1.10019 v 3.73052 a 6.1340733,6.1340733 0 0 0 4.23023,-1.79214 6.1340733,6.1340733 0 0 0 0.34417,-0.37465 z" /><g
         id="g6267"
         transform="translate(-12.456581,-70.528959)"
         style="fill:#ffffff"><rect
           style="opacity:1;fill:#ffffff;fill-opacity:1;stroke:none;stroke-width:1.3;stop-color:#000000"
           id="rect5818"
           width="9.7355413"
           height="3.4936152"
           x="100.80244"
           y="103.36443" /><rect
           style="opacity:1;fill:#ffffff;fill-opacity:1;stroke:none;stroke-width:1.3;stop-color:#000000"
           id="rect5820"
           width="3.3538706"
           height="7.8722796"
           x="103.9234"
           y="107.55676" /></g><g
         id="g6271"
         transform="translate(-12.456581,-70.528959)"
         style="fill:#ffffff"><rect
           style="opacity:1;fill:#ffffff;fill-opacity:1;stroke:none;stroke-width:1.3;stop-color:#000000"
           id="rect5818-6"
           width="9.7355413"
           height="3.4936152"
           x="128.96068"
           y="103.36443" /><rect
           style="opacity:1;fill:#ffffff;fill-opacity:1;stroke:none;stroke-width:1.3;stop-color:#000000"
           id="rect5820-1"
           width="3.3538706"
           height="7.8722796"
           x="132.08165"
           y="107.55676" /></g><g
         id="g6263"
         transform="translate(-12.456581,-70.528959)"
         style="fill:#ffffff"><rect
           style="opacity:1;fill:#ffffff;fill-opacity:1;stroke:none;stroke-width:1.3;stop-color:#000000"
           id="rect5837"
           width="3.3181918"
           height="12.043807"
           x="90.369522"
           y="103.31457" /><rect
           style="opacity:1;fill:#ffffff;fill-opacity:1;stroke:none;stroke-width:1.3;stop-color:#000000"
           id="rect5837-1"
           width="3.3181918"
           height="12.043807"
           x="96.944458"
           y="103.31457" /><path
           style="opacity:1;fill:#ffffff;fill-opacity:1;stroke:none;stroke-width:1.3;stop-color:#000000"
           d="m 94.043075,104.13131 2.393622,4.06033 v 6.35 l -2.393622,-4.14226 z"
           id="path5915"
           sodipodi:nodetypes="ccccc" /></g><g
         id="g6275"
         transform="translate(-12.456581,-70.528959)"
         style="fill:#ffffff"><path
           id="path5917"
           style="opacity:1;fill:#ffffff;fill-opacity:1;stroke:none;stroke-width:1.3;stop-color:#000000"
           d="m 112.18902,103.434 -4.37751,11.96516 h 3.47679 l 2.15129,-6.21203 2.31458,6.21203 h 3.48041 L 115.06584,103.434 Z" /><path
           style="opacity:1;fill:#ffffff;fill-opacity:1;stroke:none;stroke-width:0.5265;stop-color:#000000"
           d="m 112.59439,113.7932 0.89489,-2.58334 0.96243,2.58334 z"
           id="path5919-1"
           sodipodi:nodetypes="cccc" /></g><ellipse
         style="opacity:1;fill:#4544b2;fill-opacity:1;stroke:#4c75d3;stroke-width:0.50135;stroke-dasharray:none;stroke-opacity:1;stop-color:#000000"
         id="path10512"
         cx="61.532459"
         cy="39.148514"
         rx="0.67230988"
         ry="0.67681587" /></g><path
       id="path10747-4"
       style="opacity:0.9;fill:#ffffff;fill-opacity:1;stroke:none;stroke-width:0.499999;stroke-dasharray:none;stroke-opacity:1;stop-color:#000000"
       d="m 34.276608,40.566926 v -8.850381 h 16.382621 z m 0,-17.700762 v 8.850381 h 16.382621 z" /></g></svg>
