<?xml version="1.0" encoding="UTF-8" standalone="no"?>

<svg
  viewBox="0 0 81 9"
  version="1.1"
  xmlns="http://www.w3.org/2000/svg"
  xmlns:svg="http://www.w3.org/2000/svg"
  xmlns:xlink="http://www.w3.org/1999/xlink">
  <defs>
    <g id="ue">
      <path
        d="M 4 1 L 4 7 L 1 7 L 1 8 L 8 8 L 8 7 L 5 7 L 5 4 L 7 4 L 7 3 L 5 3 L 5 1 L 4 1 z " />
    </g>
    <g id="shita">
      <path
        d="M 5 4 L 5 8 L 4 8 L 4 2 L 1 2 L 1 1 L 8 1 L 8 2 L 5 2 L 5 3 L 6 3 L 6 4 L 7 4 L 7 5 L 6 5 L 6 4 z " />
    </g>
    <g id="hidari">
      <path
        d="M 3 8 L 3 7 L 5 7 L 5 5 L 3 5 L 3 4 L 8 4 L 8 5 L 6 5 L 6 7 L 8 7 L 8 8 z " />
      <path
        d="M 2 6 L 1 6 L 1 4 L 2 4 L 2 3 L 1 3 L 1 2 L 3 2 L 3 1 L 4 1 L 4 2 L 8 2 L 8 3 L 3 3 L 3 4 L 2 4z " />
    </g>
    <g id="migi">
      <path
        d="M 3 8 L 3 4 L 8 4 L 8 5 L 4 5 L 4 7 L 7 7 L 7 4 L 8 4 L 8 8 z " />
      <path
        d="M 2 6 L 1 6 L 1 4 L 2 4 L 2 3 L 1 3 L 1 2 L 3 2 L 3 1 L 4 1 L 4 2 L 8 2 L 8 3 L 3 3 L 3 4 L 2 4z " />
    </g>
    <g id="b">
      <path
        d="M 1 1 L 7 1 L 7 2 L 2 2 L 2 4 L 7 4 L 7 5 L 2 5 L 2 7 L 7 7 L 7 8 L 1 8 z " />
      <path
        d="M 7 2 L 8 2 L 8 4 L 7 4 z " />
      <path
        d="M 7 5 L 8 5 L 8 7 L 7 7 z " />
    </g>
    <g id="a">
      <path
        d="M 1 2 L 1 8 L 2 8 L 2 5 L 7 5 L 7 8 L 8 8 L 8 2 L 7 2 L 7 4 L 2 4 L 2 2 z " />
      <path
        d="M 2 1 L 7 1 L 7 2 L 2 2 z " />
    </g>
  </defs>
      <g>
      <use 
        fill="black"
        xlink:href="#ue"/>
      <use 
        x="8"
        fill="black"
        xlink:href="#ue"/>
      <use 
        x="16"
        fill="black"
        xlink:href="#shita"/>
      <use 
        x="24"
        fill="black"
        xlink:href="#shita"/>
      <use 
        x="32"
        fill="black"
        xlink:href="#hidari"/>
      <use 
        x="40"
        fill="black"
        xlink:href="#migi"/>
      <use 
        x="48"
        fill="black"
        xlink:href="#hidari"/>
      <use 
        x="56"
        fill="black"
        xlink:href="#migi"/>
      <use 
        x="64"
        fill="black"
        xlink:href="#b"/>
      <use 
        x="72"
        fill="black"
        xlink:href="#a"/>
	</g>
</svg>
