<?xml version="1.0" encoding="UTF-8" standalone="no"?>
<!-- Created with Inkscape (http://www.inkscape.org/) -->

<svg
   width="53.369675mm"
   height="54.429031mm"
   viewBox="0 0 53.369675 54.429031"
   version="1.1"
   id="svg5"
   inkscape:version="1.2.2 (b0a8486, 2022-12-01)"
   sodipodi:docname="leftist.svg"
   xml:space="preserve"
   xmlns:inkscape="http://www.inkscape.org/namespaces/inkscape"
   xmlns:sodipodi="http://sodipodi.sourceforge.net/DTD/sodipodi-0.dtd"
   xmlns="http://www.w3.org/2000/svg"
   xmlns:svg="http://www.w3.org/2000/svg"><sodipodi:namedview
     id="namedview7"
     pagecolor="#505050"
     bordercolor="#ffffff"
     borderopacity="1"
     inkscape:showpageshadow="0"
     inkscape:pageopacity="0"
     inkscape:pagecheckerboard="1"
     inkscape:deskcolor="#505050"
     inkscape:document-units="mm"
     showgrid="false"
     inkscape:zoom="1.8877297"
     inkscape:cx="92.43908"
     inkscape:cy="82.37408"
     inkscape:window-width="1366"
     inkscape:window-height="715"
     inkscape:window-x="0"
     inkscape:window-y="25"
     inkscape:window-maximized="0"
     inkscape:current-layer="layer1"
     showguides="false" /><defs
     id="defs2" /><g
     inkscape:label="Layer 1"
     inkscape:groupmode="layer"
     id="layer1"
     transform="translate(-29.843002,-242.67778)"><text
       xml:space="preserve"
       style="font-size:9.87777px;line-height:1;font-family:'Filosofia OT';-inkscape-font-specification:'Filosofia OT,  weight=401';text-align:center;text-anchor:middle;fill:#ffffff;fill-rule:evenodd;stroke-width:4.32144"
       x="35.745132"
       y="148.76283"
       id="text288"><tspan
         sodipodi:role="line"
         id="tspan286"
         style="stroke-width:4.32144"
         x="35.745132"
         y="148.76283" /></text><g
       id="g849"
       transform="matrix(0.93439908,0,0,1,3.6911444,0)"><g
         id="g957"><text
           xml:space="preserve"
           style="font-size:16.9333px;line-height:1;font-family:'Filosofia OT';-inkscape-font-specification:'Filosofia OT,  weight=401';text-align:center;text-anchor:middle;fill:#ffffff;fill-rule:evenodd;stroke-width:4.32144"
           x="42.578758"
           y="296.85049"
           id="text344"><tspan
             sodipodi:role="line"
             id="tspan342"
             style="font-style:normal;font-variant:normal;font-weight:normal;font-stretch:normal;font-size:16.9333px;font-family:Geneva;-inkscape-font-specification:Geneva;stroke-width:4.32144"
             x="42.578758"
             y="296.85049">Lef</tspan></text><text
           xml:space="preserve"
           style="font-size:16.9333px;line-height:1;font-family:'Filosofia OT';-inkscape-font-specification:'Filosofia OT,  weight=401';text-align:center;text-anchor:middle;fill:#ffffff;fill-rule:evenodd;stroke-width:4.32144"
           x="69.852692"
           y="296.85049"
           id="text344-1"><tspan
             sodipodi:role="line"
             id="tspan342-0"
             style="font-style:normal;font-variant:normal;font-weight:normal;font-stretch:normal;font-size:16.9333px;font-family:Geneva;-inkscape-font-specification:Geneva;stroke-width:4.32144"
             x="69.852692"
             y="296.85049">tist</tspan></text></g></g><g
       aria-label="Sinister"
       transform="matrix(0.90806281,0,0,1.1320054,1.4196189,-38.646234)"
       id="text560"
       style="font-size:20.1698px;line-height:1;font-family:Galvji;-inkscape-font-specification:Galvji;text-align:center;text-anchor:middle;fill:#ffffff;fill-rule:evenodd;stroke-width:4.41205"><g
         id="g843"><path
           d="m 45.35947,256.54584 v -0.10085 c -0.314423,-2.38623 -2.218179,-3.59529 -3.642835,-3.70276 l -0.412722,-0.023 1.97145,-2.94397 -0.449519,-0.25458 -0.448133,0.68067 c -1.980412,-0.21606 -3.694076,-0.90142 -5.239653,-1.68309 l -2.186205,1.67409 c -0.403396,0.36306 -0.746282,0.79335 -1.028659,1.29087 -0.282377,0.49752 -0.423566,1.00176 -0.423566,1.51273 -1.075723,0.51097 -1.613584,1.15641 -1.613584,1.93631 0,0.18825 0.04706,0.40339 0.141188,0.64543 0.295824,0.76645 0.894195,1.32448 1.795113,1.67409 1.295313,0.45448 2.379826,0.36258 3.714377,0.33196 l -0.750971,1.14092 c -0.255485,-0.0269 -1.363269,-0.1887 -1.6322,-0.2022 -0.268931,-0.0269 -0.551308,-0.0403 -0.847131,-0.0403 -2.003533,0 -3.0053,0.69922 -3.0053,2.09766 0,0.22859 0.04706,0.44374 0.141188,0.64543 0.09413,0.18825 0.221868,0.35634 0.383226,0.50425 0.161359,0.13447 0.34961,0.24204 0.564755,0.32271 0.215145,0.0941 0.443736,0.14791 0.685773,0.16136 l 0.605094,0.0403 c 0.551308,0.0403 1.263974,-0.0874 2.137999,-0.38322 0.161358,-0.0538 0.403396,-0.14793 0.726113,-0.28238 0.336163,-0.13447 0.753006,-0.30927 1.250527,-0.52442 l 2.501055,1.02866 c 0.954704,-0.48407 1.70771,-0.91436 2.259018,-1.29086 1.869068,-1.26397 2.803602,-2.68258 2.803602,-4.25583 z m -3.972422,-4.82849 -0.662837,1.01037 -2.787227,0.24806 -0.564755,0.0807 c -0.188251,0.0135 -0.369779,0.0202 -0.544584,0.0202 -1.3581,0 -2.03715,-0.44373 -2.03715,-1.3312 l -0.02017,-0.0605 c 0,-0.41685 0.181528,-0.74629 0.544585,-0.98832 0.336163,-0.22859 0.712666,-0.34289 1.129509,-0.34289 h 0.322716 c 0.954704,0.0941 3.212495,0.37458 4.220985,1.1007 z m 2.600876,5.5546 c 0,1.06228 -0.625264,2.138 -1.875792,3.22717 l -1.795112,-0.68577 c 0.389949,-0.21515 0.719389,-0.4034 0.98832,-0.56476 0.282377,-0.16136 0.504245,-0.30927 0.665604,-0.44373 0.591647,-0.47063 0.887471,-0.94799 0.887471,-1.43206 0,-0.25549 -0.04706,-0.48408 -0.141189,-0.68577 -0.910305,-1.37472 -2.857465,-1.03824 -3.41427,-0.97754 l 0.8184,-1.22343 c 0.336163,-0.0538 0.287882,-0.0188 0.570259,-0.0322 1.617045,-0.028 3.011307,0.96843 3.255969,2.15258 0.01345,0.0807 0.02017,0.15464 0.02017,0.22187 0.01345,0.0672 0.02017,0.13446 0.02017,0.20169 z m -4.461036,-2.71423 -0.791401,1.19881 c -0.940522,0.0523 -1.983989,0.17471 -2.896162,0.20435 -0.443736,0 -0.853855,-0.0538 -1.230358,-0.16136 -0.363057,-0.10757 -0.692497,-0.28238 -0.98832,-0.52442 -0.34961,-0.30927 -0.524415,-0.61181 -0.524415,-0.90764 0,-0.30927 0.181528,-0.63871 0.544584,-0.98832 0.403396,0.92781 1.3581,1.39172 2.864112,1.39172 0.174805,0 0.383226,-0.007 0.625264,-0.0202 0.433599,-0.0286 1.964081,-0.16098 2.396696,-0.19294 z m 1.596924,3.44034 c 0,0.24204 -0.194975,0.54459 -0.584924,0.90765 l -0.806792,0.6656 c -1.532905,-0.48407 -1.856339,-0.59272 -2.528666,-0.71374 l 0.880028,-1.31577 c 1.667371,-0.16136 1.460387,-0.20934 1.608298,-0.20934 0.524415,0 0.900918,0.0471 1.129509,0.14119 0.201698,0.12102 0.302547,0.29582 0.302547,0.52441 z m -3.99362,2.88429 c -1.344653,0.69922 -2.561565,1.04883 -3.650734,1.04883 -0.739559,0 -1.223635,-0.23532 -1.452226,-0.70595 l -0.100849,-0.32271 c 0,-0.30927 0.174805,-0.55804 0.524415,-0.74629 0.295824,-0.14791 0.611818,-0.22186 0.947981,-0.22186 0.995043,0 2.238848,0.31599 3.731413,0.94798 z"
           style="font-family:'Old London';-inkscape-font-specification:'Old London'"
           id="path538"
           sodipodi:nodetypes="cccccccccscscccccssccccccccccscccccscccscccsccccsccccccsscccccscsccsccccscscscccsc" /><path
           d="m 49.230501,250.7932 -1.553075,-1.30679 -1.492565,1.37041 1.492565,1.20628 z m 0.625264,9.68575 -0.201698,-0.18153 -0.363057,0.24204 c -0.30927,-0.16136 -0.497521,-0.3765 -0.564754,-0.64543 v -5.58704 l 0.504245,-0.56475 -1.553075,-1.29087 -1.492565,1.23036 0.584924,0.62526 v 5.26432 l -0.02017,0.36306 c -0.06723,0.87402 0.356333,1.55307 1.270697,2.03715 z"
           style="font-family:'Old London';-inkscape-font-specification:'Old London'"
           id="path540"
           sodipodi:nodetypes="cccccccccccccccccc" /><path
           d="m 62.522042,250.76524 -1.553075,-1.30679 -1.492565,1.37041 1.492565,1.20628 z m 0.625264,9.68575 -0.201698,-0.18153 -0.363057,0.24204 c -0.30927,-0.16136 -0.497521,-0.3765 -0.564754,-0.64543 v -5.58704 l 0.504245,-0.56475 -1.553075,-1.29087 -1.492565,1.23036 0.584924,0.62526 v 5.26432 l -0.02017,0.36306 c -0.06723,0.87402 0.356333,1.55307 1.270697,2.03715 z"
           style="font-size:20.1698px;line-height:1;font-family:'Old London';-inkscape-font-specification:'Old London';text-align:center;text-anchor:middle;fill:#ffffff;fill-rule:evenodd;stroke-width:4.41205"
           id="path540-4"
           sodipodi:nodetypes="cccccccccccccccccc" /><path
           d="m 58.770792,260.49912 -0.201698,-0.2017 -0.423566,0.24204 q -0.423566,-0.28238 -0.564754,-0.64543 v -5.30466 q 0.221867,-0.34289 0.443735,-0.6656 0.221868,-0.32272 0.443736,-0.6051 l -0.201698,-0.22187 -0.867302,0.68578 -1.391716,-1.29087 q -0.443735,0.4034 -1.089169,0.92781 -0.645433,0.52442 -1.492565,1.14968 0,-1.35138 -1.270697,-2.11783 l -1.653924,1.51273 0.201698,0.22187 0.322717,-0.22187 q 0.484075,0.4034 0.484075,0.92782 v 5.18363 l -0.564754,0.62527 1.532904,1.29087 1.452226,-1.29087 -0.544585,-0.68578 v -5.00211 l 1.432056,-1.04883 0.907641,0.78663 v 4.82058 q 0,0.90764 0.242038,1.43206 0.262207,0.52441 0.98832,0.98832 z"
           style="font-family:'Old London';-inkscape-font-specification:'Old London'"
           id="path542" /><path
           d="m 71.155001,251.92696 q 0,-0.74629 -0.605094,-0.74629 -0.484075,0 -0.484075,0.32272 l 0.100849,0.18153 q 0.443736,0.56475 0.443736,0.76645 0,0.28238 -0.242038,0.50424 -0.242038,0.2017 -0.524415,0.2017 l -0.524415,0.0605 q -0.887471,0 -2.581734,-0.82696 -1.129509,1.069 -2.480885,1.67409 v 3.10615 l 1.9363,1.069 -2.400206,3.42887 0.262208,0.18153 q 1.089169,-0.46391 2.037149,-0.46391 0.988321,0 2.03715,0.52442 0.423566,-0.28238 0.726113,-0.46391 0.302547,-0.2017 0.463905,-0.30255 0.625264,-0.38322 1.311037,-0.60509 v -3.71124 l -1.895961,-1.16985 1.835452,-2.48089 q 0.584924,-0.80679 0.584924,-1.25052 z m -1.95647,2.4002 -1.956471,2.58174 -1.210188,-0.62527 0.02017,-2.31953 q 1.089169,0.44374 2.01698,0.44374 0.322717,0 0.605094,-0.0202 0.282377,-0.0202 0.524415,-0.0605 z m -0.242038,3.36836 -0.02017,2.68258 q -1.129509,-0.54458 -2.178338,-0.54458 -0.766453,0 -1.311037,0.12102 l 2.238848,-2.90446 z"
           style="font-family:'Old London';-inkscape-font-specification:'Old London'"
           id="path546" /><path
           d="m 76.499998,253.76241 v -1.02866 h -2.057319 l -0.02017,-2.56157 -2.622074,3.28768 -0.02017,0.28238 h 0.705943 v 5.20381 q 0,0.88747 -0.544585,1.45222 1.109339,0.38323 2.541395,1.53291 l 1.815282,-1.57325 -0.221868,-0.28238 -0.564754,0.44374 -1.068999,-0.88747 v -5.86941 z"
           style="font-family:'Old London';-inkscape-font-specification:'Old London'"
           id="path548" /><path
           d="m 83.115684,255.05327 -2.601905,-2.6019 q -0.665603,0.46391 -1.351376,0.8673 -0.665604,0.4034 -1.371546,0.72611 v 5.38534 q 0,0.88747 -0.564755,1.4724 1.432056,0.2622 2.783432,1.00849 l 1.754773,-1.23036 q 0.302547,-0.22187 0.564754,-0.4034 0.282378,-0.18153 0.544585,-0.34288 l -0.221868,-0.24204 -1.331207,0.84713 -1.694263,-0.74628 v -2.09766 q 1.270698,-1.08917 3.489376,-2.64225 z m -1.593415,0.66561 -1.916131,1.51273 v -3.4692 z"
           style="font-family:'Old London';-inkscape-font-specification:'Old London'"
           id="path550" /><path
           d="m 90.074231,253.9036 -1.311037,-1.43206 -2.03715,1.55307 q -0.08068,-0.62526 -0.403396,-0.96815 -0.242037,-0.28237 -0.867301,-0.60509 l -1.714433,1.51273 0.221868,0.22187 0.342886,-0.22187 q 0.484075,0.4034 0.484075,0.92782 v 4.05413 q 0,1.00849 -0.544584,1.45222 1.452225,0.56476 2.581734,1.53291 l 1.835452,-1.57325 -0.242038,-0.24204 -0.584924,0.42357 -1.089169,-0.84713 v -5.22398 l 0.786622,-0.60509 1.210188,1.19001 z"
           style="font-family:'Old London';-inkscape-font-specification:'Old London'"
           id="path552" /></g></g><g
       id="g1422"
       transform="translate(5.3030328)"><path
         id="path1080"
         style="fill:#ffffff;fill-rule:evenodd;stroke-width:5.51538"
         d="m 39.856586,260.84968 c -8.031353,0 -14.612203,8.70972 -10.755726,14.99525 1.493328,2.43391 5.271126,1.20481 7.069906,-1.5196 -0.08701,1.38868 -0.172924,1.29323 -0.433325,2.70234 -2.227037,1.09666 -4.661405,2.92677 -3.665369,4.51301 0.679869,1.04635 3.359521,-0.0742 4.496834,-4.53155 1.292523,-1.09359 2.005395,-1.95532 2.695081,-3.52423 -0.06193,-0.0516 -0.277035,-0.38427 -0.338945,-0.43589 -0.671762,1.48684 -1.181221,2.34765 -2.247146,3.20847 0.537267,-2.48709 0.209409,-4.3019 0.996944,-5.05438 -0.565486,0.13019 -0.893282,0.34696 -1.383048,0.65888 -0.05112,0.28949 -0.102354,0.5076 -0.0719,0.96028 -2.32037,3.9333 -4.160393,2.93726 -5.442097,1.38438 -2.928082,-3.54761 1.944187,-10.71158 7.214018,-11.87145 4.776179,-1.39484 7.118136,3.66376 2.964214,5.27607 0.0516,0.10311 0.103404,0.20619 0.154991,0.30933 2.30637,-1.03262 3.498928,-2.94353 2.228574,-5.57177 -0.578266,-1.20474 -2.132789,-1.50269 -3.483014,-1.49914 z m -4.229335,16.85122 c 0,0 -0.738813,3.13968 -2.570022,2.89109 -0.73589,-0.15843 2.570022,-2.89109 2.570022,-2.89109 z"
         sodipodi:nodetypes="ssccccccccccsccccssccc" /><g
         id="g1239"
         style="fill:#000000"
         transform="translate(39.2148,-107.41155)"><g
           id="g1415"
           style="fill:#ffffff"
           transform="matrix(0.46329124,0,0,0.46329125,33.168554,321.72387)"><path
             style="fill:#ffffff;fill-opacity:1;stroke-width:0.264583"
             d="m -70.09158,123.76884 c 1.648098,-2.00858 3.954708,-3.08226 1.417494,-0.46004 -1.544922,1.59668 -1.664303,2.88629 -1.82485,4.58831 -0.195722,2.07491 0.222608,3.3251 1.451608,4.33815 1.690328,1.39331 3.92344,0.9441 4.970309,-0.99981 0.425773,-0.79062 0.506204,-1.49689 0.506204,-4.44507 0.03282,-2.39661 0.569886,-4.38161 -1.550475,-5.31432 -1.008899,-0.3542 -3.558656,1.83397 -3.558656,1.83397 m 0.04624,-0.97111 c 1.71377,-1.83916 5.078183,-4.04026 6.811104,-1.01452 0.463074,0.84672 0.867688,0.74399 1.823659,-0.46302 1.015519,-1.2822 1.503164,-1.39408 0.787199,-0.18061 -1.187686,2.01298 -1.640605,3.8985 -1.664049,6.92749 -0.02334,3.01563 0.318375,4.27425 1.380532,5.08481 0.579419,0.44217 1.671304,0.41866 2.290019,-0.0493 1.114584,-0.84304 0.953172,-0.33909 -0.257783,0.80482 -1.500122,1.41705 -2.343568,1.79528 -3.513887,1.57573 -1.959724,-0.46976 -2.159211,-4.20032 -3.131383,-2.84281 -1.558373,2.18364 -4.217494,3.42557 -5.944815,2.77652 v -3e-5 c -1.877534,-0.7055 -2.910417,-2.47084 -2.910417,-4.97432 0,-2.26393 0.893972,-4.02553 2.871944,-6.21484 m 13.689241,1.00903 c 0.456064,-3.58607 0.783309,-5.01229 0.783309,-5.01229 l 2.445815,-0.27308 -0.0801,2.07353 c -0.04406,1.14044 -0.441796,3.42362 -0.583109,4.84815 -0.355018,3.57886 -0.06736,5.86003 0.357456,6.41965 0.519904,0.68489 1.832965,0.58029 2.786386,-0.22196 1.267904,-1.06687 0.95645,-0.30742 -0.378603,0.92319 -1.674199,1.54322 -3.165002,2.15234 -4.165164,1.32809 -3.079068,-2.53752 -1.53524,-7.18182 -1.16599,-10.08528 z m 10.385099,10.40359 c -1.457174,-7e-5 -1.744624,-2.03005 -1.744624,-4.25275 -0.03878,-1.38144 -0.05863,-2.65257 0.08809,-3.78345 0.169849,-1.32663 0.289219,-2.90381 0.390046,-4.43178 l 0.183319,-2.77812 1.256562,-0.24274 c 0.691111,-0.13351 1.304211,-0.19304 1.362448,-0.13229 0.102516,0.10693 -0.155659,4.96371 -0.529135,9.95404 -0.152598,2.03899 -0.110437,2.54488 0.259096,3.10886 0.513895,0.78431 1.736511,0.91594 2.39463,0.25782 0.228677,-0.22868 1.62466,-1.59896 1.62466,-1.45812 -1.598708,2.61798 -3.30049,3.79352 -5.285092,3.75853 z m 5.809703,-1.58143 c -0.618366,-1.05516 -1.347947,-2.50228 -1.337607,-4.70779 -0.04035,-5.07957 3.678524,-9.53472 8.418323,-9.21793 2.012554,0.0117 3.574759,1.38697 4.197223,3.24841 l -2.350636,0.18762 -0.570113,-0.68703 c -1.152178,-1.38846 -2.031376,-1.56193 -3.222343,-1.56193 -1.583409,0 -2.69426,0.74796 -3.624924,2.44075 -0.668803,1.21649 -0.766559,1.6675 -0.761315,3.51238 0.0047,1.66805 0.128397,2.34097 0.583417,3.175 0.80054,1.46733 1.123027,1.83381 2.181495,2.47906 1.763049,1.07476 7.280292,-2.24985 9.130605,-4.10016 1.325243,-1.32524 -0.337028,1.65302 -2.74201,4.14526 -2.685226,3.3424 -7.555876,3.58647 -9.902115,1.08636 z m 12.126474,0.55668 c 1.091434,-9.48615 -0.756211,-22.12786 5.030926,-29.34246 2.395957,-2.74325 6.326083,-3.27331 7.900825,-1.06558 0.891945,1.25047 0.811906,3.6384 -0.188211,5.6151 -0.773682,1.52915 -2.625802,3.6053 -4.541764,5.09111 -1.631545,1.26526 -1.60914,1.03479 0.06524,-0.67109 0.821298,-0.83675 1.771832,-2.11773 2.112301,-2.84663 1.016753,-3.33174 1.756084,-9.30626 -3.424678,-5.76958 -1.439726,1.00842 -2.657827,3.14112 -3.1074,8.10883 -0.407046,5.62669 -0.440086,11.78445 -0.791039,16.18034 -0.340707,4.7927 -0.183978,4.3494 -1.156282,5.18587 -0.514766,0.39535 -1.875912,0.0937 -1.899918,-0.48591 z m 3.253774,6.59375 c -0.937035,-1.11175 -0.399289,-2.4437 0.345258,-3.78525 0.828712,-1.4932 5.044003,-4.60421 6.469625,-5.57092 1.249828,-3.78201 -0.181356,-13.49362 -6.360733,-7.23298 -0.753845,0.95835 -0.642464,-0.22206 0.02483,-1.24004 0.940682,-1.43502 3.62038,-3.11647 5.098938,-3.29158 5.444197,-0.64478 3.552152,13.04113 -0.374832,19.4318 -1.734683,2.81022 -4.713869,2.20296 -5.203086,1.68897 z m 3.490616,-1.9114 c 0.93798,-1.00253 2.069227,-2.24822 3.305639,-6.15286 -5.884877,2.45999 -6.430144,9.40713 -3.305639,6.15286 z m -28.938471,-6.55686 c 0,0 2.536701,-3.66297 2.604755,-4.16121 0.05704,-0.41762 0.194566,0.19819 0.194566,0.3437 0,0.14552 -2.376284,3.69471 -2.517349,3.91299 -0.201339,0.17207 -0.277261,0.14939 -0.281972,-0.0955 z"
             id="path1241"
             sodipodi:nodetypes="csssscccccsssscsccssscsccsssssssccccssssssccccccssssssssccccsssscccccccsccsscccccssccss" /><path
             style="opacity:1;fill:#ffffff;fill-rule:evenodd;stroke-width:12.9037"
             d="m -17.22281,130.88005 c 0,0 1.787081,-1.00434 3.233314,-1.88039 -0.339894,-3.31592 4.4283004,-9.3644 7.5240507,-7.36954 2.1655549,1.39544 0.3780256,4.68312 -4.0507547,6.38404 -0.44524,-0.50593 -0.488359,-0.52788 -0.488359,-0.52788 2.3806069,-1.37443 4.1789022,-4.21106 2.69079,-4.16872 -6.149903,0.17496 -4.105515,12.72357 5.2653344,10.52453 9.0526225,-2.12437 9.7880257,-6.82584 5.4560504,-11.53628 1.5460523,-0.86332 1.5256282,-0.8524 3.0460912,-1.57945 5.030308,6.38623 -1.8683896,13.09964 -6.9947571,14.1023 -4.4148072,0.8635 -11.3194169,1.9945 -12.3901299,-4.98376 -1.741604,1.04776 -2.803153,1.75163 -2.803153,1.75163 z"
             id="path1389-4"
             sodipodi:nodetypes="ccsccsscccccc" /></g></g></g></g></svg>
