<?xml version="1.0" encoding="UTF-8" standalone="no"?>
<svg
   viewBox="0 0 969.995 1143.957"
   version="1.1"
   id="svg1038"
   sodipodi:docname="pacmanBack.svg"
   width="969.995"
   height="1143.957"
   inkscape:version="1.2.2 (b0a8486, 2022-12-01)"
   xmlns:inkscape="http://www.inkscape.org/namespaces/inkscape"
   xmlns:sodipodi="http://sodipodi.sourceforge.net/DTD/sodipodi-0.dtd"
   xmlns:xlink="http://www.w3.org/1999/xlink"
   xmlns="http://www.w3.org/2000/svg"
   xmlns:svg="http://www.w3.org/2000/svg">
  <sodipodi:namedview
     id="namedview1040"
     pagecolor="#505050"
     bordercolor="#ffffff"
     borderopacity="1"
     inkscape:showpageshadow="0"
     inkscape:pageopacity="0"
     inkscape:pagecheckerboard="1"
     inkscape:deskcolor="#505050"
     showgrid="false"
     inkscape:zoom="0.31339036"
     inkscape:cx="261.6545"
     inkscape:cy="528.09537"
     inkscape:window-width="1366"
     inkscape:window-height="715"
     inkscape:window-x="0"
     inkscape:window-y="25"
     inkscape:window-maximized="0"
     inkscape:current-layer="svg1038" />
  <defs
     id="defs1032">
    <g
       id="pacman">
      <path
         fill="#ffff00"
         d="M 1,5 H 2 V 3 H 3 V 2 H 5 V 1 h 5 v 1 h 2 v 1 h 1 V 5 H 11 V 6 H 8 V 7 H 5 v 1 h 3 v 1 h 3 v 1 h 2 v 2 h -1 v 1 h -2 v 1 H 5 V 13 H 3 V 12 H 2 V 10 H 1 Z"
         id="path1029" />
    </g>
  </defs>
  <g
     id="g1036"
     transform="matrix(59.642296,0,0,59.642296,96.835576,284.06479)">
    <use
       xlink:href="#pacman"
       id="use1034" />
  </g>
  <path
     style="fill:#957a83;fill-opacity:1;stroke:#000000;stroke-width:0;stroke-linecap:butt;stroke-linejoin:miter;stroke-miterlimit:4;stroke-dasharray:none;stroke-opacity:1"
     d="m 1.1601378e-6,141.42134 c 0,0 34.5977298398622,-40.91115 74.2462168398622,-67.175127 C 62.124361,1.236934e-6 62.124361,1.236934e-6 62.124361,1.236934e-6 L 121.2183,48.992392 l 90.40864,-35.607871 -41.92131,69.447985 70.9632,54.800774 -87.63072,1.76776 -48.48734,96.21706 -15.657332,-95.20691 c 0,0 -3.283012,-6.06089 -88.8934368398622,1.01015 z"
     id="path826"
     inkscape:connector-curvature="0"
     sodipodi:nodetypes="ccccccccccc" />
</svg>
