<?xml version="1.0" encoding="UTF-8" standalone="no"?>

<svg
   xmlns:svg="http://www.w3.org/2000/svg"
   xmlns="http://www.w3.org/2000/svg"
   width="143.82024mm"
   height="37.814888mm"
   viewBox="0 0 143.82024 37.814888"
   version="1.1">
  <g
     transform="translate(-41.349488,-200.44164)">
    <path
       fill="black"
       d="m 46.642675,236.49712 c 0.07049,-4.275 0.03166,-8.60744 0.07421,-12.88504 l 0.221461,-13.85213 -1.307698,0.85917 c -1.924687,0.885 -2.558274,0.27608 -3.301974,-0.30889 -1.500559,-1.18034 -1.289391,-2.4666 0.722817,-4.40282 2.823676,-2.71704 5.149392,-4.13804 7.075557,-4.32312 1.550504,-0.14898 1.793461,-0.0703 2.481008,0.8038 0.746175,0.94861 0.76153,1.20324 0.730992,12.12209 -0.04595,16.43118 -0.330381,22.00641 -1.170011,22.93416 -1.010332,1.11637 -5.192763,1.32416 -5.526359,-0.94722 z m 37.242841,0.67428 c -2.548551,-0.73743 -4.567946,-1.97214 -6.123972,-3.74436 -1.417556,-1.6145 -1.813528,-2.60672 -1.813528,-4.54429 0,-1.99753 0.653443,-2.8314 2.218754,-2.8314 1.592812,0 2.25432,0.57095 3.237649,2.79443 0.808828,1.8289 1.366069,2.20427 4.703177,3.16814 1.064578,0.30749 4.130852,-0.80533 5.219954,-1.89443 0.718079,-0.71808 0.848244,-1.19273 0.848244,-3.09319 0,-1.23472 -0.119063,-2.24323 -0.264583,-2.24113 -0.145521,0.002 -1.043877,0.24022 -1.996345,0.52916 -0.952468,0.28895 -2.857468,0.52017 -4.233334,0.51384 -6.597004,-0.0304 -10.360815,-3.56046 -11.229078,-10.53178 -0.361774,-2.9047 -0.334215,-3.17678 0.625249,-6.17226 1.302783,-4.06733 2.006533,-5.05106 4.763548,-6.65865 2.754196,-1.60595 4.131976,-2.02124 6.714264,-2.02383 3.866395,-0.004 7.587096,1.87914 10.022716,5.0724 1.325517,1.73784 1.933342,6.20308 1.941234,14.26084 0.01065,10.88163 -0.615731,13.33137 -4.029569,15.75907 -3.370975,2.39723 -6.375312,2.86113 -10.60438,1.63744 z m 4.338729,-17.34667 c 0.950193,-0.20378 2.267695,-0.822 2.927781,-1.37382 l 1.200157,-1.0033 -0.0091,-3.82966 c -0.0057,-2.4046 -0.174184,-4.12459 -0.452765,-4.62225 -0.661505,-1.18172 -3.121089,-2.27843 -5.524994,-2.46356 -1.814322,-0.13973 -2.308575,-0.0414 -3.361764,0.66888 -1.905325,1.28495 -2.645834,3.11259 -2.645834,6.53016 0,3.39508 0.53751,4.40907 3.005819,5.67031 1.749929,0.89417 2.400628,0.95083 4.860688,0.42324 z m 39.934885,17.44655 c -2.81501,-0.74924 -6.84252,-3.71028 -7.9676,-5.85783 -1.08067,-2.06277 -0.33105,-4.26281 1.69585,-4.97715 0.99915,-0.35212 2.51787,0.40029 3.32855,1.64906 1.2325,1.89852 3.8091,3.39877 5.83723,3.39877 2.63709,0 4.03862,-0.73483 4.48797,-2.35307 0.4495,-1.61875 0.49499,-3.88368 0.0831,-4.13823 -0.1628,-0.10061 -1.11964,0.0805 -2.12632,0.40239 -3.70747,1.1856 -10.17698,-0.63642 -12.44998,-3.50632 -1.58532,-2.00163 -2.02802,-3.56024 -2.04556,-7.20176 -0.0294,-6.10651 0.8497,-8.27922 4.4386,-10.96999 2.67261,-2.00378 4.83018,-2.68062 8.00801,-2.51217 4.5167,0.23943 8.73897,3.15581 9.87302,6.81943 1.11281,3.59501 1.40679,6.86822 1.16803,13.00521 -0.28611,7.3543 -1.16237,11.86244 -2.60027,13.37769 -1.32555,1.39687 -3.76081,2.5817 -6.25338,3.04248 -2.58756,0.47834 -3.06822,0.46267 -5.47727,-0.17851 z m 5.91126,-17.80449 c 1.47638,-0.51467 2.02822,-2.0043 2.0172,-5.44516 -0.0161,-5.0376 -0.86891,-6.19055 -4.95883,-6.70431 -1.40717,-0.17677 -2.0309,-0.0639 -3.30176,0.59735 -2.3646,1.23039 -2.92947,2.23594 -3.12173,5.55713 -0.20978,3.62377 0.25013,4.81998 2.19226,5.70206 1.62922,0.73996 5.44364,0.89574 7.17286,0.29293 z m 25.71703,16.66387 c -1.09219,-1.20686 -0.75212,-3.26019 0.95262,-5.75204 0.84506,-1.23524 1.89955,-2.96026 2.34332,-3.83338 0.44376,-0.87313 1.65735,-2.83787 2.69686,-4.36609 1.03951,-1.52822 1.89002,-2.96349 1.89002,-3.18948 0,-0.226 -0.79904,-1.43626 -1.77564,-2.68947 -0.9766,-1.25322 -2.30776,-3.07232 -2.95813,-4.04246 -0.65037,-0.97014 -1.99745,-2.78006 -2.99351,-4.02204 -1.93943,-2.41826 -2.35445,-3.4076 -2.00819,-4.78722 0.25309,-1.00836 0.92187,-1.43445 2.80644,-1.788 1.32126,-0.24786 1.39977,-0.20041 3.91996,2.36928 1.41443,1.44221 2.90165,3.26897 3.30493,4.05947 0.7253,1.42169 3.34677,4.3449 3.89643,4.3449 0.39003,0 1.15823,-0.99237 1.91161,-2.46945 0.34637,-0.67909 1.53563,-2.38485 2.6428,-3.79056 1.10716,-1.40572 2.25115,-2.88458 2.54219,-3.28637 0.33061,-0.45642 1.08169,-0.8041 2.00165,-0.9266 1.2702,-0.16913 1.6034,-0.0651 2.42536,0.7568 0.84689,0.84689 0.92835,1.13172 0.73245,2.56099 -0.1697,1.2381 -0.68717,2.20408 -2.24897,4.19828 -1.1157,1.4246 -2.34605,3.20036 -2.7341,3.94615 -0.38806,0.74579 -1.22149,1.97573 -1.85208,2.73319 -1.61535,1.94035 -1.50013,2.80849 0.72857,5.4897 2.03825,2.4521 6.0037,8.25036 6.66523,9.74585 0.56083,1.26785 0.61546,1.74826 0.30128,2.64951 -0.51535,1.47835 -1.38299,2.3814 -2.28801,2.3814 -1.17579,0 -3.33062,-1.67171 -3.89455,-3.02139 -0.28288,-0.67702 -1.40827,-2.28468 -2.50086,-3.57257 -1.0926,-1.2879 -2.37091,-2.95049 -2.84068,-3.69467 -0.46978,-0.74417 -1.05059,-1.34909 -1.29069,-1.34425 -0.52543,0.0106 -3.59452,4.01414 -4.0998,5.34811 -0.54953,1.4508 -3.56386,5.1659 -4.82274,5.94394 -1.40406,0.86775 -2.69592,0.88588 -3.45377,0.0485 z"
       />
  </g>
</svg>
