<?xml version="1.0" encoding="UTF-8" standalone="no"?>
<!-- Created with Inkscape (http://www.inkscape.org/) -->

<svg
   width="30.399637mm"
   height="39.046242mm"
   viewBox="0 0 30.399637 39.046242"
   version="1.1"
   id="svg5"
   xml:space="preserve"
   inkscape:version="1.2.2 (b0a8486, 2022-12-01)"
   sodipodi:docname="arcadeAmerica.svg"
   xmlns:inkscape="http://www.inkscape.org/namespaces/inkscape"
   xmlns:sodipodi="http://sodipodi.sourceforge.net/DTD/sodipodi-0.dtd"
   xmlns:xlink="http://www.w3.org/1999/xlink"
   xmlns="http://www.w3.org/2000/svg"
   xmlns:svg="http://www.w3.org/2000/svg"><sodipodi:namedview
     id="namedview7"
     pagecolor="#505050"
     bordercolor="#ffffff"
     borderopacity="1"
     inkscape:showpageshadow="0"
     inkscape:pageopacity="0"
     inkscape:pagecheckerboard="1"
     inkscape:deskcolor="#505050"
     inkscape:document-units="mm"
     showgrid="false"
     inkscape:zoom="1.6806608"
     inkscape:cx="40.162773"
     inkscape:cy="121.67833"
     inkscape:window-width="1366"
     inkscape:window-height="715"
     inkscape:window-x="0"
     inkscape:window-y="25"
     inkscape:window-maximized="0"
     inkscape:current-layer="layer1"
     showguides="false" /><defs
     id="defs2"><linearGradient
       inkscape:collect="always"
       id="linearGradient12022"><stop
         style="stop-color:#c30000;stop-opacity:1;"
         offset="0.16587676"
         id="stop12018" /><stop
         style="stop-color:#c30000;stop-opacity:0.49803922;"
         offset="0.84360188"
         id="stop12026" /><stop
         style="stop-color:#c30000;stop-opacity:0;"
         offset="1"
         id="stop12020" /></linearGradient><linearGradient
       id="linearGradient11956"><stop
         style="stop-color:#ffffff;stop-opacity:1;"
         offset="0"
         id="stop11968" /><stop
         style="stop-color:#d7d96c;stop-opacity:1;"
         offset="0.04324645"
         id="stop11986" /><stop
         style="stop-color:#bac300;stop-opacity:1;"
         offset="0.11729859"
         id="stop11984" /><stop
         style="stop-color:#be6100;stop-opacity:0.62352941;"
         offset="0.38151658"
         id="stop11970" /><stop
         style="stop-color:#c30000;stop-opacity:0.24705882;"
         offset="0.75355452"
         id="stop11972" /></linearGradient><radialGradient
       inkscape:collect="always"
       xlink:href="#linearGradient11956"
       id="radialGradient11958"
       cx="65.042618"
       cy="60.830505"
       fx="65.042618"
       fy="60.830505"
       r="15.199819"
       gradientTransform="matrix(1.1973985,0,0,1.4423498,-33.842266,12.314992)"
       gradientUnits="userSpaceOnUse" /><radialGradient
       inkscape:collect="always"
       xlink:href="#linearGradient12022"
       id="radialGradient12024"
       cx="71.169998"
       cy="70.809944"
       fx="71.169998"
       fy="70.809944"
       r="15.199819"
       gradientTransform="matrix(2.0550736,0,0,2.2188785,-104.58851,-58.535442)"
       gradientUnits="userSpaceOnUse" /><radialGradient
       inkscape:collect="always"
       xlink:href="#linearGradient11956"
       id="radialGradient11958-2"
       cx="65.042618"
       cy="60.830505"
       fx="65.042618"
       fy="60.830505"
       r="15.199819"
       gradientTransform="matrix(1.1973985,0,0,1.4423498,22.721843,21.811211)"
       gradientUnits="userSpaceOnUse" /><filter
       id="mask-powermask-path-effect18113_inverse"
       inkscape:label="filtermask-powermask-path-effect18113"
       style="color-interpolation-filters:sRGB"
       height="100"
       width="100"
       x="-50"
       y="-50"><feColorMatrix
         id="mask-powermask-path-effect18113_primitive1"
         values="1"
         type="saturate"
         result="fbSourceGraphic" /><feColorMatrix
         id="mask-powermask-path-effect18113_primitive2"
         values="-1 0 0 0 1 0 -1 0 0 1 0 0 -1 0 1 0 0 0 1 0 "
         in="fbSourceGraphic" /></filter><clipPath
       clipPathUnits="userSpaceOnUse"
       id="clipPath18159"><rect
         style="opacity:1;fill:#000000;fill-opacity:1;fill-rule:evenodd;stroke:#ffffff;stroke-width:0"
         id="rect18161"
         width="32.281143"
         height="38.750435"
         x="82.100029"
         y="87.980492" /></clipPath><clipPath
       clipPathUnits="userSpaceOnUse"
       id="clipPath18163"><rect
         style="fill:#000000;fill-opacity:1;fill-rule:evenodd;stroke:#ffffff;stroke-width:0"
         id="rect18165"
         width="32.281143"
         height="38.750435"
         x="82.251785"
         y="87.980492" /></clipPath><clipPath
       clipPathUnits="userSpaceOnUse"
       id="clipPath18542"><rect
         style="fill:#1a1a1a;fill-opacity:1;stroke:#ffffff;stroke-width:0"
         id="rect18544"
         width="30.399637"
         height="39.046242"
         x="25.757776"
         y="79.275681" /></clipPath><clipPath
       clipPathUnits="userSpaceOnUse"
       id="clipPath18546"><rect
         style="fill:#1a1a1a;fill-opacity:1;stroke:#ffffff;stroke-width:0"
         id="rect18548"
         width="30.399637"
         height="39.046242"
         x="25.757776"
         y="79.275681" /></clipPath></defs><g
     inkscape:label="Layer 1"
     inkscape:groupmode="layer"
     id="layer1"><g
       id="g18557"
       transform="translate(-25.757776,-79.275681)"><rect
         style="fill:url(#radialGradient12024);fill-opacity:1;stroke:#ffffff;stroke-width:0"
         id="rect1186-8"
         width="62.473488"
         height="67.453102"
         x="10.434311"
         y="64.856674"
         clip-path="url(#clipPath18542)" /><rect
         style="mix-blend-mode:screen;fill:url(#radialGradient11958);fill-opacity:1;fill-rule:evenodd;stroke:#ffffff;stroke-width:0"
         id="rect1186-7"
         width="36.400478"
         height="43.846912"
         x="25.83943"
         y="78.130409"
         clip-path="url(#clipPath18546)" /><g
         id="g18492"><path
           id="rect1175"
           style="opacity:0.62;fill:#000000;stroke:#ffffff;stroke-width:0"
           d="M 32.64917,81.303048 V 116.89726 H 55.183712 V 81.303048 Z m 0.864547,0.736389 H 54.319165 V 116.16087 H 33.513717 Z" /><path
           id="rect11109"
           style="opacity:0.62;fill:#000000;fill-opacity:1;stroke:#ffffff;stroke-width:0"
           d="m 26.720333,81.52474 v 35.24591 h 5.369698 V 81.52474 Z m 0.708484,2.830835 h 4.212146 v 30.850315 h -4.212146 z" /><path
           id="rect1050-1"
           style="opacity:0.62;fill:#000000;stroke:#ffffff;stroke-width:0"
           d="M 34.495569,82.672992 V 115.52732 H 53.337313 V 82.672992 Z m 7.731828,2.533179 c 0.20859,0 0.39219,0.03169 0.550871,0.0956 0.159966,0.0627 0.28271,0.155547 0.368452,0.278537 0.08574,0.12299 0.132096,0.262522 0.138493,0.418062 l -0.357084,0.02532 c -0.0192,-0.167604 -0.08452,-0.294212 -0.195854,-0.379823 -0.110055,-0.08561 -0.273106,-0.128674 -0.489375,-0.128674 -0.225233,0 -0.389857,0.03945 -0.49351,0.117822 -0.102379,0.07717 -0.153479,0.170361 -0.153479,0.280086 0,0.09526 0.03661,0.173633 0.109554,0.235128 0.07167,0.0615 0.258157,0.125057 0.560172,0.190169 0.303296,0.06391 0.511641,0.119717 0.624252,0.167949 0.163805,0.07114 0.284704,0.161575 0.362768,0.271301 0.07806,0.10852 0.116789,0.233927 0.116789,0.376204 0,0.141077 -0.04293,0.274575 -0.128674,0.399976 -0.08574,0.124196 -0.209275,0.221003 -0.37052,0.290938 -0.159962,0.06873 -0.340135,0.103353 -0.541053,0.103353 -0.254665,0 -0.468547,-0.03497 -0.641304,-0.104903 -0.171484,-0.06993 -0.306604,-0.174845 -0.405143,-0.31471 -0.09725,-0.141075 -0.14836,-0.30024 -0.153479,-0.47749 l 0.351399,-0.02894 c 0.01664,0.132631 0.05509,0.241502 0.115239,0.327112 0.06143,0.0844 0.156247,0.153135 0.28422,0.206189 0.127973,0.05185 0.271533,0.07803 0.431498,0.07803 0.142049,0 0.267428,-0.02016 0.376205,-0.05994 0.108772,-0.03979 0.189892,-0.09405 0.242362,-0.162781 0.05375,-0.06994 0.08061,-0.1459 0.08061,-0.227893 0,-0.0832 -0.02581,-0.155546 -0.077,-0.217041 -0.05119,-0.0627 -0.13548,-0.114894 -0.253215,-0.157096 -0.0755,-0.02773 -0.242762,-0.0708 -0.501261,-0.128675 -0.258506,-0.05908 -0.439462,-0.114549 -0.54312,-0.166398 -0.13437,-0.06632 -0.234727,-0.148312 -0.301273,-0.24598 -0.06527,-0.09887 -0.09819,-0.208945 -0.09819,-0.330729 0,-0.133836 0.0403,-0.258899 0.120922,-0.374654 0.08062,-0.116961 0.198621,-0.205327 0.353467,-0.265617 0.154847,-0.06028 0.326848,-0.09043 0.516248,-0.09043 z m -4.839498,0.04496 h 0.372587 v 2.651518 h -0.372587 z m 1.02526,0 h 0.381889 l 1.477946,2.082043 v -2.082043 h 0.357084 v 2.651518 h -0.381889 l -1.477946,-2.083594 v 2.083594 h -0.357084 z m 5.472534,0 h 2.035018 v 0.313159 h -1.66243 v 0.811837 h 1.55701 v 0.311092 h -1.55701 v 0.902787 h 1.727543 v 0.312643 h -2.100131 z m 2.620512,0 h 1.247469 c 0.250827,0 0.441527,0.02412 0.572059,0.07235 0.130532,0.04703 0.235095,0.131091 0.313159,0.251665 0.07806,0.120579 0.116788,0.253559 0.116788,0.399458 0,0.188102 -0.06453,0.346923 -0.193786,0.47594 -0.129253,0.129019 -0.328907,0.211012 -0.59893,0.24598 0.09854,0.04461 0.173604,0.08837 0.224792,0.131775 0.108777,0.09405 0.211767,0.211873 0.309026,0.352951 l 0.489375,0.721403 h -0.468188 l -0.372587,-0.551389 c -0.108777,-0.159158 -0.198333,-0.280946 -0.268718,-0.365352 -0.07039,-0.08441 -0.133861,-0.143488 -0.190169,-0.17725 -0.05503,-0.03376 -0.110877,-0.05753 -0.168465,-0.0708 -0.04223,-0.0084 -0.11176,-0.0124 -0.207739,-0.0124 h -0.431499 v 1.177189 h -0.372587 z m 2.551266,0 h 2.230355 v 0.313159 h -0.93121 v 2.338359 h -0.37207 V 85.56429 h -0.927075 z m -2.178679,0.293005 v 0.877466 h 0.800468 c 0.170204,0 0.302963,-0.01654 0.398942,-0.04909 0.09598,-0.03376 0.1692,-0.08682 0.219108,-0.159164 0.04991,-0.07355 0.07493,-0.153134 0.07493,-0.238745 0,-0.125401 -0.04898,-0.228237 -0.146244,-0.309025 -0.09598,-0.08079 -0.248224,-0.12144 -0.45682,-0.12144 z m -3.222025,3.305742 c 0.259779,0 0.493692,0.05874 0.702283,0.1757 0.208595,0.116961 0.367163,0.280091 0.47594,0.489892 0.110056,0.208601 0.165364,0.445796 0.165364,0.711068 0,0.268889 -0.05794,0.509186 -0.173116,0.721403 -0.115176,0.212218 -0.27822,0.373449 -0.489376,0.483175 -0.211154,0.108518 -0.43874,0.16278 -0.683162,0.16278 -0.264905,0 -0.501961,-0.06029 -0.710551,-0.180867 -0.208596,-0.120578 -0.366376,-0.285426 -0.473873,-0.494027 -0.107498,-0.2086 -0.16123,-0.429259 -0.16123,-0.661975 0,-0.440105 0.125377,-0.784104 0.376204,-1.032495 0.250826,-0.249597 0.574801,-0.374654 0.971517,-0.374654 z m -2.852539,0.0021 c 0.281534,0 0.518074,0.06752 0.710034,0.202571 0.191959,0.135042 0.325505,0.324701 0.401009,0.569475 l -0.366386,0.08165 c -0.06527,-0.192923 -0.160088,-0.333657 -0.28422,-0.421679 -0.124134,-0.08802 -0.280068,-0.131775 -0.468189,-0.131775 -0.216273,0 -0.397747,0.04858 -0.543636,0.146244 -0.144608,0.09767 -0.246023,0.2291 -0.304891,0.394291 -0.05887,0.163981 -0.08837,0.333659 -0.08837,0.508496 0,0.225476 0.03477,0.42237 0.103869,0.591179 0.07039,0.167604 0.178915,0.293011 0.326079,0.376204 0.147168,0.0832 0.306529,0.125057 0.478007,0.125057 0.208595,0 0.385073,-0.05667 0.529683,-0.170015 0.14461,-0.113344 0.24285,-0.281809 0.294039,-0.504879 l 0.37207,0.08888 c -0.07806,0.288176 -0.218725,0.50798 -0.422196,0.659909 -0.202198,0.15072 -0.450049,0.226342 -0.743107,0.226342 -0.303291,0 -0.549844,-0.05788 -0.740524,-0.173633 -0.189399,-0.116959 -0.334263,-0.285776 -0.434082,-0.506429 -0.09854,-0.220656 -0.147794,-0.457853 -0.147794,-0.711067 0,-0.276124 0.05558,-0.51642 0.166915,-0.721403 0.112616,-0.206189 0.271977,-0.362599 0.478007,-0.468705 0.207317,-0.107315 0.43541,-0.160714 0.683679,-0.160714 z m 4.739245,0.04496 h 0.372587 v 2.651518 h -0.372587 z m 1.025261,0 h 0.381889 l 1.477946,2.082044 v -2.082044 h 0.357084 v 2.651518 h -0.381889 l -1.477946,-2.083631 v 2.083594 h -0.357084 z m -2.910417,0.255282 c -0.263623,0 -0.490422,0.08561 -0.681095,0.256832 -0.1894,0.170015 -0.284221,0.454582 -0.284221,0.853694 0,0.319527 0.09061,0.571542 0.272335,0.756027 0.183001,0.183277 0.412155,0.274918 0.687297,0.274918 0.280255,0 0.510478,-0.09285 0.690914,-0.278536 0.181721,-0.185685 0.272851,-0.449413 0.272851,-0.790649 0,-0.215835 -0.03925,-0.403938 -0.117305,-0.564307 -0.07678,-0.161606 -0.189786,-0.286152 -0.339514,-0.374174 -0.148443,-0.08923 -0.315701,-0.133842 -0.501262,-0.133842 z m -7.594885,3.821989 h 15.705501 v 0.60203 H 36.063432 Z m 0,1.157035 h 15.705501 v 0.602031 H 36.063432 Z m 4.609538,1.391646 c 0.333673,0 0.617023,0.05038 0.850594,0.151412 0.241913,0.0943 0.442502,0.225896 0.600997,0.394292 0.150153,0.168395 0.25831,0.360129 0.325044,0.575675 0.07508,0.215546 0.112655,0.444808 0.112655,0.687297 0,0.175131 -0.0041,0.323172 -0.0124,0.444417 -0.0083,0.114509 -0.0251,0.22554 -0.05013,0.333313 -0.02503,0.107773 -0.06667,0.215721 -0.125057,0.323494 -0.05839,0.107773 -0.13761,0.239368 -0.237712,0.394292 l -1.876888,2.919728 h 2.302185 v 1.03043 h -3.803902 v -0.96997 l 2.302702,-3.505738 c 0.116785,-0.175131 0.183304,-0.326772 0.199987,-0.454752 0.01668,-0.134716 0.02481,-0.299722 0.02481,-0.495061 0,-0.08757 -0.0041,-0.17855 -0.0124,-0.272851 0,-0.101037 -0.02082,-0.188423 -0.06253,-0.262516 -0.04171,-0.07409 -0.104167,-0.134751 -0.187585,-0.181901 -0.08342,-0.05389 -0.204274,-0.08113 -0.362769,-0.08113 -0.191862,0 -0.346235,0.04421 -0.463021,0.131774 -0.108443,0.08757 -0.16278,0.215561 -0.16278,0.383956 v 0.586011 h -1.276408 v -0.565857 c 0,-0.215546 0.05028,-0.417562 0.150378,-0.606164 0.100102,-0.188603 0.237717,-0.354126 0.412895,-0.495577 0.166836,-0.141452 0.366909,-0.252484 0.60048,-0.333313 0.233571,-0.08757 0.48392,-0.131259 0.750859,-0.131259 z m 2.890263,0.06046 h 3.65404 v 0.969967 h -2.528011 v 1.939933 c 0.116786,-0.0943 0.267098,-0.171405 0.450618,-0.232027 0.183521,-0.06736 0.38817,-0.101286 0.6134,-0.101286 0.433775,0 0.78416,0.107949 1.051098,0.323494 0.275281,0.20881 0.412895,0.525457 0.412895,0.949813 v 1.858796 c 0,0.24249 -0.05434,0.45839 -0.162781,0.64699 -0.100102,0.18861 -0.237716,0.35001 -0.412894,0.48473 -0.175179,0.13471 -0.379829,0.23906 -0.6134,0.31316 -0.225229,0.0674 -0.46288,0.10128 -0.713134,0.10128 -0.250255,0 -0.491966,-0.0339 -0.725538,-0.10128 -0.225229,-0.0741 -0.425818,-0.17845 -0.600996,-0.31316 -0.175179,-0.13472 -0.316854,-0.29612 -0.425297,-0.48473 -0.100102,-0.1886 -0.149862,-0.4045 -0.149862,-0.64699 v -0.30282 h 1.275891 v 0.26252 c 0,0.17513 0.0584,0.31341 0.175183,0.41444 0.125127,0.0943 0.284078,0.14108 0.47594,0.14108 0.191862,0 0.337597,-0.0468 0.437699,-0.14108 0.108444,-0.0943 0.162781,-0.22589 0.162781,-0.39429 v -1.687234 c 0,-0.141452 -0.0584,-0.262765 -0.175183,-0.363802 -0.108444,-0.101037 -0.250119,-0.151412 -0.425297,-0.151412 -0.108444,0 -0.200359,0.01696 -0.275435,0.05064 -0.07508,0.02694 -0.137535,0.06035 -0.187586,0.100769 -0.05005,0.04041 -0.08763,0.08411 -0.112654,0.131258 -0.04171,0.06062 -0.06711,0.09763 -0.07545,0.111104 h -1.126029 z m 5.358329,0.572058 h 0.49351 v 0.758093 c 0.621027,0.0614 0.94855,0.563907 0.982369,1.508435 h -0.488859 c -0.03536,-0.451011 -0.199906,-0.70127 -0.49351,-0.750858 v 3.017912 c 0.293604,-0.0496 0.458154,-0.29985 0.49351,-0.750867 h 0.488859 c -0.03689,0.909117 -0.364416,1.412147 -0.982369,1.508957 v 0.7581 h -0.49351 v -0.7581 c -0.654846,-0.1157 -0.982369,-0.61873 -0.982369,-1.508957 v -1.516187 c 0,-0.887856 0.327523,-1.390369 0.982369,-1.508435 z m 0,1.51567 c -0.325886,0.05903 -0.488859,0.309292 -0.488859,0.750858 v 1.516187 c 0,0.443927 0.162973,0.694187 0.488859,0.750857 z m -12.85813,5.955712 h 15.705501 v 0.60203 H 36.063432 Z m 0,1.15704 h 15.705501 v 0.60203 H 36.063432 Z m 14.167094,1.91925 c 0.216143,0 0.410907,0.0484 0.58446,0.14573 0.173554,0.0973 0.305856,0.23317 0.396359,0.40773 0.09157,0.17355 0.137459,0.37099 0.137459,0.59169 0,0.22372 -0.04835,0.42392 -0.144177,0.60049 -0.09583,0.17657 -0.231527,0.31023 -0.407211,0.40152 -0.175682,0.0903 -0.365074,0.13539 -0.56844,0.13539 -0.220403,0 -0.417625,-0.0501 -0.591179,-0.15038 -0.173553,-0.10031 -0.304852,-0.23726 -0.394291,-0.41083 -0.08944,-0.17355 -0.134359,-0.35724 -0.134359,-0.55087 0,-0.36617 0.10447,-0.6522 0.313159,-0.85886 0.208691,-0.20766 0.478148,-0.31161 0.80822,-0.31161 z m -7.55096,0.002 c 0.173553,0 0.326342,0.0264 0.458369,0.0796 0.133094,0.0522 0.235103,0.12919 0.306442,0.23151 0.07134,0.10233 0.109914,0.21837 0.115238,0.34778 l -0.297139,0.0212 c -0.01597,-0.13943 -0.07067,-0.24503 -0.163298,-0.31626 -0.09157,-0.0712 -0.227269,-0.10645 -0.40721,-0.10645 -0.187396,0 -0.324067,0.0325 -0.410311,0.0977 -0.08518,0.0642 -0.127641,0.14178 -0.127641,0.23307 0,0.0793 0.03026,0.14469 0.09095,0.19585 0.05963,0.0512 0.214841,0.10396 0.466121,0.15813 0.252345,0.0532 0.42565,0.0994 0.519348,0.13953 0.136288,0.0592 0.236841,0.13452 0.301791,0.22582 0.06495,0.0903 0.09767,0.19478 0.09767,0.31316 0,0.11738 -0.03615,0.22795 -0.107487,0.33228 -0.07134,0.10334 -0.173833,0.18417 -0.307991,0.24236 -0.133093,0.0572 -0.283454,0.0858 -0.450619,0.0858 -0.211884,0 -0.38956,-0.0292 -0.533301,-0.0873 -0.142675,-0.0582 -0.254945,-0.1451 -0.33693,-0.26148 -0.08092,-0.11737 -0.123382,-0.24991 -0.127641,-0.39739 l 0.291972,-0.0243 c 0.01384,0.11036 0.04608,0.2011 0.09612,0.27233 0.05111,0.0702 0.129688,0.12743 0.236162,0.17157 0.106474,0.0431 0.226575,0.0651 0.359667,0.0651 0.118187,0 0.222139,-0.017 0.312643,-0.0501 0.0905,-0.0331 0.157883,-0.0782 0.201538,-0.1354 0.04472,-0.0582 0.06718,-0.12143 0.06718,-0.18965 0,-0.0692 -0.02149,-0.12919 -0.06408,-0.18035 -0.04259,-0.0522 -0.112884,-0.0956 -0.21084,-0.13074 -0.06282,-0.0231 -0.20195,-0.0588 -0.417029,-0.10697 -0.215079,-0.0491 -0.365408,-0.0953 -0.451652,-0.13849 -0.111799,-0.0552 -0.195781,-0.12338 -0.251148,-0.20464 -0.0543,-0.0823 -0.08113,-0.17413 -0.08113,-0.27544 0,-0.11136 0.03369,-0.2153 0.100769,-0.31161 0.06708,-0.0973 0.164689,-0.17101 0.293523,-0.22117 0.128834,-0.0502 0.272366,-0.0749 0.429948,-0.0749 z m -5.352129,0.0372 h 0.883151 c 0.155452,0 0.274065,0.007 0.35605,0.0212 0.114993,0.0181 0.211662,0.0527 0.289388,0.10387 0.07773,0.0502 0.139703,0.12109 0.186552,0.21239 0.04791,0.0913 0.07183,0.19142 0.07183,0.30076 0,0.18761 -0.06295,0.34655 -0.189652,0.47697 -0.126705,0.12941 -0.355643,0.19431 -0.68678,0.19431 h -0.60048 v 0.89658 h -0.310059 z m 2.18643,0 h 0.310059 v 1.27331 c 0,0.19161 0.01854,0.33298 0.05581,0.42427 0.03833,0.0903 0.103253,0.16013 0.194821,0.20929 0.09263,0.0492 0.205387,0.0739 0.33848,0.0739 0.227856,0 0.390417,-0.0489 0.487309,-0.14624 0.09689,-0.0973 0.145211,-0.28432 0.145211,-0.56121 v -1.27331 h 0.309542 v 1.27486 c 0,0.22171 -0.02634,0.39772 -0.07958,0.52814 -0.05324,0.13042 -0.14939,0.23658 -0.288871,0.31884 -0.138416,0.0813 -0.320495,0.12196 -0.54622,0.12196 -0.219338,0 -0.398986,-0.0352 -0.538469,-0.10646 -0.139481,-0.0712 -0.239064,-0.17408 -0.298689,-0.30851 -0.05963,-0.13544 -0.0894,-0.32022 -0.0894,-0.55397 z m 4.54856,0 h 0.310058 v 0.90589 h 1.21698 v -0.90589 h 0.309542 v 2.20607 h -0.309542 v -1.03973 h -1.21698 v 1.03973 h -0.310058 z m 3.026689,0 h 1.8557 v 0.26045 h -0.77463 v 1.94563 h -0.309541 v -1.94563 h -0.771529 z m 3.14296,0.21239 c -0.219337,0 -0.408243,0.0715 -0.56689,0.21395 -0.157582,0.14145 -0.236162,0.37797 -0.236162,0.71003 0,0.26586 0.07515,0.4754 0.226343,0.6289 0.152259,0.15249 0.343138,0.22893 0.572058,0.22893 0.23318,0 0.425029,-0.0775 0.575159,-0.23202 0.151194,-0.1545 0.226343,-0.37342 0.226343,-0.65732 0,-0.17958 -0.0322,-0.33631 -0.09715,-0.46974 -0.06388,-0.13443 -0.158095,-0.23785 -0.28267,-0.31109 -0.123511,-0.0742 -0.262641,-0.11163 -0.417029,-0.11163 z m -12.59458,0.0481 v 0.78859 h 0.605131 c 0.200173,0 0.342216,-0.0352 0.426331,-0.10542 0.08412,-0.0702 0.12609,-0.1687 0.12609,-0.2961 0,-0.0923 -0.02489,-0.17147 -0.07493,-0.23669 -0.04898,-0.0662 -0.113899,-0.10968 -0.19482,-0.13074 -0.05217,-0.013 -0.148841,-0.0196 -0.289388,-0.0196 z m 9.916191,3.66026 c 0.234244,0 0.431466,0.0561 0.591178,0.16845 0.159712,0.11236 0.271009,0.27022 0.33383,0.47388 l -0.305408,0.0677 c -0.0543,-0.16051 -0.132881,-0.27714 -0.236161,-0.35037 -0.103281,-0.0732 -0.233123,-0.11007 -0.389641,-0.11007 -0.179941,0 -0.330788,0.0407 -0.452168,0.12196 -0.120317,0.0813 -0.204753,0.1907 -0.253732,0.32814 -0.04898,0.13644 -0.07338,0.27725 -0.07338,0.42272 0,0.1876 0.0288,0.35151 0.0863,0.49196 0.05856,0.13945 0.148856,0.24394 0.271302,0.31316 0.122446,0.0692 0.254716,0.10387 0.397392,0.10387 0.173553,0 0.320484,-0.0473 0.440799,-0.1416 0.120317,-0.0943 0.20184,-0.23401 0.24443,-0.41961 l 0.310059,0.0734 c -0.06495,0.23977 -0.182105,0.42291 -0.3514,0.54932 -0.168231,0.1254 -0.374224,0.1881 -0.61805,0.1881 -0.252346,0 -0.457853,-0.0479 -0.6165,-0.14417 -0.157583,-0.0973 -0.278168,-0.23809 -0.361218,-0.42168 -0.08199,-0.18359 -0.12299,-0.3805 -0.12299,-0.59118 0,-0.22974 0.04638,-0.42993 0.139009,-0.60048 0.0937,-0.17155 0.226484,-0.30135 0.397909,-0.38964 0.172488,-0.0893 0.36188,-0.13384 0.568441,-0.13384 z m -9.372038,0.0372 h 1.038179 c 0.208691,0 0.367337,0.0203 0.47594,0.0605 0.108605,0.0391 0.195501,0.10897 0.26045,0.20928 0.06495,0.10032 0.09767,0.2109 0.09767,0.33228 0,0.1565 -0.05421,0.28849 -0.161747,0.39585 -0.10754,0.10733 -0.273499,0.17554 -0.498161,0.20464 0.08199,0.0371 0.14448,0.074 0.187069,0.11006 0.0905,0.0782 0.175911,0.17616 0.256832,0.29353 l 0.407727,0.60049 h -0.390159 l -0.309542,-0.45946 c -0.0905,-0.13243 -0.165198,-0.23362 -0.223759,-0.30385 -0.05856,-0.0702 -0.111281,-0.11919 -0.15813,-0.14728 -0.04578,-0.0281 -0.09265,-0.0479 -0.14056,-0.0589 -0.03514,-0.007 -0.09274,-0.0103 -0.172599,-0.0103 h -0.359152 v 0.97979 h -0.310058 z m 2.364197,0 h 1.69292 v 0.26046 h -1.383379 v 0.67592 h 1.295529 v 0.2589 h -1.295529 v 0.75086 h 1.437639 v 0.26046 h -1.74718 z m 2.994132,0 h 0.310059 v 1.50379 c 0,0.18459 -0.02392,0.32758 -0.07183,0.42891 -0.04685,0.10132 -0.122028,0.17835 -0.225309,0.23151 -0.102216,0.0532 -0.222284,0.0796 -0.360701,0.0796 -0.205497,0 -0.363171,-0.0556 -0.47284,-0.16691 -0.108603,-0.11135 -0.160838,-0.2769 -0.156579,-0.49661 l 0.279569,-0.0362 c 0.0075,0.16854 0.04114,0.28405 0.100769,0.34624 0.05963,0.0622 0.142121,0.0935 0.24753,0.0935 0.07773,0 0.14459,-0.017 0.201022,-0.0501 0.05643,-0.0341 0.09549,-0.0798 0.116789,-0.13693 0.0213,-0.0582 0.03152,-0.15007 0.03152,-0.27648 z m 0.822689,0 h 1.69292 v 0.26046 h -1.382861 v 0.67592 h 1.295011 v 0.2589 h -1.295011 v 0.75086 h 1.437121 v 0.26046 h -1.74718 z m 4.362008,0 h 1.8557 v 0.26046 h -0.774629 v 1.94614 h -0.310059 v -1.94666 h -0.771012 z m -10.232968,0.24392 v 0.73018 h 0.66611 c 0.14161,0 0.252423,-0.0137 0.332279,-0.0408 0.07986,-0.0281 0.140376,-0.0721 0.181901,-0.13229 0.04153,-0.0612 0.06253,-0.12773 0.06253,-0.19896 0,-0.10434 -0.04052,-0.19014 -0.12144,-0.25735 -0.07986,-0.0672 -0.206785,-0.10076 -0.380339,-0.10076 z" /></g><rect
         style="opacity:0.88;fill:#000000;stroke:#ffffff;stroke-width:0"
         id="rect1180"
         width="3.1855905"
         height="29.216419"
         x="28.033197"
         y="85.282806" /></g></g></svg>
