<?xml version="1.0" encoding="UTF-8" standalone="no"?>
<!-- Generator: Adobe Illustrator 28.0.0, SVG Export Plug-In . SVG Version: 6.00 Build 0)  -->

<svg
   version="1.1"
   id="Layer_1"
   x="0px"
   y="0px"
   viewBox="0 0 2964.6687 1132.5415"
   xml:space="preserve"
   sodipodi:docname="biden.svg"
   inkscape:version="1.2.2 (b0a8486, 2022-12-01)"
   width="2964.6687"
   height="1132.5415"
   xmlns:inkscape="http://www.inkscape.org/namespaces/inkscape"
   xmlns:sodipodi="http://sodipodi.sourceforge.net/DTD/sodipodi-0.dtd"
   xmlns="http://www.w3.org/2000/svg"
   xmlns:svg="http://www.w3.org/2000/svg"
   xmlns:rdf="http://www.w3.org/1999/02/22-rdf-syntax-ns#"
   xmlns:cc="http://creativecommons.org/ns#"
   xmlns:dc="http://purl.org/dc/elements/1.1/"><metadata
   id="metadata141"><rdf:RDF><cc:Work
       rdf:about=""><dc:format>image/svg+xml</dc:format><dc:type
         rdf:resource="http://purl.org/dc/dcmitype/StillImage" /></cc:Work></rdf:RDF></metadata><defs
   id="defs139" /><sodipodi:namedview
   pagecolor="#ffffff"
   bordercolor="#666666"
   borderopacity="1"
   objecttolerance="10"
   gridtolerance="10"
   guidetolerance="10"
   inkscape:pageopacity="0"
   inkscape:pageshadow="2"
   inkscape:window-width="1366"
   inkscape:window-height="715"
   id="namedview137"
   showgrid="false"
   inkscape:zoom="0.20158693"
   inkscape:cx="1312.089"
   inkscape:cy="186.02396"
   inkscape:window-x="-4"
   inkscape:window-y="25"
   inkscape:window-maximized="0"
   inkscape:current-layer="Layer_1"
   fit-margin-top="0"
   fit-margin-left="0"
   fit-margin-right="0"
   fit-margin-bottom="0"
   inkscape:showpageshadow="0"
   inkscape:pagecheckerboard="1"
   inkscape:deskcolor="#d1d1d1" /><style
   type="text/css"
   id="style2">
	.st0{fill:#0C2657;}
	.st1{fill:url(#SVGID_1_);}
	.st2{fill:url(#SVGID_00000106129861216572281310000008737448917952955810_);}
	.st3{fill:url(#SVGID_00000088123123570903251110000008366427430774142129_);}
	.st4{fill:url(#SVGID_00000134959789597489940590000004153809343681967547_);}
	.st5{fill:#FFFFFF;}
	.st6{fill-rule:evenodd;clip-rule:evenodd;fill:#FFFFFF;}
</style><radialGradient
   id="SVGID_1_"
   cx="-1869.1833"
   cy="51.942799"
   r="1"
   gradientTransform="matrix(-1.5,-23.75,33.7144,-2.1293,-4519.9917,-44262.258)"
   gradientUnits="userSpaceOnUse"><stop
     offset="0"
     style="stop-color:#266CDE"
     id="stop6" /><stop
     offset="1"
     style="stop-color:#06348B;stop-opacity:0"
     id="stop8" /></radialGradient><radialGradient
   id="SVGID_00000085948240504876365150000014527131802243568272_"
   cx="-1658.9028"
   cy="-61.287899"
   r="1"
   gradientTransform="matrix(6.125,9.4599,-13.4289,8.6948,9338.7259,16265.641)"
   gradientUnits="userSpaceOnUse"><stop
     offset="0"
     style="stop-color:#266CDE"
     id="stop13" /><stop
     offset="1"
     style="stop-color:#06348B;stop-opacity:0"
     id="stop15" /></radialGradient><radialGradient
   id="SVGID_00000142855872814889920120000000376245594730011821_"
   cx="-1730.3783"
   cy="-62.523201"
   r="1"
   gradientTransform="matrix(4.75,15.625,-22.1805,6.7429,6891.981,27479.951)"
   gradientUnits="userSpaceOnUse"><stop
     offset="0"
     style="stop-color:#266CDE"
     id="stop20" /><stop
     offset="1"
     style="stop-color:#06348B;stop-opacity:0"
     id="stop22" /></radialGradient><radialGradient
   id="SVGID_00000116928161749636969920000013603306367214026680_"
   cx="-1857.1379"
   cy="-72.293404"
   r="1"
   gradientTransform="matrix(-14.25,12.875,-18.2767,-20.2287,-27707.039,22472.246)"
   gradientUnits="userSpaceOnUse"><stop
     offset="0"
     style="stop-color:#266CDE"
     id="stop27" /><stop
     offset="1"
     style="stop-color:#06348B;stop-opacity:0"
     id="stop29" /></radialGradient>

<ellipse
   style="opacity:1;fill:#0018a8;fill-opacity:1;stroke-width:0"
   id="path1186-6"
   cx="1839.8623"
   cy="566.27075"
   rx="1124.8064"
   ry="566.27075" /><ellipse
   style="opacity:1;fill:#df0800;fill-opacity:1;stroke-width:0"
   id="path1186"
   cx="1124.8064"
   cy="566.27075"
   rx="1124.8064"
   ry="566.27075" /><g
   id="g1259"
   transform="translate(715.05579,26.270752)"><path
     class="st0"
     d="M 765.56962,0 C 343.48101,0 0,242.65823 0,540 0,839.05063 343.48101,1080 767.27848,1080 1191.076,1080 1534.557,839.05063 1534.557,540 1532.8481,242.65823 1189.3671,0 765.56962,0 Z"
     id="path4"
     inkscape:connector-curvature="0"
     style="fill:#0c2657;stroke-width:17.0886" /><g
     id="g132"
     transform="matrix(17.088608,0,0,17.088608,-47.8481,-35.88608)"><path
       class="st5"
       d="m 36,22.5 -0.1,0.1 v 0 0.5 c 0,0.1 0.1,0.1 0.1,0.1 l 4.7,-1.8 H 36 Z"
       id="path44"
       inkscape:connector-curvature="0"
       style="fill:#ffffff" /><path
       class="st5"
       d="m 14.2,24.6 h 0.6 v 0 2.3 c 0,0.1 0,0.1 0.1,0.1 h 20.9 c 0.1,0.2 0.3,0.3 0.4,0.5 -1.3,0 -22,0 -22,0 -0.1,0 -0.1,0.1 -0.1,0.1 v 0.6 c 0,0.1 0.1,0.1 0.1,0.1 h 22.2 l -0.1,13.4 v 0 c 0,0.1 0.1,0.2 0.2,0.2 h 1.7 c 0.1,0 0.2,-0.1 0.2,-0.2 v 0 0 c 0,-0.1 -0.1,-13.4 -0.1,-13.4 0,-0.2 0.1,-0.5 0.2,-0.7 0.1,-0.2 0.3,-0.5 0.5,-0.7 h 17.5 c 0.1,0.2 0.4,0.4 0.5,0.7 0.1,0.2 0.1,0.5 0.2,0.7 0,0 -0.1,13.3 -0.1,13.4 v 0 0 c 0,0.1 0.1,0.2 0.2,0.2 H 59 c 0.1,0 0.2,-0.1 0.2,-0.2 v 0 L 59.1,28.3 h 22.2 c 0.1,0 0.1,-0.1 0.1,-0.1 v -0.6 c 0,-0.1 -0.1,-0.1 -0.1,-0.1 0,0 -20.7,0 -22,0 0.1,-0.2 0.3,-0.3 0.4,-0.5 h 20.9 c 0.1,0 0.1,0 0.1,-0.1 v -2.3 0 h 0.6 c 0.1,0 0.1,-0.1 0.1,-0.1 v -0.3 c 0,-0.1 -0.1,-0.1 -0.1,-0.1 H 60.2 c -0.1,0 -0.2,0 -0.3,-0.1 l -12,-4.8 v -0.8 -0.2 c 0.3,-0.1 0.6,-0.1 0.9,0 1.4,0.5 1.7,0.3 1.7,0.3 v 0 c -0.2,-0.3 -0.2,-1.1 -0.2,-1.1 0.1,-0.7 0,-0.8 0,-0.8 v 0 c 0,0 -0.4,0.3 -1.3,0 -0.5,-0.2 -0.8,-0.2 -1.1,-0.2 0,-0.1 -0.1,-0.2 -0.3,-0.2 -0.1,0 -0.2,0.1 -0.2,0.2 v 2.9 l -12,4.7 c -0.1,0 -0.2,0.1 -0.3,0.1 H 14.2 c -0.1,0 -0.1,0.1 -0.1,0.1 v 0.3 c 0,0 0,0.1 0.1,0.1 z m 61.3,0.5 c 0,-0.1 0.1,-0.2 0.2,-0.2 h 3.1 c 0.1,0 0.2,0.1 0.2,0.2 v 0.8 c 0,0.1 -0.1,0.2 -0.2,0.2 h -3.1 c -0.1,0 -0.2,-0.1 -0.2,-0.2 z m -5.1,0 c 0,-0.1 0.1,-0.2 0.2,-0.2 h 3.1 c 0.1,0 0.2,0.1 0.2,0.2 v 0.8 c 0,0.1 -0.1,0.2 -0.2,0.2 h -3.1 c -0.1,0 -0.2,-0.1 -0.2,-0.2 z m -5.2,0 c 0,-0.1 0.1,-0.2 0.2,-0.2 h 3.1 c 0.1,0 0.2,0.1 0.2,0.2 v 0.8 c 0,0.1 -0.1,0.2 -0.2,0.2 h -3.1 c -0.1,0 -0.2,-0.1 -0.2,-0.2 z M 37.8,24 47.7,20.1 57.6,24 v 0 0 H 56 l -4.1,-1.6 -4.1,-1.6 -4.1,1.6 -4.3,1.6 z m -6.1,1.1 c 0,-0.1 0.1,-0.2 0.2,-0.2 h 3.6 c 0.1,0 0.2,0.1 0.2,0.2 v 0.5 h 23.8 v -0.5 c 0,-0.1 0.1,-0.2 0.2,-0.2 h 3.6 c 0.1,0 0.2,0.1 0.2,0.2 v 0.8 c 0,0.1 -0.1,0.2 -0.2,0.2 H 31.9 c -0.1,0 -0.2,-0.1 -0.2,-0.2 0,0 0,-0.8 0,-0.8 z m -5.1,0 c 0,-0.1 0.1,-0.2 0.2,-0.2 h 3.1 c 0.1,0 0.2,0.1 0.2,0.2 v 0.8 c 0,0.1 -0.1,0.2 -0.2,0.2 h -3.1 c -0.1,0 -0.2,-0.1 -0.2,-0.2 z m -5.2,0 c 0,-0.1 0.1,-0.2 0.2,-0.2 h 3.1 c 0.1,0 0.2,0.1 0.2,0.2 v 0.8 c 0,0.1 -0.1,0.2 -0.2,0.2 h -3.1 c -0.1,0 -0.2,-0.1 -0.2,-0.2 z m -5.1,0 c 0,-0.1 0.1,-0.2 0.2,-0.2 h 3.1 c 0.1,0 0.2,0.1 0.2,0.2 v 0.8 c 0,0.1 -0.1,0.2 -0.2,0.2 h -3.1 c -0.1,0 -0.2,-0.1 -0.2,-0.2 z"
       id="path46"
       inkscape:connector-curvature="0"
       style="fill:#ffffff" /><path
       class="st5"
       d="m 35.8,21.2 h 5.5 l 0.6,-0.3 c 0.1,0 0.1,-0.1 0,-0.1 h -6.3 c -0.1,0 -0.1,0.1 -0.1,0.1 z"
       id="path48"
       inkscape:connector-curvature="0"
       style="fill:#ffffff" /><path
       class="st5"
       d="m 61.4,22.7 v 0.8 c 0,0.1 0,0.1 0.1,0.1 h 2 c 0.1,0 0.1,-0.1 0.1,-0.1 v -0.8 l 0.3,-0.4 c 0,-0.1 0,-0.2 -0.1,-0.2 H 61.1 C 61,22.1 61,22.2 61,22.3 Z"
       id="path50"
       inkscape:connector-curvature="0"
       style="fill:#ffffff" /><path
       class="st5"
       d="m 53.4,20.9 0.6,0.3 h 5.5 l 0.2,-0.3 c 0,0 0,-0.1 -0.1,-0.1 h -6.3 c 0,0 0,0.1 0.1,0.1 z"
       id="path52"
       inkscape:connector-curvature="0"
       style="fill:#ffffff" /><path
       class="st5"
       d="m 54.6,21.5 4.7,1.8 c 0,0 0.1,0 0.1,-0.1 v -0.5 0 l -0.1,-0.1 v 0 -1 z"
       id="path54"
       inkscape:connector-curvature="0"
       style="fill:#ffffff" /><path
       class="st5"
       d="m 31.8,22.7 v 0.8 c 0,0.1 0,0.1 0.1,0.1 h 2 c 0.1,0 0.1,-0.1 0.1,-0.1 v -0.8 l 0.3,-0.4 c 0,-0.1 0,-0.2 -0.1,-0.2 h -2.7 c -0.1,0 -0.1,0.1 -0.1,0.2 z"
       id="path56"
       inkscape:connector-curvature="0"
       style="fill:#ffffff" /><path
       class="st5"
       d="m 59.5,45.9 h -10.8 -2 -10.8 c -0.1,0 -0.1,0.1 -0.1,0.1 v 0.8 c 0,0.1 0.1,0.1 0.1,0.1 h 10.8 2 10.8 c 0.1,0 0.1,-0.1 0.1,-0.1 z"
       id="path58"
       inkscape:connector-curvature="0"
       style="fill:#ffffff" /><path
       class="st5"
       d="M 81.1,42.9 H 59.3 C 59.2,42.7 59.2,42.5 59.1,42.4 H 57 c -0.1,0 -0.1,0 -0.1,0.1 0,0.2 -0.1,0.3 -0.2,0.5 -0.1,0.2 -0.2,0.3 -0.3,0.5 v 0.8 h -3.8 v -0.8 c -0.2,-0.3 -0.3,-0.6 -0.4,-1 0,-0.1 -0.1,-0.1 -0.1,-0.1 h -2 c -0.1,0 -0.1,0 -0.1,0.1 -0.1,0.3 -0.2,0.7 -0.4,1 v 0.8 H 48 47.3 45.9 v -0.8 c -0.2,-0.3 -0.3,-0.6 -0.4,-1 0,-0.1 -0.1,-0.1 -0.1,-0.1 h -2 c -0.1,0 -0.1,0 -0.1,0.1 -0.1,0.3 -0.2,0.7 -0.4,1 v 0.8 H 39.1 V 43.5 C 39,43.3 38.9,43.2 38.8,43 c -0.1,-0.2 -0.1,-0.3 -0.2,-0.5 0,-0.1 -0.1,-0.1 -0.1,-0.1 h -2.1 c 0,0.2 -0.1,0.4 -0.2,0.5 h -22 C 14.1,42.9 14,43 14,43.1 v 1.8 c 0,0.1 0.1,0.2 0.2,0.2 h 21.5 v 0.3 c 0,0.1 0.1,0.2 0.2,0.2 H 47.3 48 59.4 c 0.1,0 0.2,-0.1 0.2,-0.2 V 45 h 21.5 c 0.1,0 0.2,-0.1 0.2,-0.2 V 43 c 0,-0.1 -0.1,-0.1 -0.2,-0.1 z"
       id="path60"
       inkscape:connector-curvature="0"
       style="fill:#ffffff" /><path
       class="st5"
       d="M 34.8,29.2 V 29 c 0,0 0,-0.1 -0.1,-0.1 H 14.9 c 0,0 -0.1,0 -0.1,0.1 v 6.3 7 c 0,0 0,0.1 0.1,0.1 h 19.9 c 0,0 0.1,0 0.1,-0.1 v -0.2 c 0,0 0,-0.1 -0.1,-0.1 H 16.2 c 0,0 -0.1,0 -0.1,-0.1 v -5.8 -1.2 -5.6 c 0,0 0,-0.1 0.1,-0.1 z"
       id="path128"
       inkscape:connector-curvature="0"
       style="fill:#ffffff" /><path
       class="st5"
       d="M 80.5,28.9 H 60.6 c 0,0 -0.1,0 -0.1,0.1 v 0.2 c 0,0 0,0.1 0.1,0.1 h 18.6 c 0,0 0.1,0 0.1,0.1 V 35 36.2 42 c 0,0 0,0.1 -0.1,0.1 H 60.6 c 0,0 -0.1,0 -0.1,0.1 v 0.2 c 0,0 0,0.1 0.1,0.1 h 19.9 c 0,0 0.1,0 0.1,-0.1 v -7 z"
       id="path130"
       inkscape:connector-curvature="0"
       style="fill:#ffffff" /></g><text
     xml:space="preserve"
     style="font-style:normal;font-variant:normal;font-weight:normal;font-stretch:normal;font-size:333.78px;line-height:1.25;font-family:'Kool Beans';-inkscape-font-specification:'Kool Beans';letter-spacing:0px;word-spacing:0px;fill:#000000;fill-opacity:1;stroke:none;stroke-width:17.881"
     x="221.59846"
     y="700.79608"
     id="text987"
     transform="scale(1.0463728,0.95568234)"><tspan
       sodipodi:role="line"
       id="tspan985"
       x="221.59846"
       y="700.79608"
       style="font-style:normal;font-variant:normal;font-weight:bold;font-stretch:normal;font-size:286.096px;line-height:2;font-family:Arial;-inkscape-font-specification:'Arial Bold';fill:#ffffff;stroke-width:17.881">BI</tspan></text><text
     xml:space="preserve"
     style="font-style:normal;font-variant:normal;font-weight:normal;font-stretch:normal;font-size:298.685px;line-height:1.25;font-family:'Kool Beans';-inkscape-font-specification:'Kool Beans';letter-spacing:0px;word-spacing:0px;fill:#000000;fill-opacity:1;stroke:none;stroke-width:16.001"
     x="1034.7644"
     y="627.11255"
     id="text987-5"
     transform="scale(0.93635308,1.0679732)"><tspan
       sodipodi:role="line"
       id="tspan985-9"
       x="1034.7644"
       y="627.11255"
       style="font-style:normal;font-variant:normal;font-weight:bold;font-stretch:normal;font-size:256.016px;line-height:2;font-family:Arial;-inkscape-font-specification:'Arial Bold';fill:#ffffff;stroke-width:16.001">EN</tspan></text><text
     xml:space="preserve"
     style="font-style:normal;font-variant:normal;font-weight:normal;font-stretch:normal;font-size:375.535px;line-height:1.25;font-family:'Kool Beans';-inkscape-font-specification:'Kool Beans';letter-spacing:0px;word-spacing:0px;fill:#000000;fill-opacity:1;stroke:none;stroke-width:20.1179"
     x="538.52161"
     y="788.46484"
     id="text987-4"
     transform="scale(1.1772717,0.84942159)"><tspan
       sodipodi:role="line"
       id="tspan985-5"
       x="538.52161"
       y="788.46484"
       style="font-style:normal;font-variant:normal;font-weight:bold;font-stretch:normal;font-size:321.887px;line-height:2;font-family:Arial;-inkscape-font-specification:'Arial Bold';fill:#ffffff;stroke-width:20.1179">D</tspan></text></g>
<text
   xml:space="preserve"
   style="font-style:normal;font-variant:normal;font-weight:bold;font-stretch:normal;font-size:293.333px;line-height:1;font-family:Arial;-inkscape-font-specification:'Arial Bold';text-align:center;text-anchor:middle;opacity:1;fill:#df0800;fill-opacity:1;stroke-width:0"
   x="403.04572"
   y="669.82532"
   id="text9227"><tspan
     sodipodi:role="line"
     id="tspan9225"
     x="403.04572"
     y="669.82532"
     style="font-size:293.333px;fill:#ffffff">86</tspan></text><text
   xml:space="preserve"
   style="font-style:normal;font-variant:normal;font-weight:bold;font-stretch:normal;font-size:293.333px;line-height:1;font-family:Arial;-inkscape-font-specification:'Arial Bold';text-align:center;text-anchor:middle;fill:#df0800;fill-opacity:1;stroke-width:0"
   x="2372.5518"
   y="642.18213"
   id="text9227-7"><tspan
     sodipodi:role="line"
     id="tspan9225-1"
     x="2372.5518"
     y="642.18213"
     style="font-size:293.333px;fill:#ffffff">(</tspan></text><text
   xml:space="preserve"
   style="font-style:normal;font-variant:normal;font-weight:bold;font-stretch:normal;font-size:293.333px;line-height:1;font-family:Arial;-inkscape-font-specification:'Arial Bold';text-align:center;text-anchor:middle;fill:#df0800;fill-opacity:1;stroke-width:0"
   x="-2803.4609"
   y="642.18213"
   id="text9227-7-7"
   transform="scale(-1,1)"><tspan
     sodipodi:role="line"
     id="tspan9225-1-5"
     x="-2803.4609"
     y="642.18213"
     style="font-size:293.333px;fill:#ffffff">(</tspan></text><text
   xml:space="preserve"
   style="font-style:normal;font-variant:normal;font-weight:bold;font-stretch:normal;font-size:293.333px;line-height:1;font-family:Arial;-inkscape-font-specification:'Arial Bold';text-align:center;text-anchor:middle;fill:#df0800;fill-opacity:1;stroke-width:0"
   x="2587.5203"
   y="669.82532"
   id="text9227-4"><tspan
     sodipodi:role="line"
     id="tspan9225-8"
     x="2587.5203"
     y="669.82532"
     style="font-size:293.333px;fill:#ffffff">86</tspan></text></svg>
