<?xml version="1.0" encoding="UTF-8" standalone="no"?>
<!-- Created with Inkscape (http://www.inkscape.org/) -->

<svg
   width="131.03972mm"
   height="94.614807mm"
   viewBox="0 0 131.03971 94.614807"
   version="1.1"
   id="svg5"
   inkscape:version="1.2.2 (b0a8486, 2022-12-01)"
   sodipodi:docname="months.svg"
   xmlns:inkscape="http://www.inkscape.org/namespaces/inkscape"
   xmlns:sodipodi="http://sodipodi.sourceforge.net/DTD/sodipodi-0.dtd"
   xmlns="http://www.w3.org/2000/svg"
   xmlns:svg="http://www.w3.org/2000/svg">
  <sodipodi:namedview
     id="namedview7"
     pagecolor="#505050"
     bordercolor="#ffffff"
     borderopacity="1"
     inkscape:showpageshadow="0"
     inkscape:pageopacity="0"
     inkscape:pagecheckerboard="1"
     inkscape:deskcolor="#505050"
     inkscape:document-units="mm"
     showgrid="false"
     inkscape:zoom="1.05977"
     inkscape:cx="209.00761"
     inkscape:cy="154.27876"
     inkscape:window-width="1366"
     inkscape:window-height="715"
     inkscape:window-x="0"
     inkscape:window-y="25"
     inkscape:window-maximized="0"
     inkscape:current-layer="layer1" />
  <defs
     id="defs2" />
  <g
     inkscape:label="Layer 1"
     inkscape:groupmode="layer"
     id="layer1"
     transform="translate(-36.258164,-150.33319)">
    <g
       id="g9880"
       transform="translate(30.28317,87.141367)"
       style="fill:#000000">
      <path
         style="opacity:1;fill:#000000;stroke-width:0"
         d="m 32.43697,104.45697 c 3.074813,-2.72764 6.803468,-1.22501 6.803468,-1.22501 l 1.892032,-3.782315 c 0,0 -4.086581,-0.97487 -5.756131,0.0407 z"
         id="path838"
         sodipodi:nodetypes="ccccc" />
      <path
         style="opacity:1;fill:#000000;stroke-width:0"
         d="m 109.72221,64.289355 c -3.07481,2.72764 -6.80347,1.22501 -6.80347,1.22501 l -1.89203,3.78231 c 0,0 4.08658,0.97487 5.75613,-0.0407 z"
         id="path838-3"
         sodipodi:nodetypes="ccccc" />
      <path
         id="path838-8"
         style="fill:#000000;stroke-width:0"
         d="m 56.695764,80.528935 c -3.014391,2.674039 -6.799766,1.232388 -6.790283,1.230416 l 5.17e-4,-10e-4 c 0,0 -0.0065,-0.0014 -0.0072,-0.0016 -7.16e-4,-2.85e-4 -0.0067,-0.0026 -0.0067,-0.0026 l -5.17e-4,0.001 c 0,0 -4.104458,-0.951719 -5.741251,0.04393 l -2.939356,4.966622 c 3.013993,-2.673685 6.789767,-1.229899 6.789767,-1.229899 l -5.17e-4,5.17e-4 c 0,0 0.0048,9.4e-4 0.0052,0.001 0.0013,4.99e-4 0.0088,0.0036 0.0088,0.0036 l 5.16e-4,-10e-4 c 0,0 4.105152,0.951096 5.741769,-0.04444 z"
         sodipodi:nodetypes="ccccccccccccccc" />
      <path
         style="opacity:1;fill:#000000;stroke-width:0"
         d="m 38.270834,63.192008 c -1.694083,0.01863 -3.532067,1.292338 -5.505315,6.046378 2.802931,-1.813667 5.451935,-3.066647 6.754334,-0.384191 l 8.065658,16.611389 -5.17e-4,5.17e-4 7.144784,15.113819 c 0,0 5.083029,10.0735 10.000516,-2.750233 -2.802932,1.813668 -5.029607,3.193033 -6.332006,0.510564 l -8.065658,-16.610873 5.17e-4,-5.17e-4 -7.144784,-15.114322 c 0,0 -2.27476,-3.451596 -4.917529,-3.422531 z"
         id="path763-2-8-4"
         sodipodi:nodetypes="sccccccccccs" />
      <path
         style="opacity:1;fill:#000000;stroke-width:0"
         d="M 40.374112,100.96256 57.502468,66.69819 56.163491,67.86918 39.874112,100.96225 Z"
         id="path916-3-0"
         sodipodi:nodetypes="ccccc" />
      <path
         id="path838-8-4"
         style="fill:#000000;stroke-width:0"
         d="m 79.475493,80.528935 c -3.014391,2.674039 -6.799766,1.232388 -6.790283,1.230416 l 5.17e-4,-10e-4 c 0,0 -0.0065,-0.0014 -0.0072,-0.0016 -7.16e-4,-2.85e-4 -0.0067,-0.0026 -0.0067,-0.0026 l -5.17e-4,0.001 c 0,0 -4.104458,-0.951719 -5.741251,0.04393 l -2.939356,4.966622 c 3.013993,-2.673685 6.789767,-1.229899 6.789767,-1.229899 l -5.17e-4,5.17e-4 c 0,0 0.0048,9.4e-4 0.0052,0.001 0.0013,4.99e-4 0.0088,0.0036 0.0088,0.0036 l 5.16e-4,-10e-4 c 0,0 4.105152,0.951096 5.741769,-0.04444 z"
         sodipodi:nodetypes="ccccccccccccccc" />
      <path
         style="opacity:1;fill:#000000;stroke-width:0"
         d="m 61.050563,63.192008 c -1.694083,0.01863 -3.532067,1.292338 -5.505315,6.046378 2.802931,-1.813667 5.451935,-3.066647 6.754334,-0.384191 l 8.065658,16.611389 -5.17e-4,5.17e-4 7.144784,15.113819 c 0,0 5.083029,10.0735 10.000516,-2.750233 -2.802932,1.813668 -5.029607,3.193033 -6.332006,0.510564 l -8.065658,-16.610873 5.17e-4,-5.17e-4 -7.144784,-15.114322 c 0,0 -2.27476,-3.451596 -4.917529,-3.422531 z"
         id="path763-2-8-4-7"
         sodipodi:nodetypes="sccccccccccs" />
      <path
         style="opacity:1;fill:#000000;stroke-width:0"
         d="M 63.153841,100.96256 80.282197,66.69819 78.94322,67.86918 62.653841,100.96225 Z"
         id="path916-3-0-7"
         sodipodi:nodetypes="ccccc" />
      <path
         id="path838-8-2"
         style="fill:#000000;stroke-width:0"
         d="m 102.26855,80.528935 c -3.01439,2.674039 -6.799765,1.232388 -6.790282,1.230416 l 5.17e-4,-10e-4 c 0,0 -0.0065,-0.0014 -0.0072,-0.0016 -7.16e-4,-2.85e-4 -0.0067,-0.0026 -0.0067,-0.0026 l -5.17e-4,0.001 c 0,0 -4.104458,-0.951719 -5.741251,0.04393 l -2.939356,4.966622 c 3.013993,-2.673685 6.789767,-1.229899 6.789767,-1.229899 l -5.17e-4,5.17e-4 c 0,0 0.0048,9.4e-4 0.0052,0.001 0.0013,4.99e-4 0.0088,0.0036 0.0088,0.0036 l 5.16e-4,-10e-4 c 0,0 4.105152,0.951096 5.741769,-0.04444 z"
         sodipodi:nodetypes="ccccccccccccccc" />
      <path
         style="opacity:1;fill:#000000;stroke-width:0"
         d="m 83.843621,63.192008 c -1.694083,0.01863 -3.532067,1.292338 -5.505315,6.046378 2.802931,-1.813667 5.451935,-3.066647 6.754334,-0.384191 l 8.065658,16.611389 -5.17e-4,5.17e-4 7.144779,15.113819 c 0,0 5.08303,10.0735 10.00052,-2.750233 -2.80293,1.813668 -5.02961,3.193033 -6.332,0.510564 l -8.065663,-16.610873 5.17e-4,-5.17e-4 -7.144784,-15.114322 c 0,0 -2.27476,-3.451596 -4.917529,-3.422531 z"
         id="path763-2-8-4-4"
         sodipodi:nodetypes="sccccccccccs" />
      <path
         style="opacity:1;fill:#000000;stroke-width:0"
         d="m 85.946899,100.96256 17.128361,-34.26437 -1.33898,1.17099 -16.289381,33.09307 z"
         id="path916-3-0-1"
         sodipodi:nodetypes="ccccc" />
    </g>
    <g
       id="g483"
       transform="translate(-0.12482678)">
      <g
         id="g9617"
         transform="matrix(0.91831085,0,0,1,11.526261,21.340735)"
         style="fill:#000000">
        <path
           style="fill:#000000;stroke-width:0"
           d="m 128.73391,196.49626 c -1.60451,-0.0486 -2.57119,-0.555 -6.56032,4.45421 4.98458,-2.44418 4.37619,0.75118 4.44126,5.24651 v 11.12175 c -0.23326,1.59324 4.12006,10.56306 10.87695,-0.4774 -2.80291,1.81366 -6.35078,2.49883 -6.33196,0.51056 v -10.99101 c -0.0856,-7.35938 0.005,-8.57808 -2.42593,-9.86462 z"
           id="path763-2-8-4-8-5"
           sodipodi:nodetypes="cccccccc" />
        <path
           style="fill:#000000;stroke-width:0"
           d="m 120.60738,222.01771 c 0.59243,0.37168 2.93497,1.0134 6.01757,-3.99581 -5.15325,3.77495 -4.34301,-1.22334 -4.38007,-5.43889 V 201.0253 l -3.51214,3.5778 v 7.81601 c 0.0661,7.35938 -0.5015,8.10786 1.87464,9.5986 z"
           id="path763-2-8-4-8-5-5"
           sodipodi:nodetypes="scccccs" />
      </g>
      <g
         id="g2082">
        <path
           id="path838-8-2-2"
           style="fill:#000000;stroke-width:0"
           d="m 77.335696,237.37007 c -2.071345,2.67403 -4.672478,1.23238 -4.665959,1.23041 l 3.56e-4,-0.001 c 0,0 -0.0048,-0.001 -0.0048,-0.002 -4.92e-4,-2.9e-4 -0.0048,-0.003 -0.0048,-0.003 l -3.47e-4,0.001 c 0,0 -2.820392,-0.95172 -3.945119,0.0439 l -2.019782,4.96662 c 2.071074,-2.67369 4.665602,-1.2299 4.665602,-1.2299 l -3.57e-4,5.2e-4 c 0,0 0.0039,9.4e-4 0.0039,0.001 6.84e-4,5e-4 0.0058,0.004 0.0058,0.004 l 3.47e-4,-0.001 c 0,0 2.820873,0.95109 3.945466,-0.0444 z"
           sodipodi:nodetypes="ccccccccccccccc" />
        <path
           style="fill:#000000;stroke-width:0"
           d="m 68.907916,219.47954 c 2.965107,-2.72764 7.330053,-1.30479 7.330053,-1.30479 l 1.05521,-3.70255 c 0,0 -3.94078,-0.97487 -5.550764,0.0407 z"
           id="path838-4"
           sodipodi:nodetypes="ccccc" />
        <path
           style="fill:#000000;stroke-width:0"
           d="m 78.392468,202.68365 c -1.633639,0.0186 -3.877549,0.67004 -5.308893,6.04638 3.688803,-5.10297 5.257417,-3.06665 6.51335,-0.3842 l 4.716172,16.61139 -5.02e-4,5.2e-4 3.828157,15.11382 c 0,0 3.144239,8.78445 9.643674,-2.75023 -2.702908,1.81366 -4.850125,3.19303 -6.106049,0.51056 l -4.716172,-16.61087 5.02e-4,-5.2e-4 c -1.523234,-5.00606 -3.799458,-18.22407 -8.570239,-18.53685 z"
           id="path763-2-8-4-8"
           sodipodi:nodetypes="ccccccccccc" />
        <path
           style="fill:#000000;stroke-width:0"
           d="m 68.537182,241.18941 12.367586,-34.42597 -1.291208,1.17099 -11.868028,33.25498 z"
           id="path916-3-0-10"
           sodipodi:nodetypes="ccccc" />
        <path
           style="fill:#000000;stroke:none;stroke-width:0.9859;stroke-dasharray:none;stroke-opacity:1"
           d="m 74.598898,223.65817 h 9.706838 l 1.294249,2.95524 H 73.418174 Z"
           id="path8979"
           sodipodi:nodetypes="ccccc" />
        <path
           style="fill:#000000;stroke:none;stroke-width:1.44211;stroke-dasharray:none;stroke-opacity:1"
           d="M 73.320199,227.50247 H 85.33474 l 0.872123,0.84815 H 73.050711 Z"
           id="path8979-3"
           sodipodi:nodetypes="ccccc" />
      </g>
      <g
         id="g9817"
         transform="matrix(1.0082049,0,0,1.0082049,-5.146233,19.684264)"
         style="fill:#000000">
        <path
           id="path838-8-2-2-6"
           style="fill:#000000;stroke-width:0"
           d="m 171.04074,180.67282 c -2.14798,2.67403 -4.84535,1.23238 -4.83859,1.23041 l 3.7e-4,-0.001 c 0,0 -0.005,-0.001 -0.005,-0.002 -5.1e-4,-2.9e-4 -0.005,-0.003 -0.005,-0.003 l -3.6e-4,0.001 c 0,0 -2.92474,-0.95172 -4.09108,0.0439 l -2.09451,4.96662 c 2.1477,-2.67369 4.83822,-1.2299 4.83822,-1.2299 l -3.7e-4,5.2e-4 c 0,0 0.004,9.4e-4 0.004,0.001 7.1e-4,5e-4 0.006,0.004 0.006,0.004 l 3.6e-4,-0.001 c 0,0 2.92524,0.95109 4.09144,-0.0444 z"
           sodipodi:nodetypes="ccccccccccccccc" />
        <path
           id="path838-8-2-2-6-3"
           style="fill:#000000;stroke-width:0"
           d="m 154.05293,216.2034 c -2.14798,2.67403 -4.84535,1.23238 -4.83859,1.23041 l 3.7e-4,-0.001 c 0,0 -0.005,-10e-4 -0.005,-0.002 -5.1e-4,-2.9e-4 -0.005,-0.003 -0.005,-0.003 l -3.6e-4,0.001 c 0,0 -2.92474,-0.95172 -4.09108,0.0439 l -2.09451,4.96662 c 2.1477,-2.67369 4.83822,-1.2299 4.83822,-1.2299 l -3.7e-4,5.2e-4 c 0,0 0.004,9.4e-4 0.004,0.001 7.1e-4,5e-4 0.006,0.004 0.006,0.004 l 3.6e-4,-10e-4 c 0,0 2.92524,0.95109 4.09144,-0.0444 z"
           sodipodi:nodetypes="ccccccccccccccc" />
        <path
           style="fill:#000000;stroke-width:0"
           d="m 140.61261,205.82581 c 3.07481,-2.72764 7.60125,-1.30479 7.60125,-1.30479 l 0.68622,-3.70255 c 0,0 -3.67855,-0.97487 -5.3481,0.0407 z"
           id="path838-4-3"
           sodipodi:nodetypes="ccccc" />
        <path
           style="fill:#000000;stroke-width:0"
           d="m 142.23176,187.14141 c 5.3035,-5.10297 5.88644,-2.68245 7.69214,0 4.86212,9.26896 8.80853,19.6735 15.92423,33.79418 v -8.06669 l -5.33497,-12.8523 7.2e-4,-5.2e-4 c -5.54196,-11.3549 -10.39417,-28.1402 -18.28212,-12.87467 z"
           id="path763-2-8-4-8-4"
           sodipodi:nodetypes="ccccccc" />
        <path
           style="fill:#000000;stroke-width:0"
           d="m 165.8478,220.93559 -8e-5,-38.24844 h 0.74405 l -2e-4,38.24844 z"
           id="path916-3-0-10-7"
           sodipodi:nodetypes="ccccc" />
        <path
           style="fill:#000000;stroke-width:0"
           d="m 148.1639,220.93559 -8e-5,-38.24844 h 0.74405 l -2e-4,38.24844 z"
           id="path916-3-0-10-7-3"
           sodipodi:nodetypes="ccccc" />
        <path
           style="fill:#000000;stroke-width:0"
           d="m 164.45562,217.62905 -8e-5,-34.9419 h 0.74405 l -2e-4,34.9419 z"
           id="path916-3-0-10-7-2"
           sodipodi:nodetypes="ccccc" />
      </g>
      <g
         id="g2865">
        <path
           id="path838-8-2-2-6-3-4"
           style="fill:#000000;stroke-width:0"
           d="m 122.45381,202.34003 c -6.57435,2.74716 -11.32026,1.46664 -11.30006,1.46429 l 8.9e-4,-10e-4 c 0,0 4.39209,-2.30763 -0.015,-0.002 -3.49211,-0.85487 -8.39045,-1.01448 -12.23764,0.0498 l -3.62809,5.91072 c 6.41613,-3.18194 11.82477,-1.46369 11.82477,-1.46369 l -8.9e-4,6.1e-4 c 0,0 0.0119,0.001 0.0119,0.001 0.002,6e-4 0.018,0.005 0.018,0.005 l 8.9e-4,-10e-4 c 0,0 8.73899,1.13188 12.22293,-0.0528 z"
           sodipodi:nodetypes="ccccccccccccc" />
        <path
           style="fill:#000000;stroke-width:0"
           d="m 99.081986,244.948 c 5.076054,-12.237 7.590054,-1.24744 7.590054,-1.24744 l 2.83808,-1.80061 c 0,0 -1.78064,-8.26691 -6.37591,-5.93682 -2.73509,1.32061 -4.537232,4.49412 -4.052224,8.98487 z"
           id="path838-4-3-4"
           sodipodi:nodetypes="ccccc" />
        <path
           style="fill:#000000;stroke:#ffffff;stroke-width:0;stroke-dasharray:none;stroke-opacity:1"
           d="m 113.14922,208.64266 -0.33446,19.59672 c -0.092,9.19641 0.26686,11.01932 -3.59343,13.84713 v -4.99801 -28.60685 c 0.0805,-3.45458 1.1244,-3.80202 3.68355,-3.36299 0.42658,1.38837 -0.005,0.90601 -0.0711,3.524 z"
           id="path9711"
           sodipodi:nodetypes="cccccccc" />
        <path
           style="fill:#000000;stroke-width:0"
           d="m 100.17551,225.9438 c 3.71472,-3.24613 9.18317,-1.55282 9.18317,-1.55282 l 0.82903,-4.40637 c 0,0 -4.4441,-1.16018 -6.46111,0.0484 z"
           id="path838-4-3-3"
           sodipodi:nodetypes="ccccc" />
        <path
           style="fill:#000000;stroke-width:0"
           d="m 107.49769,240.27991 -1e-4,-33.88202 h 0.89889 l -2.4e-4,33.88202 z"
           id="path916-3-0-10-7-3-2"
           sodipodi:nodetypes="ccccc" />
      </g>
      <g
         id="g1342"
         transform="matrix(1,0,0,1.0309364,3.9449859,-6.2333483)"
         style="fill:#000000">
        <g
           id="g1086">
          <path
             style="fill:#000000;stroke:#ffffff;stroke-width:0"
             d="m 44.581966,201.94918 -2.918249,2.5477 c 9.301438,9.22318 17.064841,7.01903 16.918361,-0.12839 -3.973251,5.28567 -8.708547,1.86059 -14.000112,-2.41931 z"
             id="path606-9"
             sodipodi:nodetypes="cccc" />
          <path
             style="fill:#000000;stroke:#ffffff;stroke-width:0"
             d="m 48.975887,242.90944 0.892707,0.73418 6.859746,-5.75297 c 9.633899,-10.51769 0.714983,-16.48802 -2.56156,-17.66246 -8.451419,-2.70968 -16.207541,-10.44653 -12.603328,-15.63915 l 3.067919,-2.59567 -0.551772,-0.504 -2.924174,2.30489 c -4.714942,4.34484 -3.627889,10.09675 -1.088062,13.27295 3.546909,4.19061 14.180423,4.9224 17.069001,12.16025 1.110731,2.35787 1.201404,4.79522 -1.36008,7.55049 z"
             id="path780"
             sodipodi:nodetypes="cccccccccccc" />
          <path
             style="fill:#000000;stroke:#ffffff;stroke-width:0"
             d="m 52.797795,238.38921 c 8.151871,-5.82426 0.639199,-12.21714 -3.806945,-14.4442 -7.805192,-2.98223 -14.160012,-7.55564 -11.512429,-15.63029 l -0.628074,-0.57175 c -5.966326,8.81953 -0.627516,14.72398 1.869465,15.92668 3.923003,2.32741 19.280001,7.97868 13.556193,13.99797 z"
             id="path780-3"
             sodipodi:nodetypes="ccccccc" />
          <path
             id="path780-3-3"
             style="fill:#000000;stroke:#ffffff;stroke-width:0"
             class="UnoptimicedTransforms"
             d="m 57.844014,211.34007 c -4.454117,-0.0975 -8.149516,9.01784 -10.775052,15.27504 -0.990446,2.81335 -2.01378,5.13346 -3.168799,7.10809 -6.765099,-1.60037 -12.41971,1.26469 -11.485621,6.01714 1.049854,5.34144 6.792179,1.26353 10.181807,-2.72129 2.841109,1.95535 5.357475,4.98822 6.474541,5.96657 v 5.1e-4 l 3.540869,-2.98896 c -2.753337,-2.73017 -5.400968,-4.6468 -7.822262,-5.85701 l 1.16117,-2.49752 c 4.354107,-9.3651 7.817486,-22.9729 15.094169,-18.6154 -1.104838,-1.15211 -2.172965,-1.66475 -3.200839,-1.68724 z m -19.888191,23.94479 c 1.310712,-0.0337 2.672008,0.50088 3.983219,1.30638 -0.877127,1.09288 -1.83532,2.06814 -2.904215,2.96675 -1.701482,1.43041 -5.03576,3.38919 -6.074565,0.16485 -0.713177,-2.21362 3.122149,-4.36334 4.995511,-4.43774 z"
             sodipodi:nodetypes="cccscccccscccccsscc" />
        </g>
      </g>
    </g>
  </g>
</svg>
