<?xml version="1.0" encoding="UTF-8" standalone="no"?>
<svg
   viewBox=" 0 0 54 54"
   version="1.1"
   xmlns="http://www.w3.org/2000/svg"
   xmlns:svg="http://www.w3.org/2000/svg"
   xmlns:xlink="http://www.w3.org/1999/xlink">
   <defs>
		<g id="fan">
         <path d="m 8.50805,10.04902 c 1.526404,-2.7320395 5.457496,-2.7320395 6.9839,0 -0.1,0.915196 -2,3.1 -1.5,2.117643 0.0404,-2.8661619 -3.986972,-2.8838381 -3.986113,0 C 9.9,13.206323 8.3325989,12.033317 8.50805,10.1 Z"/>
         <path d="M 5.3810262,7.5157444 C 8.5559325,2.794132 15.479005,2.8138997 18.626313,7.5216046 18,8.1 17.792334,8.0199582 16.977031,8.6412538 14.468744,5.1767625 9.5916868,5.0721999 7.0205383,8.6451582 6.3040536,8.0754353 6.1059682,7.9746671 5.1,7.5157444 Z"/>
         <path d="M 1.5110304,6.1638531 C 6.2290947,-2.1933348 18.032947,-1.8936721 22.488016,6.1619009 22.775247,6.6622781 20.59,6.9898807 20.473036,6.6908638 16.683143,0.34929835 7.1172508,0.60517583 3.5260481,6.6890352 3.33,7 3.4859727,7.3688696 1,7 Z"/>
      </g>
	</defs>
  
  <mask id="circleMask">
		<circle
			cx="50%"
			cy="50%"
			r="50%"
			fill="white"/>
	</mask>
  <g mask="url(#circleMask)">
		<g transform="translate(2.5 9)">
			<use xlink:href="#fan" fill="#707372" x="12.5" y="-18"/>
			<use xlink:href="#fan" fill="#707372" x="0" y="-12"/>
			<use xlink:href="#fan" fill="#707372" x="25" y="-12"/>
			<use xlink:href="#fan" fill="#707372" x="-12.5" y="-6"/>
			<use xlink:href="#fan" fill="#707372" x="12.5" y="-6"/>
			<use xlink:href="#fan" fill="#707372" x="37.5" y="-6"/>
			<use xlink:href="#fan" fill="#707372" x="0" y="0"/>
			<use xlink:href="#fan" fill="#707372" x="25" y="0"/>
			<use xlink:href="#fan" fill="#707372" x="50" y="0"/>
			<use xlink:href="#fan" fill="#707372" x="-12.5" y="6"/>
			<use xlink:href="#fan" fill="#a7a4e0" x="12.5" y="6"/>
			<use xlink:href="#fan" fill="#707372" x="37.5" y="6"/>
			<use xlink:href="#fan" fill="#707372" x="62.5" y="6"/>
			<use xlink:href="#fan" fill="#a7a4e0" x="0" y="12"/>
			<use xlink:href="#fan" fill="#514689" x="25" y="12"/>
			<use xlink:href="#fan" fill="#707372" x="50" y="12"/>
			<use xlink:href="#fan" fill="#707372" x="-12.5" y="18"/>
			<use xlink:href="#fan" fill="#514689" x="12.5" y="18"/>
			<use xlink:href="#fan" fill="#707372" x="37.5" y="18"/>
			<use xlink:href="#fan" fill="#707372" x="62.5" y="18"/>
			<use xlink:href="#fan" fill="#707372" x="0" y="24"/>
			<use xlink:href="#fan" fill="#707372" x="25" y="24"/>
			<use xlink:href="#fan" fill="#707372" x="50" y="24"/>
			<use xlink:href="#fan" fill="#707372" x="-12.5" y="30"/>
			<use xlink:href="#fan" fill="#707372" x="12.5" y="30"/>
			<use xlink:href="#fan" fill="#707372" x="37.5" y="30"/>
			<use xlink:href="#fan" fill="#707372" x="62.5" y="30"/>
			<use xlink:href="#fan" fill="#707372" x="0" y="36"/>
			<use xlink:href="#fan" fill="#707372" x="25" y="36"/>
			<use xlink:href="#fan" fill="#707372" x="50" y="36"/>
			<use xlink:href="#fan" fill="#707372" x="-12.5" y="42"/>
			<use xlink:href="#fan" fill="#707372" x="12.5" y="42"/>
			<use xlink:href="#fan" fill="#707372" x="37.5" y="42"/>
			<use xlink:href="#fan" fill="#707372" x="62.5" y="42"/>
		</g>	
  </g>
</svg>
